<svg id="Layer_1" data-name="Layer 1" xmlns="http://www.w3.org/2000/svg" viewBox="0 0 335.22 448.74"><defs><style>.cls-1{fill:#0c0c0b;}.cls-2{fill:#efc683;}.cls-3{fill:#f8e3c1;}.cls-4{fill:#e9aa47;}.cls-5{fill:#e2866c;}.cls-6{fill:#0e0a07;}.cls-7{fill:#c25847;}</style></defs><path class="cls-1" d="M470.27,773c-1.2-2.54-2.07-4.36-3-6.28h-6.42c-2-3.06-3.92-6-6.07-9.37-3.87-.46-6.67-2.22-8.57-6.41-1.81-4-5.35-7.19-7.86-10.39-4.62-.43-8.18-1.09-10-5.63a10.34,10.34,0,0,0-4.95-5.23c-5.68-2.51-9-7.8-14-11-.69-.44-.78-1.81-1.19-2.84h-3.5c-2.32-3.06-6.16-4.94-7.94-9.53l-5.69-2.59c-.06-.08-.33-.3-.33-.51,0-3.36,0-6.51-3.23-8.94-2.39-1.78-4.19-4.41-6.09-6.8-.93-1.17-2.17-2.7-2.09-4,.37-5.92-1.14-11.61-1.61-17.41-.2-2.39.49-5.55,2-7.22,2-2.13,2.31-4.57,3.38-6.9a36.29,36.29,0,0,1,7.39-11c3.49-3.45,6.28-7.6,10.05-12.28l2-.14,9.22-11.46H415a17.44,17.44,0,0,1,.91-4.43c.56-1.17,2-1.9,2.77-3,.59-.79.58-2.39,1.25-2.68,4.65-2,5.56-8,10.61-9.76,2.25-.79,4.83-2.55,4.62-5.91s2.91-3.25,4.84-4.5v-2.49c2.73-3.63,4.85-7,7.55-9.87,2.52-2.65,5.34-5.55,8.61-6.84,4.65-1.83,6.2-6.51,10.11-8.93,3.33-2.06,3.25-7.09,7.44-9.14,3.46-1.7,6.22-4.86,9.27-7.4.63-.52,1.44-1.05,1.7-1.75a11.44,11.44,0,0,1,7.52-7.07c.72-7.12,5.39-9.3,11.33-10.15,2.36-7,9.8-7.6,14.33-11.89l10.29-9.24h2l7.48-6.65c7.29,1.3,16.1-3.15,21.8,6.41.74.19,3.08.12,3.56,1,2,3.86,8.25,3.3,8.7,8,4.38,2.84,8.53,5.37,12.5,8.18,1.15.82,1.77,2.41,3,4.18,4,.26,7.72,2.49,10.64,6.19v3.31c3,2.33,6.06,4.39,8.25,7.82a20.48,20.48,0,0,0,7.74,6.71c2.4,1.29,5.21,2.89,6.48,6,1.71,4.26,5.77,6.79,8.66,10.19s6.37,6.82,10.33,8.59c5.37,2.41,5.81,8.89,10.85,10.87l.33,2.93c2.1,2.14,4.53,3.47,4.62,4.94.21,3.65,2.62,4.94,5,6.66,2.14,1.56,5.08,3,5.86,5.2,1,2.72,3.55,2.68,4.79,4.46,1.47,2.12,2.94,4.24,4.23,6.47.36.61.06,1.61.06,2.43,5,3,8.93,7.14,12.92,12.52l2,.17c3.43,4.33,6.21,8.48,9.64,12,3.93,4,7.06,8.31,8.34,13.84.69,3,3.46,4.84,4.12,8.22.47,2.35,1.45,5.33.59,6.87-2.61,4.69-.61,9.54-1.71,14.28-2.21,3.29-3.8,7.81-7,9.88-4.13,2.67-4,6-4.37,9.78l-5.76,2.75c-1.27,3.87-5.27,6.06-7.93,9.36h-3.21a59.81,59.81,0,0,1-13.92,13.22,31.32,31.32,0,0,0-6.08,5.07c-4.13,4.86-5.09,5.69-10.21,6.82-.43,3.58-.85,7.16-1.41,11.86,2.28,2.44.41,6-.46,9.79-.83,3.65-.18,7.63-.18,11.73l-3.09,2.63v7.87l-5,7.37-12.37,4.28c-3.19,5.45-2.46,11.09-2.54,16.63,0,.55.23,1.35,0,1.6-3.38,3.17-.37,6.25.36,9.88l-3.33,3.68v6.21l-6.12,6.88.7.81L606,846.67c0,2.61-.46,6.18.12,9.58s-2,6-1.77,9.19-1.1,6-.18,9.37c.85,3.05,0,6.54.25,9.8s-1.68,7.12,2.05,9.87c-4.8,5.37.32,12.36-3.56,17.79l1.47,1.61c-1.82,5.34-3.63,10.63-6,17.75a15.1,15.1,0,0,1-4.05,3.48c-2,1-.21,4.5-3.91,4.39-1.67-.06-3.11,3-6,3.24-1.82.15-3.7,1.58-5.92,1.43-2.45-.16-4.92,0-7.41,0a18.56,18.56,0,0,0-13.27-4.95L554,934.64l-3.7-11c.24-.31.85-1.14,1.51-2-3.34-5,.29-12.31-6-16.87H534c-2.3-4.36-4.56-8.64-6.81-12.92,1.9-4.34,2.28-5.35-.18-10.89-1.07-2.41-1.44-3.72-.44-6.35,1.17-3.1.57-6.87.72-10.05L524.68,862c-4.12-.17-9,.62-13.37-1.65A10.73,10.73,0,0,1,508.6,859a26.89,26.89,0,0,1-7.69-14.85c-.39-2.31-.51-4.48-1.54-6.78a18.81,18.81,0,0,1-1.83-10.74c.32-1.93-1.18-3.58-1.4-5.1-1.07-7.32,1.58-14.33,2.37-21.54-3.55-.59-4.42-4.58-6.22-7-2.08-2.81-5.33-3.91-7.15-6.67a25.7,25.7,0,0,0-6.85-6.9C475.48,777.45,474.12,773.65,470.27,773ZM675,640.16v-3.29h-4.93v-2.33c-2.44-1.38-5.42-2.24-7.09-4.22-1.84-2.18-2.48-5.38-3.68-8.21h-3.53c-1.16-4.47-4.57-7.05-8.64-9.05a22.46,22.46,0,0,1-3.35-2.48v-4.67l-4.34-.44c-1-2.11-1.58-4.43-3-6.12-1.62-2-3.94-3.45-5.89-5.21-1.52-1.36-2.93-2.83-4.8-4.64l-.3-2.66c-3-2.09-6-3.66-8.39-5.91-2.57-2.47-4.53-5.56-6.56-8.14H606a10,10,0,0,0-.63-3c-1.31-2.22-3.7-4.15-4.11-6.48-.7-3.88-5.18-2.9-6.1-5.58-1.23-3.56-4.27-5.36-6.42-8H586l-4.59-4.65v-3l-8.22-6.85c0-.95-.1-2-.17-3.32-4.55-1.36-9-2.62-12.15-6.64-2.82-3.62-8.09-4.92-9.31-9.84H538.73c-1.2,5.15-6.33,6.53-9.43,9.95s-6.58,7-11.95,6.33v3.65q-5,3.72-9.52,7.1l1.7,3c-3.54.53-4,5.41-8.07,4.51-1.88,2.52-4.68,4.09-6,7.37-1.16,2.86-5.78,2.85-6.86,6.9-.82,3.07-3.32,5.69-5.09,8.54h-3.85c-1.79,2.49-3.43,5.65-5.87,7.94s-5.93,4-9,6c-.07,1.17-.15,2.46-.19,3.18-5.67,4.69-11.75,8.12-13.49,15.44l-4.15.47c-1.08,6.7-6.65,9.13-11.76,12-.06,1.3-.12,2.59-.19,3.91l-4.24.47c-1.6,7-2.32,8.66-8.12,11.2-6.27,2.75-9.66,7.93-13.16,13.33-1,0-2.12,0-3.2,0-.2,0-.39.36-.57.54-.92,6.37-7.71,8.45-9.21,12.09-1,4.84-1.57,7.89-2.16,10.87l5.16,10.43,4.39,2.11v5.23c3.45,4.17,5.27,9.11,9.41,12.76l2.25.18,5.57,6.74H426c1.09,1.31,1.8,2.17,2.52,3l4.93,1.65,1.64,1.64a26.21,26.21,0,0,0,14.45,13.18,4.26,4.26,0,0,1,1.94,1.79,6.44,6.44,0,0,0,4,3.32c1.57.54,2.47,3.06,3.74,4.8h3.78c-1.57,5.1,5.57,3.74,5.62,8l7.24,2.33c1.16,4.35,4.13,6.47,8.51,6.36v3.84l3.34,1.6v3.25c2.73,1.63,6.53,2.6,7.71,4.9,1.7,3.35,4.51,5,6.09,7.29l3.69.28c.84,2,1.54,3.59,2.21,5.17l-1.69,2.57,3.26.38,6.39,5.63c1,6.83-1.39,13.62,2,19.85l-3.55,1.47c.58,1.61,1.6,3.2,1.66,4.83.3,7.73-.71,15.55,2.76,24.24l3,2.82,14.06,1.9,1.65,8.21c0,2.63-.12,5.26.07,7.87,0,.7,1,1.33,1.57,2a29.75,29.75,0,0,0,.07,4.63c.12.71,1,1.3,1.57,1.94v1.65l-1.36.54,1.36,1.1v8.52l4.39,6.39,11.57,2.75,2.77-2,2.63,5.47c0,3.21.29,8.67-.08,14.08-.38,5.71,1.88,10.56,3.5,14.45,5.17,6.21,9.68-.27,13.84,1.32,3.6-3.64,7.25-6.47,7.39-11.5,3.79-1.08,0-5.07,2.52-6.62,1.21-6.58.65-13.08.09-19.72-.75-8.69-.19-17.48-.11-26.23,0-.67.63-1.34.89-1.85-4.72-6.11,2.26-11.68-.18-17.07l5-4.09,4.56-3.35h3.83l8.38-7.64c-1.93-3.6,2.16-7.21-.33-10.83,2.52-1.73.11-4.59.74-5.6,1.53-2.45.32-4.76.92-7,.45-1.69,1.07-3.34,1.62-5v-7.4L617,786.1c5.64,2.52,9.62-3.47,13.84-3.34l4.66-4.12c.75-5-1-10.77,1.2-16.62l-1.32-1.41c2.88-4.55,2.5-9.3.1-14.3,3.23-2.34,1.2-5.86,1.77-8.91l1.8-9.68c7.41-2.89,13.89-6.46,17.12-13.55l3.52-.19c1.88-6.05,6.9-7.46,11.94-8.62.21-2.6,1.58-3.6,3.81-4.58,1.83-.79,3-3.08,4.45-4.76,3.26-3.85,7.06-7.43,6.65-13.14,1.24-.25,3.14.82,3.28-1.64,2.6-.65,3.56-2.38,3.29-4.93v-1.64h2.8c.31-.79.53-1.07.47-1.25-.63-1.75,1.55-4.37-1.63-5.33v-7.65c-3.22-.58-2.64-4.74-6-6.19-2.27-1-3.3-4.84-5-7.52H680C680.19,643.12,677.66,641.6,675,640.16Z" transform="translate(-377.72 -495.45)"/><path class="cls-2" d="M686.52,682.88c.41,5.71-3.39,9.29-6.65,13.14-1.42,1.68-2.62,4-4.45,4.76-2.23,1-3.6,2-3.81,4.58-5,1.16-10.06,2.57-11.94,8.62l-3.52.19c-3.23,7.09-9.71,10.66-17.12,13.55l-1.8,9.68c-.57,3.05,1.46,6.57-1.77,8.91,2.4,5,2.78,9.75-.1,14.3l1.32,1.41c-2.16,5.85-.45,11.59-1.2,16.62l-4.66,4.12c-4.22-.13-8.2,5.86-13.84,3.34l-2.76,2.76v7.4l-2.89-1.7a41.32,41.32,0,0,0-5.13,25.92c-3.92,1.12-5.22,4.78-7.78,7.19s-6.94,2.8-7.31,8h3.39l-5,4.09c2.44,5.39-4.54,11,.18,17.07-.26.51-.88,1.18-.89,1.85-.08,8.75-.64,17.54.11,26.23.56,6.64,1.12,13.14-.09,19.72-2.56,1.55,1.27,5.54-2.52,6.62h-2.5c-1.24,2.94-2.37,6.09-6.48,4.8-2-3.75-6.86-5.21-7.47-9.89s-1.4-9.25-2.14-14.12c-4-5.62-9.69-8.18-16.08-7.11l-6.49-5.73v-5.81l-4.85-1.57v-3.29c2.22-2.08,2.22-4.49,0-6.57,1.37-2.46-2.87-4.91-.16-7.28-.5-.86-1-1.72-1.48-2.58.61-2.55,1.22-5.1,2-8.21h-5.26L521.29,842l-3-2.82c-3.47-8.69-2.46-16.51-2.76-24.24-.06-1.63-1.08-3.22-1.66-4.83l3.55-1.47c-3.41-6.23-1.07-13-2-19.85L509,783.17l-3.26-.38,1.69-2.57c-.67-1.58-1.37-3.2-2.21-5.17l-3.69-.28c-1.58-2.26-4.39-3.94-6.09-7.29-1.18-2.3-5-3.27-7.71-4.9v-3.25l-3.34-1.6v-3.84c-4.38.11-7.35-2-8.5-6.36l-7.25-2.33c-.05-4.27-7.19-2.91-5.62-8h-3.78c-1.27-1.74-2.17-4.26-3.74-4.8a6.44,6.44,0,0,1-4-3.32,4.26,4.26,0,0,0-1.94-1.79,26.21,26.21,0,0,1-14.45-13.18h8c1.33-2.43,2.72-4.34,3.46-6.47a43.77,43.77,0,0,0,1.37-6.48c-.88-1.62-1.52-2.82-2.11-3.91l-10,5c-6.73-4.08-5.66-11.15-5.61-18.79l-4.83,3.3v9.8c2.58,3.87,4,8.13,8.09,10.14v5.73l-4.93-1.65v-4L407.22,688c.17-2.25-.46-4.35-3.32-5.11l-4.39-2.11-5.16-10.43c.59-3,1.2-6,2.16-10.87,1.5-3.64,8.29-5.72,9.21-12.09.18-.18.37-.53.57-.54,1.08-.06,2.16,0,3.2,0,3.5-5.4,6.89-10.58,13.16-13.33,5.8-2.54,6.52-4.17,8.12-11.2l4.24-.47c.07-1.32.13-2.61.19-3.91,5.11-2.89,10.68-5.32,11.76-12l4.15-.47c1.74-7.32,7.82-10.75,13.49-15.44,0-.72.12-2,.19-3.18,3.07-2,6.42-3.61,9-6s4.08-5.45,5.87-7.94h3.85c1.77-2.85,4.27-5.47,5.09-8.54,1.08-4,5.7-4,6.86-6.9,1.32-3.28,4.12-4.85,6-7.37,4,.9,4.53-4,8.07-4.51l-1.7-3q4.52-3.37,9.52-7.1v-3.65c5.37.62,8.73-2.79,11.95-6.33s8.23-4.8,9.43-9.95h12.82c1.22,4.92,6.49,6.22,9.31,9.84,3.14,4,7.6,5.28,12.15,6.64.07,1.31.12,2.37.17,3.32l8.22,6.85v3l4.59,4.65h2.76c2.15,2.6,5.19,4.4,6.42,8,.92,2.68,5.4,1.7,6.1,5.58.41,2.33,2.8,4.26,4.11,6.48a10,10,0,0,1,.63,3c-4.76.37-5.54-3.95-8.09-6.94-1.16,1.94-4.27-1.82-5.06,2H586.8c-1.21-4.25-6.45-2.4-8.92-5.63-.93-1.21-4-.62-5.88-1.33-6.63-2.44-12.79-2.28-18.35,2.6a6.93,6.93,0,0,1-2,1.07c-5.33,2.11-13.48,9.56-14.41,14.72-.51,2.8-2.23,4.07-3.5,5.92v17.44c1.52,3,2.63,5.54,4.12,7.89,1.67,2.64,3.68,5.07,5.72,7.83v12.21l-4.32,6.35-8.35,2.16c-2,1.47-4.6,3.28-7,5v14.12c-.55.42-1.36.73-1.6,1.28-1,2.33-2,4.57-1.79,7.35.23,2.56-.43,5.2-.7,7.81h.8l-3.62,4.66c-3.38,0-7.35,1.13-8.83-.23-3.34-3.07-2.09-7.63-2.39-11.55-.31-4.17-2.41-8.74-1.26-12.35,1.64-5.13.73-10.06,1.35-15,.39-3.08-1.42-6.52,1.55-9.24a2.51,2.51,0,0,0,0-2.37c-3.29-5-.66-10.53-1.91-16.05l-3.66-2.35c-1.06,3.68-2,7-3.36,11.67-2.46-6.9-8.55-2.85-11-6.74-.83.78-1.2,1.43-1.62,1.47-4,.34-8,.58-12.32.86-.14.15-.47.75-.93.89-12,3.55-20.28,11.15-25.7,22.33-1.71,3.52-3.58,6.83-3.5,10.87.05,2.46,1,5.83-.18,7.22-3.76,4.31.59,7.33,1.05,10.82.34,2.61,2.37,5,3.57,7.32l7.07,3.47v5.82h3.29v1.9l12.2,8.28c1.25.49,3.94-.66,7,1,3.39,1.86,8.53,2.78,12.05,1.59,4.3-1.45,8.31-.73,11.53-1.25l6.53,6.53c-2.19,2.31-4.56,4.47-6.52,7s-3,5.49-5.07,7.61c-2.72,2.75-1.47,6.35-2.85,9.49-2.1,4.77.21,10.46,2.17,15.11,2.06,4.87,5.91,9,9,13.41.86,1.68,1.71,3.36,2.52,4.93h5.7l6.6,6.59h11.29l2.48,3.28,14-3.56c.13-2.08.22-3.35.3-4.63h2.88l8.43-9.31V747l3.28-2.25c0-3,.09-5.49-.07-7.94,0-.46-1-.87-1.57-1.3a39.17,39.17,0,0,0-6.35-25.82l-6.79-7.06h-4.13l-3.19-3.19c-4.8.41-9.14-3-14-1.72,3.76-4.35,2.52-10.33,4.62-14.5-1.92-7.21-2.41-13.71.92-20h10l11.09-7.21c.63-6.14,1.3-12.59,2-19h3.44l2.66,2.54c17.16,3.08,30.82-1.37,40.93-15.5v-3.5c.54-.55,1.09-1.09,1.64-1.64v-1.64c4.68-1.31,2.95-5.18,3.29-8.22,0-5.12-.14-10.24.06-15.35a8.19,8.19,0,0,0-1.72-5.78c-2.44-3-3.45-6.64-4.92-10.09H606v-4.93h4.56c2,2.58,4,5.67,6.56,8.14,2.35,2.25,5.35,3.82,8.39,5.91l.3,2.66c1.87,1.81,3.28,3.28,4.8,4.64,2,1.76,4.27,3.2,5.89,5.21,1.37,1.69,2,4,3,6.12l4.34.44v4.67l-8.11-2.22c-4-5.82-9-10.9-12.15-17.21-2.6.09-4.69-4.32-7.76-.85,1.33,3.52,2.65,7.05,3.94,10.48h3.59c2.38,2.37,4.3,5.56,7.1,6.84,6.43,3,8,9.07,10.73,14.3,5.11.64,5.39,6.87,9.79,8.12,5.39,6.48,10.79,13,16.13,19.46a9.05,9.05,0,0,1,1.35,2.71,7.3,7.3,0,0,1,0,2c6.16,3.34,5.62,11.11,10.21,15.65L675,681.24a3.92,3.92,0,0,0-4.65,2.75l1.36.53V691l3.29.17ZM637.23,714.1c.54-.55,1.09-1.1,1.64-1.64-.26-1.75.55-2.89,1.66-4.26,4.26-5.23,8.1-13.26,8.16-16.94.12-6.5,0-13,0-18.4-4-5.52-5.15-11.55-9.72-15.29-4.39-3.59-8.86-7.08-13.29-10.62-.57-4.93,3.86-5.64,5.86-8.2,2-3.5,4-7,5.82-10.27-.86-2.85-1.59-5.28-2.38-7.88h-3.88c-1.35,2.31.38,5.21-2,7.53-1.42,1.39-.88,4.61-2.12,6.38-1.44,2-3.86,3.41-6.25,5.38,0,4-.11,8.62,0,13.25.14,4.21-1.07,7.65-4.27,10-5.28.2-7.94-3-10.5-5.77-.25-5.1.93-9.89-2.82-13.91l-4.06,6.09c-4.51,1.44-9.38,1.66-12,4.2s-6,4.72-8.06,7.72c-2.29,3.28-3.59,7.25-5.32,10.92-1.2,3.85.54,8.31-2.33,12.12-2.25,1.66-2.25,3.28,0,4.93v1.65c-.27,0-.76-.08-.79,0-2.23,6.57-.26,12.17,4.33,17.91v4.8c3.06,3.59,7,5.86,10.33,8.73a63.59,63.59,0,0,0,12,7.88c4.48,2.48,9.46-3.32,14.68-.35l4.79-2.58,2.12,1.7c2.64-1.33,5.47-2.51,8-4.13a51.55,51.55,0,0,0,7.38-5.79c.8-.75.83-2.33,1.21-3.54Zm-75.59,83.8c.46,2.38,1.74,2,3.28.89-.07-.69-.14-1.4-.26-2.53h-3c1.07-5.11-2-9.59-1.92-14.65h-3.93a37.82,37.82,0,0,0-3.94,20.47l4.63,6.57,3.52-3.31c0-1.91-.1-4.05.07-6.16C560.11,798.71,561.09,798.32,561.64,797.9Zm24.65-23c-.53,1.68-1,3.36-1.6,5.12,2.74,5.73,4,12.8,11.77,14.59,5-2.55,9.61-5.57,12.83-11.23,0-1.41-.86-4.19.16-5.59,3.27-4.46.68-7.75-1.2-11.39a11.17,11.17,0,0,1-.6-3c.35-2.52-1.08-5.42,1.57-7.47-2.68-2.06-1.33-5-1.53-7.53s0-5.28,0-8.89L603,742.27a5.64,5.64,0,0,0-.29,1.83c1,3.92-.58,7.76-.39,11.76A11.52,11.52,0,0,1,593.44,768c-1.84-2.38-4.47-1-6.44-1.21l-2.29,2.29C587,770.55,586.2,772.84,586.29,774.9ZM548.5,535v3.29h4.93c2.77,1.62,5.24,3,7.37,6.06,3.88,5.51,8.83,10.91,15.78,12.76,3,.8,6.08,4.14,10.5,1.33-5-6.57-12.52-10.62-14.59-18.6h-3.74c-.36-1-.71-1.94-1-2.74a23.38,23.38,0,0,1-11.34-6.51,11.77,11.77,0,0,0-9.89-3.83c-1.87.14-3.76,0-5.77,0l-2.6,4.17Zm23.15,302.16-.32.32,1.14,1.34.52-.51a4.6,4.6,0,0,0-1.49-1c0-3.63.64-7.51-3.29-9.86q-.81-2.46-1.64-4.92c-.89-3.1,2.23-4,3.29-6-.09-4,.79-8.34-4-10.74l-4.22,15.12-4.94,3.39c-9.45-3.86-12.09-12.26-14.44-21,4.06-1.64-.27-4.92.8-7.65s.45-5.84.5-8.8c.05-3.24,0-6.49,0-9.12l-2.4-2.92a13,13,0,0,0-1.29,1.3c-4,5.53-2,12.32-3.87,18.32,2.42,5.72,0,11.74,1.47,17.44a47.75,47.75,0,0,1,3,8.51c.72,3.22,4.48,4.48,4.68,7.9,0,.27,0,.54,0,.82v10.64c0,6.56-.85,13.29,4.61,19l10.4,3.17,7.72-3.89a20.82,20.82,0,0,0,.83-2.37c.8-3.73,5-7.13,1.09-11.3C570.69,842.08,567.92,839,571.65,837.16Zm5.26,9.52c-3.19,5.18-4.94,8.57-3.59,11.81s.4,5.58.11,8.58c-.87,9,.52,18.17-2.06,26.06l6.38,7.28,5.27-2.57c-.19-6.17.81-11.84-1.66-17.17,1.29-10-2.32-19.65-3.13-28.33Zm48.55-106.16c-1.83,4.31-3.4,7.18-4.25,10.25s-1.06,6.56-1.63,10.37c4.17,3.36-1.18,7.28.17,10.61l1.71,3.26c5.25-.91,7.73-4,9.22-8.16-.2-6.28.63-12.73-1.66-18.91a22.38,22.38,0,0,0-.51-2.25C627.87,744.39,627.05,743.17,625.46,740.52ZM498.53,569.41c2,4.6,2.85,8.47,7.18,9,.08,1.6.13,2.64.18,3.66l7,2.71,4.16-6.1v-8.13c-5.08,3.24-9.48,2.82-13.63-.84C502.65,569.09,500.93,569.54,498.53,569.41Zm15.81,96.31c6.76-8.67,4.5-17.1,2.27-25.23h-4.39c1.07,7.73-3.42,14.82-1,22.41Zm111.1-36V619h-4.11c-1.27,4.77-2.5,9.38-3.71,13.95l3.41,3.25Zm31.77,64.87c-.1,2.27-.22,4.81-.33,7.35l1.11-.82,1.65,4.48c3.78-3.71,5.82-6.59,5.46-11Zm-39.64-41.48c-.39-4.45.6-8.8-.78-13.45-4.55,4.16-4.55,4.16-3.61,13.45ZM531.06,542.42c1.47-3.61,3.42-6.31,2.61-9.83-.09-.37-.77-.59-1.34-1l-5.19,2.55v5.05Zm-80.12,68.69c1.63,3,2.85,5.56,6.13,6a9.05,9.05,0,0,0,2.17-.18l2.66-6.18C458,610.58,454.78,610.26,450.94,611.11Zm78.8,13.21,3.08,7.9c3-1,4.74-2.35,4.13-5.18C536.25,623.76,533.87,623.25,529.74,624.32ZM491.06,594c-1.4-2.89-3.41-3.91-6.48-2.63V597l3.69,2.53Zm-67.89,78.47c6,.25,7.75-1.14,8.14-6.46C428.32,667.81,424.67,667.85,423.17,672.46Zm116.49-126.1c-3.42-2.48-5.63-1.78-6.93.48-.67,1.18-.12,3-.12,6Zm57.85,210.73v-6.9l-4.5.28C592.44,754,593.26,756.16,597.51,757.09Zm72.86-93.65h-6.93c.14,1.76.25,3.22.35,4.56C667.33,668.53,669.44,667.57,670.37,663.44ZM472.13,716c1.83,4,3.67,5.62,7.41,4.13-.12-1.48-.23-3-.32-4.13Zm43.52-157.15c4.46.67,4.46.67,6.54-3.32C517.73,554.85,517.73,554.85,515.65,558.84ZM415.39,664c-4.46-.67-4.46-.67-6.54,3.32C413.31,668,413.31,668,415.39,664Zm155,98.33c-5.7-.38-5.71-.4-6.78,4C567,767.5,568.89,766.13,570.36,762.3ZM520.28,622.37c.66,3,1.62,4.89,4.94,4.56V622ZM586.55,814.9l2.23,4.33,2.35-2.35,1.73-1.73-2.21-2.21Zm74.11-168.11-.71-1.43h-4.72c.13,1.75.23,3.21.43,6ZM578,652h-4.92c.11,1.72.2,3.17.3,4.87C576.52,656.28,578.26,655.24,578,652Zm-18,15.72h5.13c-.24-1.19-.39-1.92-.6-2.94l-4.53.4ZM471.56,729c.14,2-1.88,4.9,2.71,4.75V729Zm106.66,5.3c1.8-1.4,5,1.36,4.65-3.52h-4.65Zm-25.84-51.59c-.68-1.64-1-2.49-1.4-3.39-2,1.19-2,1.19-3.62,3.39Zm16,197.44c-.29-2-.49-3.42-.86-5.93l-3.25,5.31ZM471.44,607.43c-.28-2-.49-3.41-.85-5.93l-3.25,5.32Z" transform="translate(-377.72 -495.45)"/><path class="cls-3" d="M686.52,682.88,675,691.12l-3.29-.17v-6.43H675v-3.28l3.63-11.33c-4.59-4.54-4-12.31-10.21-15.65a7.3,7.3,0,0,0,0-2,9.05,9.05,0,0,0-1.35-2.71c-5.34-6.51-10.74-13-16.13-19.46-4.4-1.25-4.68-7.48-9.79-8.12-2.77-5.23-4.3-11.35-10.73-14.3-2.8-1.28-4.72-4.47-7.1-6.84h-3.59c-1.29-3.43-2.61-7-3.94-10.48,3.07-3.47,5.16.94,7.76.85,3.2,6.31,8.15,11.39,12.15,17.21l8.11,2.22a22.46,22.46,0,0,0,3.35,2.48c4.07,2,7.48,4.58,8.64,9.05h3.53c1.2,2.83,1.84,6,3.68,8.21,1.67,2,4.65,2.84,7.09,4.22v2.33c.64,2.6,2.38,3.55,4.93,3.29.07,5.49.37,5.89,4.93,6.57-.9,3.1,2.22,4,3.38,6.22v8.78L687,664l-2.14,3.9C687.79,672.67,686,677.9,686.52,682.88Z" transform="translate(-377.72 -495.45)"/><path class="cls-4" d="M540.28,871.84l4.85,1.57v5.81l6.49,5.73c6.39-1.07,12.12,1.49,16.08,7.11.74,4.87,1.53,9.48,2.14,14.12s5.47,6.14,7.47,9.89c4.11,1.29,5.24-1.86,6.48-4.8h2.5c-.14,5-3.79,7.86-7.39,11.5-4.16-1.59-8.67,4.89-13.84-1.32-1.62-3.89-3.88-8.74-3.5-14.45.37-5.41.08-10.87.08-14.08L559,887.45l-2.77,2-11.57-2.75-4.39-6.39Z" transform="translate(-377.72 -495.45)"/><path class="cls-4" d="M594.5,835.69h-3.39c.37-5.22,4.83-5.69,7.31-8s3.86-6.07,7.78-7.19a41.32,41.32,0,0,1,5.13-25.92l2.89,1.7c-.55,1.67-1.17,3.32-1.62,5-.6,2.24.61,4.55-.92,7-.63,1,1.78,3.87-.74,5.6,2.49,3.62-1.6,7.23.33,10.83l-8.38,7.64h-3.83Z" transform="translate(-377.72 -495.45)"/><path class="cls-2" d="M686.52,682.88c-.49-5,1.27-10.21-1.67-15L687,664l-3.66-2.25V653c-1.16-2.22-4.28-3.12-3.38-6.22h3.82c1.65,2.68,2.68,6.54,5,7.52,3.37,1.45,2.79,5.61,6,6.19v7.65c-.54.65-1.45,1.23-1.56,1.95a28.54,28.54,0,0,0-.08,4.63v1.64H689.8v4.93C689.66,683.7,687.76,682.63,686.52,682.88Z" transform="translate(-377.72 -495.45)"/><path class="cls-3" d="M403.9,682.88c2.86.76,3.49,2.86,3.32,5.11l21.33,18.83v4c-.72-.85-1.43-1.71-2.52-3h-4.9l-5.57-6.74-2.25-.18c-4.14-3.65-6-8.59-9.41-12.76Z" transform="translate(-377.72 -495.45)"/><path class="cls-3" d="M535.35,843.91h5.26c-.75,3.11-1.36,5.66-2,8.21H537Z" transform="translate(-377.72 -495.45)"/><path class="cls-5" d="M537,852.12h1.64c.49.86,1,1.72,1.48,2.58-2.71,2.37,1.53,4.82.16,7.28h-1.64c-.55-.66-1.52-1.29-1.57-2C536.88,857.38,537,854.75,537,852.12Z" transform="translate(-377.72 -495.45)"/><path class="cls-4" d="M538.64,862h1.64c2.22,2.08,2.22,4.49,0,6.57-.55-.64-1.45-1.23-1.57-1.94A29.75,29.75,0,0,1,538.64,862Z" transform="translate(-377.72 -495.45)"/><path class="cls-2" d="M680,646.73c-4.56-.68-4.86-1.08-4.93-6.57C677.66,641.6,680.19,643.12,680,646.73Z" transform="translate(-377.72 -495.45)"/><path class="cls-3" d="M693.09,674.67a28.54,28.54,0,0,1,.08-4.63c.11-.72,1-1.3,1.56-1.95,3.18,1,1,3.58,1.63,5.33.06.18-.16.46-.47,1.25Z" transform="translate(-377.72 -495.45)"/><path class="cls-2" d="M675,640.16c-2.55.26-4.29-.69-4.93-3.29H675Z" transform="translate(-377.72 -495.45)"/><path class="cls-3" d="M689.8,681.24v-4.93h3.29C693.36,678.86,692.4,680.59,689.8,681.24Z" transform="translate(-377.72 -495.45)"/><path class="cls-2" d="M435.12,714.1l-1.64-1.64Z" transform="translate(-377.72 -495.45)"/><path class="cls-4" d="M540.28,870.2v1.64l-1.36-1.1Z" transform="translate(-377.72 -495.45)"/><path class="cls-6" d="M599.43,577.72c1.47,3.45,2.48,7.1,4.92,10.09a8.19,8.19,0,0,1,1.72,5.78c-.2,5.11-.06,10.23-.06,15.35-3.14,1.92-3.44,5-3.29,8.22v1.64c-.55.55-1.1,1.09-1.64,1.64-3.87,1.19-6.36,4.39-9.57,6.53s-7.59,1.65-9.36,4.86a57.76,57.76,0,0,0-6.69-1.48c-2.69-.23-5.75.69-8.07-.28-5.42-2.25-11.46-1.83-16.83-5.18-.9,8.07-1.72,15.38-2.57,23-1.61,4.61-5.25,7.57-10.3,8.87-1.79-.74-3.67-1.1-5-2.17s-2.22-2.9-3.3-4.41c-1,2.91-1.87,5.53-2.72,8h-2.84V644.11c2.45-1.74,5-3.55,7-5l8.35-2.16,4.32-6.35V618.37c-2-2.76-4.05-5.19-5.72-7.83-1.49-2.35-2.6-4.93-4.12-7.89V585.21c1.27-1.85,3-3.12,3.5-5.92.93-5.16,9.08-12.61,14.41-14.72a6.93,6.93,0,0,0,2-1.07c5.56-4.88,11.72-5,18.35-2.6,1.91.71,5,.12,5.88,1.33,2.47,3.23,7.71,1.38,8.92,5.63h6.06c-.13,2.81-.35,5.66,3.29,6.58Zm-14.78-1.64c-1.9-1.63-3.56-4-5.76-4.71-3.84-1.27-7.41-3.91-11.67-3.45-3.83.41-7.54,1.24-10.63,4.06s-6.67,5.2-9.14,7.09c-2.3,11.73-7,22.3-1.29,33.15h5c1.3,7.63,9.42,6,13.39,9.87,3.77,0,7.34.25,10.87-.08,3.33-.31,6.61-1.23,10.73-2,.34-.36,1.2-1.43,2.18-2.36,8.18-7.66,10.47-17.65,9.18-28a14.08,14.08,0,0,0-11.2-11.87Z" transform="translate(-377.72 -495.45)"/><path class="cls-6" d="M454.84,682.88v-2.53l-7.07-3.47c-1.2-2.32-3.23-4.71-3.57-7.32-.46-3.49-4.81-6.51-1.05-10.82,1.22-1.39.23-4.76.18-7.22-.08-4,1.79-7.35,3.5-10.87,5.42-11.18,13.74-18.78,25.7-22.33.46-.14.79-.74.93-.89,4.28-.28,8.3-.52,12.32-.86.42,0,.79-.69,1.62-1.47,2.49,3.89,8.58-.16,11,6.74,1.36-4.71,2.3-8,3.36-11.67l3.66,2.35c1.25,5.52-1.38,11.09,1.91,16.05a2.51,2.51,0,0,1,0,2.37c-3,2.72-1.16,6.16-1.55,9.24-.62,5,.29,9.89-1.35,15-1.15,3.61,1,8.18,1.26,12.35.3,3.92-1,8.48,2.39,11.55,1.48,1.36,5.45.23,8.83.23l3.62-4.66,3.08,2.07v12.1l-6.49,6.5c-4.57,1.73-7.91.22-10.35-1.13l-4.61-13-14.93,9.63c-8.37,1-15.45-.19-22-4.67h-7.11v-3.29Zm42.72-44.36v-3.29c2.72-.3,1.21-2.45,1.73-4-4-4.23-8.08-8.29-14.74-4.3a3.32,3.32,0,0,1-3-.44c-2-1.65-3.73-1.57-5.66,0s-4.52-.26-6.74,1.63c-3.48,3-7.12,4.91-8.25,8.77-1.23,4.19-5.45,6.14-6.18,10.46-.32,1.91-1.82,3.62-3.17,6.12v10.18c3.09,6.42,9.7,8.94,13.58,14.06,5.07.51,10,1,13.52,5.16,8.17,1,14-4.07,20.88-7.1-1.27-6.18,1.33-12.26-2-17.89.54-.8,1.61-1.63,1.62-2.48.08-5.43-.06-10.86-.22-16.28C498.9,638.89,498,638.71,497.56,638.52Z" transform="translate(-377.72 -495.45)"/><path class="cls-6" d="M571.5,684.52c2.87-3.81,1.13-8.27,2.33-12.12,1.73-3.67,3-7.64,5.32-10.92,2.09-3,5.41-5.12,8.06-7.72s7.46-2.76,12-4.2l4.06-6.09c3.75,4,2.57,8.81,2.82,13.91,2.56,2.73,5.22,6,10.5,5.77,3.2-2.36,4.41-5.8,4.27-10-.15-4.63,0-9.27,0-13.25,2.39-2,4.81-3.33,6.25-5.38,1.24-1.77.7-5,2.12-6.38,2.36-2.32.63-5.22,2-7.53H635c.79,2.6,1.52,5,2.38,7.88-1.85,3.27-3.83,6.77-5.82,10.27-2,2.56-6.43,3.27-5.86,8.2,4.43,3.54,8.9,7,13.29,10.62,4.57,3.74,5.71,9.77,9.72,15.29,0,5.4.08,11.9,0,18.4-.06,3.68-3.9,11.71-8.16,16.94-1.11,1.37-1.92,2.51-1.66,4.26-.55.54-1.1,1.09-1.64,1.64l-1.65,1.64c-1.2.38-2.67.44-3.55,1.2a20.62,20.62,0,0,1-7.39,3.88,56.75,56.75,0,0,1-24.79,2.86c-2.59-3.85-7-3.72-11-4.88l-7.68-6.23c-.45-1.35-1.16-3.51-2.42-7.29l-4-3.32c.13-4.33-.41-8-3.27-10.86v-6.58Zm60.8-23a10,10,0,0,0-5.31-5.25c-1.77,1.53-3.52,2.71-2.91,5.25v1.64c-3,3.77-5.64,8-11.3,8.23-6.7-2.56-11.22-7.07-12.12-14.64h-3.38l-12.7,12.32v4l-3.22,2.18a62.25,62.25,0,0,1-.06,7.19,55.59,55.59,0,0,1-1.54,6.46c3.41,9.29,7,18.23,16.36,23.65h5.34c.51.91,1.31,2.34,2.09,3.71l11.74-1.89,2.3,1.79c4.91-3.13,9.72-6,14.33-9.21,2.15-1.49,2.86-4.47,5.31-5.81,1.58-8,6.57-15.41,4.59-24.41-2.9-1.87-1.54-6.47-4.59-8.68-.25-1.24.81-3.14-1.65-3.28l-1.64-1.65C633.39,662.62,632.84,662.07,632.3,661.52Z" transform="translate(-377.72 -495.45)"/><path class="cls-4" d="M458.13,686.17h7.11c6.57,4.48,13.65,5.66,22,4.67l14.93-9.63,4.61,13c2.44,1.35,5.78,2.86,10.35,1.13l6.49-6.5v-12.1l-3.08-2.07h-.8c.27-2.61.93-5.25.7-7.81-.25-2.78.8-5,1.79-7.35.24-.55,1-.86,1.6-1.28h2.84c.85-2.5,1.74-5.12,2.72-8,1.08,1.51,1.92,3.3,3.3,4.41s3.19,1.43,5,2.17c5-1.3,8.69-4.26,10.3-8.87.85-7.64,1.67-14.95,2.57-23,5.37,3.35,11.41,2.93,16.83,5.18,2.32,1,5.38,0,8.07.28a57.76,57.76,0,0,1,6.69,1.48c1.77-3.21,6.22-2.76,9.36-4.86s5.7-5.34,9.57-6.53v3.5c-10.11,14.13-23.77,18.58-40.93,15.5l-2.66-2.54h-3.44c-.66,6.43-1.33,12.88-2,19L541,663.13H531c-3.33,6.33-2.84,12.83-.92,20-2.1,4.17-.86,10.15-4.62,14.5-2,.09-3.84,0-5.85,1.44s-5.19,1.6-8.65,2.52l-3.57,2.61-6.53-6.53c-3.22.52-7.23-.2-11.53,1.25-3.52,1.19-8.66.27-12.05-1.59-3-1.68-5.73-.53-7-1l-12.2-8.28Z" transform="translate(-377.72 -495.45)"/><path class="cls-6" d="M507.42,704.24l3.57-2.61c3.46-.92,6.57-1,8.65-2.52s3.82-1.35,5.85-1.44c4.91-1.24,9.25,2.13,14,1.72l3.19,3.19h4.13l6.79,7.06A39.17,39.17,0,0,1,560,735.46c.21,2.79-1.8,4.66-2.8,7-3.9,9-3.86,9-10.23,13.47-2.73,1.92-5.45,3.86-8.27,5.86a8.86,8.86,0,0,0-3.08.06,22.13,22.13,0,0,1-6.63,1.73c-2.31.17-4.52-2.84-6.77-.15-3-2.4-6.51-1.52-9.87-1.64-2.23-1.64-4.43-3.32-6.71-4.9-.34-.24-1,0-1.51,0-3.07-4.44-6.92-8.54-9-13.41-2-4.65-4.27-10.34-2.17-15.11,1.38-3.14.13-6.74,2.85-9.49,2.1-2.12,3.19-5.22,5.07-7.61S505.23,706.55,507.42,704.24Zm37.79,9.86c-2.94-2.33-5.31-5.81-9.86-4.93-.7-.55-1.39-1.55-2.11-1.57-4.6-.14-9.21-.07-11.73-.07l-15.45,7.14c-1.61,4.39-3.25,8.64-4.7,12.94-.41,1.19-.88,3.2-.31,3.74,2.69,2.52.7,5.71,2,9.4l12,12c5.15,1,8.71,2.29,12.27,2.27s7.08-1.32,10.66-2.06c3-1.75,6.53-3.07,9-5.51,2.67-2.65,4.32-6.34,6.49-9.7v-13c-3-2.3-2.15-7.57-6.57-9Z" transform="translate(-377.72 -495.45)"/><path class="cls-6" d="M566.57,822.55q.82,2.46,1.64,4.92a25.77,25.77,0,0,1-2.16,12.85l-5,5h-8.41l-5.76-9.07c0-1.65.1-3.78-.07-5.89,0-.46-1-.85-1.57-1.27,0-.28,0-.55,0-.82-.2-3.42-4-4.68-4.68-7.9a47.75,47.75,0,0,0-3-8.51c-1.42-5.7.95-11.72-1.47-17.44,1.82-6-.11-12.79,3.87-18.32a13,13,0,0,1,1.29-1.3l2.4,2.92c0,2.63,0,5.88,0,9.12,0,3,.52,6.2-.5,8.8s3.26,6-.8,7.65c2.35,8.71,5,17.11,14.44,21l4.94-3.39Z" transform="translate(-377.72 -495.45)"/><path class="cls-4" d="M571.5,691.1c2.86,2.9,3.4,6.53,3.27,10.86l4,3.32c1.26,3.78,2,5.94,2.42,7.29l7.68,6.23c4,1.16,8.39,1,11,4.88a56.75,56.75,0,0,0,24.79-2.86,20.62,20.62,0,0,0,7.39-3.88c.88-.76,2.35-.82,3.55-1.2-.38,1.21-.41,2.79-1.21,3.54a51.55,51.55,0,0,1-7.38,5.79c-2.55,1.62-5.38,2.8-8,4.13l-2.12-1.7-4.79,2.58c-5.22-3-10.2,2.83-14.68.35a63.59,63.59,0,0,1-12-7.88c-3.37-2.87-7.27-5.14-10.33-8.73V709c-4.59-5.74-6.56-11.34-4.33-17.91C570.74,691,571.23,691.1,571.5,691.1Z" transform="translate(-377.72 -495.45)"/><path class="cls-4" d="M545.21,829.12c.55.42,1.53.81,1.57,1.27.17,2.11.07,4.24.07,5.89l5.76,9.07H561l5-5a25.77,25.77,0,0,0,2.16-12.85c3.93,2.35,3.24,6.23,3.29,9.86-3.58,1.64-.81,4.75-1.64,7,3.86,4.17-.29,7.57-1.09,11.3a20.82,20.82,0,0,1-.83,2.37l-7.72,3.89-10.4-3.17c-5.46-5.7-4.62-12.43-4.61-19Z" transform="translate(-377.72 -495.45)"/><path class="cls-3" d="M548.5,535l-10.35-4,2.6-4.17c2,0,3.9.11,5.77,0a11.77,11.77,0,0,1,9.89,3.83,23.38,23.38,0,0,0,11.34,6.51c.29.8.64,1.74,1,2.74h3.74c2.07,8,9.57,12,14.59,18.6-4.42,2.81-7.45-.53-10.5-1.33-7-1.85-11.9-7.25-15.78-12.76-2.13-3-4.6-4.44-7.37-6.06C552.78,535.69,551.05,534.74,548.5,535Z" transform="translate(-377.72 -495.45)"/><path class="cls-3" d="M576.91,846.68l1.32,5.66c.81,8.68,4.42,18.35,3.13,28.33,2.47,5.33,1.47,11,1.66,17.17l-5.27,2.57-6.38-7.28c2.58-7.89,1.19-17.07,2.06-26.06.29-3,1.19-5.42-.11-8.58S573.72,851.86,576.91,846.68Z" transform="translate(-377.72 -495.45)"/><path class="cls-4" d="M512.35,761.75c3.36.12,6.89-.76,9.87,1.64,2.25-2.69,4.46.32,6.77.15a22.13,22.13,0,0,0,6.63-1.73,8.86,8.86,0,0,1,3.08-.06c2.82-2,5.54-3.94,8.27-5.86,6.37-4.49,6.33-4.5,10.23-13.47,1-2.3,3-4.17,2.8-7,.55.43,1.54.84,1.57,1.3.16,2.45.07,4.92.07,7.94L558.36,747v7.17l-8.43,9.31h-2.88c-.08,1.28-.17,2.55-.3,4.63l-14,3.56-2.48-3.28H519Z" transform="translate(-377.72 -495.45)"/><path class="cls-6" d="M586.29,774.9c-.09-2.06.66-4.35-1.58-5.82l2.29-2.29c2,.16,4.6-1.17,6.44,1.21a11.52,11.52,0,0,0,8.92-12.14c-.19-4,1.39-7.84.39-11.76a5.64,5.64,0,0,1,.29-1.83l4.61-2.77c0,3.61-.15,6.26,0,8.89s-1.15,5.47,1.53,7.53c-2.65,2.05-1.22,5-1.57,7.47-3,1.54-2.37,5.41-5.07,7.48v5.41l-6.87,7.28-6.59-3.24C587.12,778,589.41,775.27,586.29,774.9Z" transform="translate(-377.72 -495.45)"/><path class="cls-4" d="M586.29,774.9c3.12.37.83,3.13,2.83,5.42l6.59,3.24,6.87-7.28v-5.41c2.7-2.07,2.11-5.94,5.07-7.48a11.17,11.17,0,0,0,.6,3c1.88,3.64,4.47,6.93,1.2,11.39-1,1.4-.16,4.18-.16,5.59-3.22,5.66-7.83,8.68-12.83,11.23-7.79-1.79-9-8.86-11.77-14.59C585.24,778.26,585.76,776.58,586.29,774.9Z" transform="translate(-377.72 -495.45)"/><path class="cls-1" d="M435.12,714.1l-1.64-1.64v-5.73c-4.11-2-5.51-6.27-8.09-10.14v-9.8l4.83-3.3c-.05,7.64-1.12,14.71,5.61,18.79l10-5c.59,1.09,1.23,2.29,2.11,3.91a43.77,43.77,0,0,1-1.37,6.48c-.74,2.13-2.13,4-3.46,6.47Z" transform="translate(-377.72 -495.45)"/><path class="cls-3" d="M625.46,740.52c1.59,2.65,2.41,3.87,3,5.17a22.38,22.38,0,0,1,.51,2.25c2.29,6.18,1.46,12.63,1.66,18.91-1.49,4.21-4,7.25-9.22,8.16l-1.71-3.26c-1.35-3.33,4-7.25-.17-10.61.57-3.81.75-7.19,1.63-10.37S623.63,744.83,625.46,740.52Z" transform="translate(-377.72 -495.45)"/><path class="cls-3" d="M561.64,797.9c-.55.42-1.53.81-1.57,1.28-.17,2.11-.07,4.25-.07,6.16l-3.52,3.31-4.63-6.57a37.82,37.82,0,0,1,3.94-20.47h3.93c-.1,5.06,3,9.54,1.92,14.65Z" transform="translate(-377.72 -495.45)"/><path class="cls-1" d="M498.53,569.41c2.4.13,4.12-.32,4.87.34,4.15,3.66,8.55,4.08,13.63.84v8.13l-4.16,6.1-7-2.71c-.05-1-.1-2.06-.18-3.66C501.38,577.88,500.53,574,498.53,569.41Z" transform="translate(-377.72 -495.45)"/><path class="cls-3" d="M514.34,665.72l-3.14-2.82c-2.4-7.59,2.09-14.68,1-22.41h4.39C518.84,648.62,521.1,657.05,514.34,665.72Z" transform="translate(-377.72 -495.45)"/><path class="cls-3" d="M625.44,629.75,621,636.16l-3.41-3.25c1.21-4.57,2.44-9.18,3.71-13.95h4.11Z" transform="translate(-377.72 -495.45)"/><path class="cls-3" d="M596.15,574.44c-3.64-.92-3.42-3.77-3.29-6.58.79-3.83,3.9-.07,5.06-2,2.55,3,3.33,7.31,8.09,6.94v4.93h-6.58v-3.28Z" transform="translate(-377.72 -495.45)"/><path class="cls-4" d="M566.57,822.55l-4.93-1.65,4.22-15.12c4.79,2.4,3.91,6.77,4,10.74C568.8,818.55,565.68,819.45,566.57,822.55Z" transform="translate(-377.72 -495.45)"/><path class="cls-3" d="M657.21,694.62h7.89c.36,4.42-1.68,7.3-5.46,11L658,701.15l-1.11.82C657,699.43,657.11,696.89,657.21,694.62Z" transform="translate(-377.72 -495.45)"/><path class="cls-3" d="M617.57,653.14h-4.39c-.94-9.29-.94-9.29,3.61-13.45C618.17,644.34,617.18,648.69,617.57,653.14Z" transform="translate(-377.72 -495.45)"/><path class="cls-3" d="M531.06,542.42l-3.92-3.22v-5.05l5.19-2.55c.57.4,1.25.62,1.34,1C534.48,536.11,532.53,538.81,531.06,542.42Z" transform="translate(-377.72 -495.45)"/><path class="cls-4" d="M450.94,611.11c3.84-.85,7.1-.53,11-.34L459.24,617a9.05,9.05,0,0,1-2.17.18C453.79,616.67,452.57,614.14,450.94,611.11Z" transform="translate(-377.72 -495.45)"/><path class="cls-3" d="M529.74,624.32c4.13-1.07,6.51-.56,7.21,2.72.61,2.83-1.15,4.23-4.13,5.18Z" transform="translate(-377.72 -495.45)"/><path class="cls-1" d="M491.06,594l-2.79,5.55L484.58,597v-5.65C487.65,590.08,489.66,591.1,491.06,594Z" transform="translate(-377.72 -495.45)"/><path class="cls-1" d="M423.17,672.46c1.5-4.61,5.15-4.65,8.14-6.46C430.92,671.32,429.17,672.71,423.17,672.46Z" transform="translate(-377.72 -495.45)"/><path class="cls-1" d="M539.66,546.36l-7,6.51c0-3-.55-4.85.12-6C534,544.58,536.24,543.88,539.66,546.36Z" transform="translate(-377.72 -495.45)"/><path class="cls-3" d="M597.51,757.09c-4.25-.93-5.07-3.1-4.5-6.62l4.5-.28Z" transform="translate(-377.72 -495.45)"/><path class="cls-4" d="M670.37,663.44c-.93,4.13-3,5.09-6.58,4.56-.1-1.34-.21-2.8-.35-4.56Z" transform="translate(-377.72 -495.45)"/><path class="cls-1" d="M472.13,716h7.09c.09,1.18.2,2.65.32,4.13C475.8,721.61,474,720,472.13,716Z" transform="translate(-377.72 -495.45)"/><path class="cls-4" d="M515.65,558.84c2.08-4,2.08-4,6.54-3.32C520.11,559.51,520.11,559.51,515.65,558.84Z" transform="translate(-377.72 -495.45)"/><path class="cls-4" d="M415.39,664c-2.08,4-2.08,4-6.54,3.32C410.93,663.3,410.93,663.3,415.39,664Z" transform="translate(-377.72 -495.45)"/><path class="cls-4" d="M570.36,762.3c-1.47,3.83-3.41,5.2-6.78,4C564.65,761.9,564.66,761.92,570.36,762.3Z" transform="translate(-377.72 -495.45)"/><path class="cls-4" d="M520.28,622.37l4.94-.35v4.91C521.9,627.26,520.94,625.42,520.28,622.37Z" transform="translate(-377.72 -495.45)"/><path class="cls-6" d="M586.55,814.9l4.1-2,2.21,2.21-1.73,1.73-2.35,2.35Z" transform="translate(-377.72 -495.45)"/><path class="cls-4" d="M504.13,756.82c.51,0,1.17-.21,1.51,0,2.28,1.58,4.48,3.26,6.71,4.9h-5.7C505.84,760.18,505,758.5,504.13,756.82Z" transform="translate(-377.72 -495.45)"/><path class="cls-1" d="M660.66,646.79l-5,4.58c-.2-2.8-.3-4.26-.43-6H660Z" transform="translate(-377.72 -495.45)"/><path class="cls-3" d="M578,652c.25,3.29-1.49,4.33-4.62,4.87-.1-1.7-.19-3.15-.3-4.87Z" transform="translate(-377.72 -495.45)"/><path class="cls-4" d="M602.72,617.16c-.15-3.24.15-6.3,3.29-8.22C605.67,612,607.4,615.85,602.72,617.16Z" transform="translate(-377.72 -495.45)"/><path class="cls-4" d="M560,667.67v-2.54l4.53-.4c.21,1,.36,1.75.6,2.94Z" transform="translate(-377.72 -495.45)"/><path class="cls-3" d="M471.56,729h2.71v4.75C469.68,733.94,471.7,731.06,471.56,729Z" transform="translate(-377.72 -495.45)"/><path class="cls-1" d="M578.22,734.34v-3.52h4.65C583.27,735.7,580,732.94,578.22,734.34Z" transform="translate(-377.72 -495.45)"/><path class="cls-1" d="M552.38,682.75h-5c1.6-2.2,1.6-2.2,3.62-3.39C551.36,680.26,551.7,681.11,552.38,682.75Z" transform="translate(-377.72 -495.45)"/><path class="cls-6" d="M568.39,880.19l-4.11-.62,3.25-5.31C567.9,876.77,568.1,878.21,568.39,880.19Z" transform="translate(-377.72 -495.45)"/><path class="cls-3" d="M471.44,607.43l-4.1-.61,3.25-5.32C471,604,471.16,605.45,471.44,607.43Z" transform="translate(-377.72 -495.45)"/><path class="cls-4" d="M548.5,535c2.55-.26,4.28.69,4.93,3.29H548.5Z" transform="translate(-377.72 -495.45)"/><path class="cls-1" d="M675,681.24v3.28h-3.29l-1.36-.53A3.92,3.92,0,0,1,675,681.24Z" transform="translate(-377.72 -495.45)"/><path class="cls-4" d="M454.84,682.88h3.29v3.29h-3.29Z" transform="translate(-377.72 -495.45)"/><path class="cls-1" d="M561.64,797.9v-1.64h3c.12,1.13.19,1.84.26,2.53C563.38,799.85,562.1,800.28,561.64,797.9Z" transform="translate(-377.72 -495.45)"/><path class="cls-4" d="M571.5,684.52v4.93C569.25,687.8,569.25,686.18,571.5,684.52Z" transform="translate(-377.72 -495.45)"/><path class="cls-4" d="M635.58,715.74l1.65-1.64Z" transform="translate(-377.72 -495.45)"/><path class="cls-4" d="M601.08,620.44c.54-.55,1.09-1.09,1.64-1.64C602.17,619.35,601.62,619.89,601.08,620.44Z" transform="translate(-377.72 -495.45)"/><path class="cls-4" d="M571.65,837.16l1.34,1.15-.52.51-1.14-1.34Z" transform="translate(-377.72 -495.45)"/><path class="cls-4" d="M637.23,714.1c.54-.55,1.09-1.1,1.64-1.64C638.32,713,637.77,713.55,637.23,714.1Z" transform="translate(-377.72 -495.45)"/><path class="cls-7" d="M586.29,577.72a14.08,14.08,0,0,1,11.2,11.87c1.29,10.37-1,20.36-9.18,28-1,.93-1.84,2-2.18,2.36-4.12.81-7.4,1.73-10.73,2-3.53.33-7.1.08-10.87.08-4-3.88-12.09-2.24-13.39-9.87h-5c-5.67-10.85-1-21.42,1.29-33.15,2.47-1.89,6-4.25,9.14-7.09s6.8-3.65,10.63-4.06c4.26-.46,7.83,2.18,11.67,3.45,2.2.72,3.86,3.08,5.76,4.71-3.31.27-6.76-.67-11.09,1.14,5.88,4.69,11.2,8.75,13.19,15h6c.5-4.28-1.47-7.2-4.19-9.77C587.18,581.18,585.72,580,586.29,577.72Zm-13.4,23.18c2,3.72,4.94,3.6,8.1,2.71v-6.06C577.77,597.42,574.67,596.6,572.89,600.9Zm-6.43,3.37-5.84-.3,1.17,1.48-3.71,1c1,3.64,3.09,4.73,5.59,4.08C566.37,609.79,567,607.43,566.46,604.27ZM567,572v6.56l4.85-3.47Zm-5.12,18c-.07-.66-.14-1.31-.22-2h-5.13c.24,1.18.39,1.92.63,3.08Zm10.62-7.57-1.08,1.09c.14.74.28,1.47.48,2.55l4.11-.77Zm-4.27,11.32h3.49c-.24-1.18-.39-1.91-.6-3l-2.89.6Z" transform="translate(-377.72 -495.45)"/><path class="cls-2" d="M596.15,574.44h3.28v3.28Z" transform="translate(-377.72 -495.45)"/><path class="cls-7" d="M584.65,576.08l1.64,1.64Z" transform="translate(-377.72 -495.45)"/><path class="cls-7" d="M497.56,638.52c.47.19,1.34.37,1.34.58.16,5.42.3,10.85.22,16.28,0,.85-1.08,1.68-1.62,2.48,3.37,5.63.77,11.71,2,17.89-6.83,3-12.71,8.14-20.88,7.1-3.49-4.17-8.45-4.65-13.52-5.16-3.88-5.12-10.49-7.64-13.58-14.06V653.45c1.35-2.5,2.85-4.21,3.17-6.12.73-4.32,4.95-6.27,6.18-10.46,1.13-3.86,4.77-5.8,8.25-8.77,2.22-1.89,4.8-.06,6.74-1.63s3.67-1.62,5.66,0a3.32,3.32,0,0,0,3,.44c6.66-4,10.7.07,14.74,4.3-.52,1.54,1,3.69-1.73,4l-3.72-2.73-9.65-2.29c-2.9,2.92-4,6.58-1.81,8.74l3.09,1.4c.55-1.59.87-2.54,1.36-4Zm-13.41,17.93v-4.86l-4.4.34v4.52ZM465,653.37v4.92l4.88-.3C469.32,654.86,468.28,653.12,465,653.37Zm14.39,16.74,6.42-1.21-5.94-5.45C479.65,666.26,479.54,667.71,479.37,670.11Zm9.73-28.17c.28,1.44.43,2.18.63,3.22l4.75-.38-.55-2.84Zm-1.26,21.2c3.67.15,3.7-1.21,2.42-3.39l-2.42.46Zm-10.43-23v-3.49l-3,.61c.24,1.14.43,2.05.6,2.88Z" transform="translate(-377.72 -495.45)"/><path class="cls-5" d="M497.56,638.52l-10.73-2.13c-.49,1.42-.81,2.37-1.36,4l-3.09-1.4c-2.16-2.16-1.09-5.82,1.81-8.74l9.65,2.29,3.72,2.73Z" transform="translate(-377.72 -495.45)"/><path class="cls-7" d="M637.23,668.09c3,2.21,1.69,6.81,4.59,8.68,2,9-3,16.36-4.59,24.41-2.45,1.34-3.16,4.32-5.31,5.81-4.61,3.19-9.42,6.08-14.33,9.21l-2.3-1.79-11.74,1.89c-.78-1.37-1.58-2.8-2.09-3.71h-5.34c-9.34-5.42-13-14.36-16.36-23.65a55.59,55.59,0,0,0,1.54-6.46,62.25,62.25,0,0,0,.06-7.19l3.22-2.18v-4l12.7-12.32h3.38c.9,7.57,5.42,12.08,12.12,14.64,5.66-.27,8.32-4.46,11.3-8.23.38,1.21.45,2.69,1.21,3.56,2.14,2.47,4.57,4.68,6.88,7,.35,5.88.35,5.88,5.06,7.41ZM630.72,686c-.18-2.3-.34-4.4-.53-6.76-4.22,1.22-5.09,3.42-4.12,6.76Zm-29.64,5.5h-4.65v4.59l4.65-.43Zm14.6-6.38c-3.76-2.82-5.34-3.1-6.71-.56l4,3.89Zm4.71-13c-2.65,1.53-5,2-4.33,5.47h4.83C620.72,675.88,620.59,674.43,620.39,672.18Zm-6.17,23.42h5.13c-.24-1.19-.39-1.92-.59-2.94l-4.54.4Zm-9.86-23.79h-5.13c.24,1.18.39,1.92.6,2.93l4.53-.39Zm16.87,27.5v3.49l3-.6-.6-2.89Z" transform="translate(-377.72 -495.45)"/><path class="cls-5" d="M637.23,668.09v13c-4.71-1.53-4.71-1.53-5.06-7.41-2.31-2.32-4.74-4.53-6.88-7-.76-.87-.83-2.35-1.21-3.56v-1.64h8.22c.54.55,1.09,1.1,1.64,1.64l1.64,1.65C635.83,666.05,634.77,668,637.23,668.09Z" transform="translate(-377.72 -495.45)"/><path class="cls-7" d="M632.3,661.52h-8.22c-.61-2.54,1.14-3.72,2.91-5.25A10,10,0,0,1,632.3,661.52Z" transform="translate(-377.72 -495.45)"/><path class="cls-7" d="M637.23,668.09c-2.46-.14-1.4-2-1.65-3.28C638,665,637,666.85,637.23,668.09Z" transform="translate(-377.72 -495.45)"/><path class="cls-7" d="M633.94,663.16c-.55-.54-1.1-1.09-1.64-1.64C632.84,662.07,633.39,662.62,633.94,663.16Z" transform="translate(-377.72 -495.45)"/><path class="cls-7" d="M546.85,715.74c4.42,1.42,3.52,6.69,6.57,9v13c-2.17,3.36-3.82,7-6.49,9.7-2.47,2.44-6,3.76-9,5.51-3.58.74-7.12,2-10.66,2.06s-7.12-1.25-12.27-2.27l-12-12c-1.27-3.69.72-6.88-2-9.4-.57-.54-.1-2.55.31-3.74,1.45-4.3,3.09-8.55,4.7-12.94l15.45-7.14c2.52,0,7.13-.07,11.73.07.72,0,1.41,1,2.11,1.57.51.86,1,1.72,1.84,3.14h-6.84c.12,2.08.2,3.56.29,5.05H535c.85,3,1.73,6.2,2.9,10.41l3.93,3.43-2.05,2.92,4,5.18,2.13-5.33c.3-2.86,2.12-6.72-.11-10.21-1.89-3-3.87-5.85-6.4-9.66h5.79ZM514.12,724h4.07l2.85-3.47c-2-2.52-3.81-4.26-6.92-2.47Zm6.29,12c-5.09-.35-5.1-.37-6.1,4.1h6.1Zm7-15-.72,1.43,4.94,4.52v-5.95Zm-10.73,8.75,5.11,3.25v-6.41Zm15.66,5.92v4.63h2.72v-4.63Z" transform="translate(-377.72 -495.45)"/><path class="cls-5" d="M545.21,714.1h-5.79c2.53,3.81,4.51,6.71,6.4,9.66,2.23,3.49.41,7.35.11,10.21l-2.13,5.33-4-5.18,2.05-2.92-3.93-3.43c-1.17-4.21-2-7.37-2.9-10.41h-4.37c-.09-1.49-.17-3-.29-5.05h6.84c-.83-1.42-1.33-2.28-1.84-3.14C539.9,708.29,542.27,711.77,545.21,714.1Z" transform="translate(-377.72 -495.45)"/><path class="cls-5" d="M546.85,715.74l-1.64-1.64Z" transform="translate(-377.72 -495.45)"/><path class="cls-5" d="M584.65,576.08l1.64,1.64c-.57,2.23.89,3.46,2.28,4.77,2.72,2.57,4.69,5.49,4.19,9.77h-6c-2-6.29-7.31-10.35-13.19-15C577.89,575.41,581.34,576.35,584.65,576.08Z" transform="translate(-377.72 -495.45)"/><path class="cls-6" d="M572.89,600.9c1.78-4.3,4.88-3.48,8.1-3.35v6.06C577.83,604.5,574.89,604.62,572.89,600.9Z" transform="translate(-377.72 -495.45)"/><path class="cls-6" d="M566.46,604.27c.5,3.16-.09,5.52-2.79,6.22-2.5.65-4.57-.44-5.59-4.08l3.71-1L560.62,604Z" transform="translate(-377.72 -495.45)"/><path class="cls-5" d="M567,572l4.85,3.09L567,578.58Z" transform="translate(-377.72 -495.45)"/><path class="cls-6" d="M561.86,590l-4.72,1.12c-.24-1.16-.39-1.9-.63-3.08h5.13C561.72,588.66,561.79,589.31,561.86,590Z" transform="translate(-377.72 -495.45)"/><path class="cls-6" d="M572.48,582.4l3.51,2.87-4.11.77c-.2-1.08-.34-1.81-.48-2.55Z" transform="translate(-377.72 -495.45)"/><path class="cls-5" d="M568.21,593.72v-2.38l2.89-.6c.21,1.07.36,1.8.6,3Z" transform="translate(-377.72 -495.45)"/><path class="cls-5" d="M484.15,656.45h-4.4v-4.52l4.4-.34Z" transform="translate(-377.72 -495.45)"/><path class="cls-6" d="M465,653.37c3.3-.25,4.34,1.49,4.88,4.62l-4.88.3Z" transform="translate(-377.72 -495.45)"/><path class="cls-6" d="M479.37,670.11c.17-2.4.28-3.85.48-6.66l5.94,5.45Z" transform="translate(-377.72 -495.45)"/><path class="cls-6" d="M489.1,641.94h4.83l.55,2.84-4.75.38C489.53,644.12,489.38,643.38,489.1,641.94Z" transform="translate(-377.72 -495.45)"/><path class="cls-5" d="M487.84,663.14v-2.93l2.42-.46C491.54,661.93,491.51,663.29,487.84,663.14Z" transform="translate(-377.72 -495.45)"/><path class="cls-6" d="M477.41,640.16H475c-.17-.83-.36-1.74-.6-2.88l3-.61Z" transform="translate(-377.72 -495.45)"/><path class="cls-5" d="M630.72,686h-4.65c-1-3.34-.1-5.54,4.12-6.76C630.38,681.63,630.54,683.73,630.72,686Z" transform="translate(-377.72 -495.45)"/><path class="cls-6" d="M601.08,691.53v4.16l-4.65.43v-4.59Z" transform="translate(-377.72 -495.45)"/><path class="cls-5" d="M615.68,685.15,613,688.48l-4-3.89C610.34,682.05,611.92,682.33,615.68,685.15Z" transform="translate(-377.72 -495.45)"/><path class="cls-6" d="M620.39,672.18c.2,2.25.33,3.7.5,5.47h-4.83C615.34,674.22,617.74,673.71,620.39,672.18Z" transform="translate(-377.72 -495.45)"/><path class="cls-6" d="M614.22,695.6v-2.54l4.54-.4c.2,1,.35,1.75.59,2.94Z" transform="translate(-377.72 -495.45)"/><path class="cls-6" d="M604.36,671.81v2.54l-4.53.39c-.21-1-.36-1.75-.6-2.93Z" transform="translate(-377.72 -495.45)"/><path class="cls-5" d="M621.23,699.31h2.38l.6,2.89-3,.6Z" transform="translate(-377.72 -495.45)"/><path class="cls-6" d="M514.12,724V718c3.11-1.79,4.87,0,6.92,2.47L518.19,724Z" transform="translate(-377.72 -495.45)"/><path class="cls-6" d="M520.41,736v4.1h-6.1C515.31,735.62,515.32,735.64,520.41,736Z" transform="translate(-377.72 -495.45)"/><path class="cls-6" d="M527.42,720.94h4.22v5.95l-4.94-4.52Z" transform="translate(-377.72 -495.45)"/><path class="cls-5" d="M516.69,729.69l5.11-3.16v6.41Z" transform="translate(-377.72 -495.45)"/><path class="cls-1" d="M532.35,735.61h2.72v4.63h-2.72Z" transform="translate(-377.72 -495.45)"/></svg>