<svg id="Layer_1" data-name="Layer 1" xmlns="http://www.w3.org/2000/svg" viewBox="0 0 757.5 113.9"><defs><style>.cls-1{opacity:0.85;}</style></defs><g class="cls-1"><path d="M235.2,908.9l-.2,2,.3,2.1-1.4,1.6-.8,1.9-1.3,1.6-1.4,1.5-1.9.8-1.8,1-1.9.6-1.8,1-1.9.6-1.8,1.1-2.2-.3-1.9,1-2-.2-2.1.4-.3-.4h-3.9l-1.9-.5-1.9-.2-1.9-.2-1.9-.3-1.8-.9-1.8-.6-2-.3-1.5-1.4-1.6-.9-1.4-1.4-1.6-1.1-1.1-1.7-.4-2.1.7-1.9.6-2,1.8-.9,1.9-.8,1.9-.6,1.9-.5,2.1-.5,1.9.8,2,.4,2,.3,1.9,1,1.2,1.7.2,2.1v1.9l.5,1.9v2l1.6,1.1,1.7.8,1.9-.3h2l1.1-1.6,1-1.4.7-1.9-.4-1.9-1.5-1.3-1.2-1.6-1.7-.9-1.4-1.5-1.9-.6-1.8-.8-1.7-1-1.7-1-1.7-.9-2.1-.2-1.7-1.1-1.7-.9-1.8-.8-1.2-1.7-1.6-1.2-1.7-1-.7-1.9-.7-1.7-1-1.9.5-1.9-.2-2,.8-1.8,1.2-1.6,1.2-1.5,1.1-1.5,1.6-1.2,1.9-.6,1.7-.8,1.5-1.4,1.9-.3,1.8-.9,1.9-.4,1.9-.3h2l1.9-.3,1.9.5.3-.6,1.9.4,2-.2,1.8.6,1.9.4,1.9.5,1.8.6,1.8.7,1.4,1.5,1.5,1.1,1.8.8.9,1.8,1.3,1.5v2l.4,2-1.6,1.3-1.1,1.5-2,.4-1.7,1.1-1.9-.4h-2l-1.8-.3-2-.5-1.7-.9-1.2-1.6-1.3-1.5v-2l-.8-2-.9-2-1.8-1.3h-2l-1.9.7-.9,2.1v2.2l1.1,1.6.9,1.7,1.5,1.2,1.1,1.7,1.8.8,1.6,1,1.9.6,1.8.8,1.5,1.4,1.9.5,1.6,1,1.8.9,1.9.4,1.5,1.3,1.7.9,1.5,1.3,1.1,1.6,1.6,1.3.7,1.8Z" transform="translate(-186.1 -874.7)"/><path d="M312.8,915.2l.2,2-1.4,1.5-.6,2-1.6,1.3-1.5,1.2-1.8.7-1.7,1.1h-6l-1.9.4-2-.4h-2l-2-.2-1.9.6-2-.4-2,.3-2-.4h-1.9l-2,.3-2,.3-2-.5-2,.2-1.9-.3-2-.2-2-.4-1.7-.9-1.4-1.1-.4-1.7-.2-2.1,1.3-1.6.9-1.8.6-1.8.6-1.8.3-1.9.6-1.9.5-1.9-.3-2-.2-2,.2-1.9-.3-2-.3-1.9.2-2v-2l-.4-1.9-.8-1.9-.2-2-1.1-1.6-.6-1.7-1.1-1.5v-1.7l.6-1.9,1.4-1.2,1.8-1.1,2,.2,1.9-.6,2-.4,2,.6.9-.6,2,.6,2-.2,1.9.5,2,.3,2,.4,1.5,1.4.6,2-.8,1.6-.3,1.8-1.3,1.3-.4,2-.5,2-.2,2-.4,2-.8,1.9v2l.2,2.1v4l-.5,2,.5,2,.2,2v2.1l.5,2,.8,1.9.9,1.8.9,1.9,1.8,1,1.7.9h1.9l2,.3,1.8-.7,1.7-1,.8-1.8,1.4-1.4.9-1.7.7-2,1.9-.9,2-.9h2.1l2.1.4,2,.9,1.1,1.8Z" transform="translate(-186.1 -874.7)"/><path d="M363,884.7l-.9,1.7-.4,1.9-.2,2-.7,1.8.2,2-.7,1.9.4,2v2l-.3,1.9.3,2-.5,1.9.8,1.9-.3,2,.6,1.9v2l1,1.8,1.6,1.3,1.1,1.9.2,2.1-.7,1.9-1.7.9-1.7.8-1.9.6-2,.3h-4l-.9-.3h-2l-2,.7-2-.2-1.9-.5-1.8-1.1-1.2-1.4-.8-1.6.6-1.9.7-1.8,1.1-1.6.9-1.8.8-1.8v-2.1l.6-1.9-.4-2,.5-1.9-.4-2V900l.4-2-.2-2-.3-1.9-.2-2-.2-1.9-.5-1.9-.5-1.9-1-1.7-1-1.5-1-1.6-.2-1.8.7-1.9,1.6-1.3,1.9-.6,1.9-.3,2-.3,1.9-.5,2-.2.9.5h2l2,.2,1.9.3,1.9.4H363l1.4,1.5.7,2-.4,1.7-.6,1.8Z" transform="translate(-186.1 -874.7)"/><path d="M443.6,907.2l-.8,1.7-.9,1.7-.6,1.9-1.1,1.6-1.2,1.5-1.3,1.5-1.2,1.4-1.3,1.5-2.1.5-1.5,1.2-1.6,1-1.7,1-2,.2-1.9.5-1.8.8-2-.4-1.9.7-1.9-.6h-4.1l-1.8-1-2-.2-1.8-.9-1.8-.9-1.6-1.2-1.7-1.1-1.6-1.2-1.4-1.5-1.2-1.6-.8-1.9-1.2-1.6-1.3-1.6V908l-.8-1.9-.9-1.8v-6.1l.3-2,.7-2,.4-1.9,1.3-1.7.7-1.8.6-2,1.4-1.4,1.4-1.6,1-1.7,1.6-1.3,1.7-1.1,1.9-.7,1.6-1.2,2-.5,1.7-1.2h2l1.9-1h8.1l2,.6,1.9.4,1.8,1.2,2,.4,1.6,1.3,1.9.7,1.7,1.1,1.1,1.8,1.9,1,1,1.7,1.2,1.7,1.2,1.7.3,1.9v3.9l-1.3,1.6-1.2,1.4-1.2,1.6-1.7.9-1.8.7-1.8.5-1.9.4h-3.9l-1.5-1.5-1.4-1.2-1.1-1.5-.5-1.8v-1.9l-.4-2,.2-1.8.4-1.9-.8-1.8-.2-1.8-.9-1.6-.7-1.8-1.7-.8-1.8-.6-1.8,1.2-1.6,1.3-1.3,1.6-.7,1.9-.7,2-.9,1.9v2.1l-.5,2v2l-.2,2.1.6,2.1.3,2v2l.9,1.8.5,1.9,1,1.8,1.2,1.6,1.3,1.5,1.8,1,1.9.5,1.9.8,2-.4,2,.2,1.8-.8,2-.4,2-.3,1.9-.7,1.5-1.3,1.8-1.1,1.1-1.7,1.4-1.4,1.9-1.2,2.2-.3Z" transform="translate(-186.1 -874.7)"/><path d="M489.8,895.8l2.8-.2,1.9.2,1.9-.7,1.3-1.4,1.5-1.1,1.3-1.3,1.4-.9,1.3.7,1.1,1.4.2,1.9.8,1.7-.5,1.8.5,1.9v1.8l-.8,1.7-1.2,1.4-1.3.6-1.6-.6-.9-1.6-1.6-1.1-1.7-.7-1.7-.5-1.8-.4h-2.9v1.7l.3,1.9-.4,2.1.4,1.9.9,1.9.6,1.9-.2,2.1.8,1.8,1.3,1.6,1.3,1.5,1.7.9,1.8.4H500l2-.4,1.5-1.4,1.3-1.5,1.5-1.4,1-1.8,1-1.7,1.8-1,2-.5h4.1l2,1,1,1.8,1,1.8v2l-.9,1.8-1.6,1.2-1.1,1.6-1.7.9-1.7.9-1.7.8-1.9.4-1.9.4-1.9.3h-2l-2-.7-2,.2-1.9-.2-2,.6h-2l-2-.3h-1.9l-2,.2h-2l-2-.2-2,.4-2-.3-1.9-.2-2-.5h-2l-1.8-.8-1.2-1.5-.8-1.6.4-2,.6-1.9,1.6-1.3.7-1.9.6-1.9.2-1.9.6-2-.5-2,.4-1.9V898l-.3-1.9-.2-2-.3-1.9-.4-2v-2l-.5-1.9-1.3-1.5-.5-1.8-1-1.5-.7-1.7.9-2,1.8-.8,1.7-1.1,1.9-.2,2-.5,1.9-.2h2l2-.3h4l1.9.2,2-.4,2,.3h3.9l2,.2,2-.2,2,.2,1.9.3h2l1.9.2,2,.2,1.7.9,1.7,1,1.8.7L518,880l1.2,1.6.8,1.8-.3,1.9-.3,1.9-1.3,1.7-1.9.7-2.1.6-2-.5-2-.5-1.6-1-1-1.6-1.5-1.5-.7-2-1.4-1.5-1.8-1.1-2-.7-2,.6-2-.3-1.6,1.1-.9,1.8-1.4,1.4-.4,1.9-.8,1.8-.3,1.9-.5,1.8-.5,1.9Z" transform="translate(-186.1 -874.7)"/><path d="M698.9,910.2l.3,2-1.1,1.6-.5,1.9-.7,1.9-1.5,1.3-1.1,1.6-1.8.9-1.7.9-1.5,1.2-2,.2-1.8.6-1.9.7-1.9.3-1.9-.2-2,.3h-4l-1.9.2-2-.2h-4l-2-.4h-2l-2,.6-1.9-.6h-2l-2,.2-2-.3-1.8-1.1-1.3-1.3-1.1-1.7.7-2,1-1.7.8-1.9,1.2-1.5.5-1.9.5-1.9.4-2-.5-2v-1.9l.5-2V900l-.7-2,.3-1.9-.6-2v-1.9l-.4-1.9v-2l-.8-1.8-.8-1.7-.5-1.8-1.3-1.4-.4-1.8,1.2-1.7,1.3-1.3,1.8-1,1.9-.7,2,.4h2l1.9-.3,2.1-.4h2.1l2,.7h2.1l2.1-.2,2-.2h2.1l2.1.5,1.9-.3h2l1.9.3,1.9.6,1.8.7,1.6,1.2,1.6,1.1,1.8.8,1.1,1.7,1.2,1.5v2l.4,1.9-.2,2-.3,2-1,1.7-1.6,1.2-1.5,1.2-1.4,1.2,1.7.5,1.6,1.2,1.5,1.2,1.7.9,1.1,1.5,1.5,1.3.6,1.8.6,1.7.9,1.8ZM667.3,900l.5,2.1-.7,2.1.5,1.9.7,2v2l.8,1.9.3,2,.6,1.9,1.3,1.6.8,1.9,1.7,1.2,2,.2,1.6-.2,1.7-.2,1.2-1.1,1.2-1.5.8-1.8.2-1.9.3-2v-1.9l-.4-2-.2-2-.8-1.8-1.7-1.3-1-1.8-1.7-1-2-.3-1.9-.3-1.9-.4h-2Zm.2-4.6,2.1-.6h2.1l1.7-1.3,1.4-1.5,1.6-1.3.9-1.8,1.3-1.6.8-1.9v-2.1l.2-2.1-1.4-1.6-2.3-.4-1.9.4-1.8.9-1,1.7-.8,1.7-.8,1.8-.4,1.9-.6,1.9-.5,1.9-.2,2Z" transform="translate(-186.1 -874.7)"/><path d="M781.4,900.2l.5,2-.7,1.9L781,906l-.6,1.9-1,1.7-.3,2-1.3,1.5-1.2,1.6-1.1,1.6-1.5,1.3-1.4,1.3-1.8,1-1.3,1.5-2,.6-1.6,1.2-1.8.8h-2l-1.9.6-1.9.4h-2l-1.9-.2-2,.7-1.9-.6-2-.4-1.8-.6h-2l-1.9-.6-1.6-1.3-2-.5-1.5-1.4-1.7-.9-1.5-1.3-.9-1.9-1.7-1.1-.8-1.8-1-1.7-.8-1.8-.7-1.8-.8-1.8-.7-1.8v-4l.2-1.9-.2-2,.4-2,.8-1.8.7-1.8.6-2,1.6-1.3.7-1.9,1.6-1.1,1-1.8,1.5-1.4,2-.6,1.2-1.7,2.1-.3,1.5-1.4,2-.3,1.9-.5,1.8-.8,1.9-.6,2,.4,2-.3h2l1.9.2,1.9.9,1.9.4,1.9.3,1.7,1,1.8.8,1.8.8,1.9.6,1.5,1.3,1.1,1.7,1.6,1.2,1.2,1.6.9,1.7,1.3,1.5,1.1,1.6.8,1.8v2.1l1,1.8.4,1.9Zm-17.6-1.9-1-1.8v-2l-.8-1.9-.7-1.9-.5-1.9-1.5-1.5-.8-1.9-1.2-1.6-1.5-1.3-1.5-1.4-1.9-.7-2-.3-1.6,1.3-1.7,1.1-.7,1.9-.5,1.9-1,1.8-.2,2v2l-.2,2-.2,2.1,1,1.9v2l.3,2,.2,2,1,1.8.8,1.9.2,2,1.3,1.6.6,1.9,1.3,1.6,1.2,1.5.9,2,1.9.7,1.7,1.2h2.1l1.9-.8,1.5-1.5.8-1.9.4-2,.7-1.8.4-2,.3-2-.4-2v-4l-.3-2Z" transform="translate(-186.1 -874.7)"/><path d="M860.1,921.8l-1,1.4-1.4,1.4h-2l-1.9.5-1.9.2-1.9.4-2-.3-2-.3-2-.5-1.6-1.2-1.5-1.2-1.6-1.2-.8-1.8-.5-1.8-.6-1.9.2-1.5-.4-1.5v-3.8l-1.3-1.6-1.9-.4-2.1.3h-2.1v2l.4,2.2.6,2.2.8,2.1,1.4,1.4.7,1.9.3,1.9v1.9l-1.5,1.5-2,.3-2,.5-1.9.2h-2l-2-.2-.9.4h-4l-2-.4-1.9-.5-1.9-.5-1.1-1.7-.7-1.6v-2.1l1.1-1.7,1.2-1.6.8-1.8.4-1.9.2-1.9.3-1.9v-2l.4-1.9v-2l-.2-1.9-.4-2,.2-1.9.2-2-.8-1.9.3-2-1-1.8v-2.1l-.9-1.9-1.1-1.3-.8-1.6-.4-1.7.8-1.8,1.2-1.6h2l1.9-.4,1.9-.7h2l2,.4h2l2-.2h2l1.9.4h6l2-.3,2,.7,2.1-.2,1.7,1.1,1.9.8,1.9.7,1.5,1.3,1.5,1.3,1.9.9,1.1,1.8,1.1,1.6.6,2,.4,2,.6,1.9-.2,2-.5,1.9-.9,1.7-.6,1.9-1.2,1.6-1.9.9-1.4,1.2-1.9,1.4,2.1.7,2,.4,1.2,1.5,1.6,1.1.8,1.8.9,1.7.2,1.9.5,2-.2.8.4,1.8,1.3,1.4,1.3,1.6ZM833.4,903l1.9-.4,1.2-1.5,1.7-1.1.9-1.7.7-1.7.3-1.9.5-1.8V891l-.2-1.8v-2l-.4-1.9-1-1.7-.9-1.8-1.2-1.5-1.9-.8-1.8-.6-1.5,1.2-1,1.5-1,1.7-.4,1.9v1.9l.2,2V891l-.5,1.9.2,1.9.4,1.9.2,2,.8,1.7.8,1.9Z" transform="translate(-186.1 -874.7)"/><path d="M942.5,900.2v2l.2,2-1,1.8v2l-.8,1.8-1.3,1.5-.4,2.1L938,915l-1.6,1.2-1.5,1.3-1.4,1.3-1.4,1.4-1.7.9-1.6,1.2-2,.5-1.7.9-1.9.4-1.9.6-1.9.7-2-.6-2,.8-1.9-.3-2-.5-1.9-.5h-2l-1.7-1-2-.4-1.7-.9-2-.6-1.4-1.4-1.6-1.1-1.6-1.1-1.4-1.5-1.1-1.6-1-1.7-1-1.7-.8-1.8-.6-1.8-.6-1.8-1.2-1.8.5-2.1-.2-1.9-.2-2,.3-1.9.2-2,1.2-1.7v-2l1.1-1.7.8-1.8,1.5-1.4,1.3-1.4,1-1.8,1.5-1.3,1.8-.9,1.5-1.3,1.8-.8,2-.5,1.6-1.2,2-.3,1.9-.2,1.9-.6,2,.2,1.9-.4,2-.3,1.9.9h2l1.9.6,1.8.8,1.9.3,1.7,1.1,1.7.9,2,.6,1.3,1.5,1.2,1.5,1.8,1,1.3,1.5,1.3,1.6.8,1.8,1,1.7.9,1.8v2.1l1,1.7-.2,2.1Zm-17.6-1.9-.7-1.9-1-1.8v-2.1l-1.1-1.7-.9-1.8-.4-2-1.7-1.3-1.2-1.6-1-1.8-1.6-1.3-1.9-.8-2,.3-1.9.6-1.1,1.6-1.4,1.5-.5,2-.6,1.9-.2,2,.3,2-.9,2,.8,2v4.1l.2,2,.9,1.8v2.1l1,1.8.7,1.8,1.2,1.7.5,1.9,1.2,1.7,1.3,1.5,1.3,1.4,1.5,1.3,1.7,1,2.1.2,1.9-.9,1.6-1.3.9-1.9v-2.1l1.2-1.8.2-2-.2-2v-2l-.3-2,.5-2.1-.9-1.9Z" transform="translate(-186.1 -874.7)"/><path d="M215.1,975.4l.5,2-1.1,1.8-.8,1.7-1,1.7-1.1,1.7-1.7,1.1-1.6,1.3-1.9.7-1.9.7-2,.3h-2l-2-.5-2,.6-2-.4-2-.2h-1.9l-1.8.4-1.5-1.3-.7-1.2.8-2.3.6-2v-2.1l.8-2v-2l-.5-2.1-.5-2-.2-2-.8-1.7-.9-2.7.9-1.6,1.8-.6h1.8l1.9-.2,2,.2h2l2-.2,2,.2h2l1.9.7,2,.2,1.8.9,1.8.9,1.6,1.3,1.4,1.5.9,1.8.7,1.8.5,1.9Zm-8.8,0-.9-2.1v-2.2l-.7-2.1-1.2-1.8-1.6-1.4-1.9-.8-1.3,1.1-.9,1.6-.3,1.9-.3,1.9v1.9l-.5,2,.7,1.9-.3,2v2l.4,1.9,1.4,1.5,1.3,1.5,2-.6,1.2-1.5.9-1.6.4-1.8,1.2-1.6.3-1.9Z" transform="translate(-186.1 -874.7)"/><path d="M240.7,973.1l1.5-.3h2l1.3-1.4,1.6-.9,1.5,1.4.3,2.4-.2,2.4-1.6,1.9-1.2-1.8-1.8-1h-1.9l-1.6-.3v2.1l.5,2,.3,2,.7,1.9,1.2,1.7,1.9.4,2-.2,1.8-1.1,1.3-1.7,1.2-1.6h2.1l1.9.8,1.4,1.4-.9,1.6-.9,1.5-1.4,1.1-1.6,1-1.9-.3h-3.8l-2,.3-1.9-.3-1.9.4-2-.2h-1.9l-1.9.3-1.7-.5-1.9-.3-.6-1.7.3-1.4.9-1.2.7-1.9v-2.1l.8-1.9-.2-2.1-.4-2-.3-1.9-.6-2-.5-1.7-.7-2.7.9-1.3,1.5-.9,1.8-.3,1.9.2h1.9l1.9.2,2,.2,1.9-.4,2,.4,1.9-.6,1.9.6,1.9-.3,1.8.7,1.3,1.3,1.2,1.4.6,1.7-1.5,1.5-1.8,1h-2.3l-1.6-1.6-1.2-1.6-1.3-1.6h-2.1l-2,.3-1,1.8-.9,1.8v2Z" transform="translate(-186.1 -874.7)"/><path d="M295.2,968.4l-1-2.1-1.9-1.6-1,1.7-.8,1.7-.2,1.9-.3,1.9v1.9l.4,1.9-.5,1.9.4,1.9.3,1.9,1,1.5.7,1.4v1.5l-.5,1.5-1.7.3-1.8.5h-1.8l-.4.3-1.9-.3-1.7-.4-1.6-.8-1-1.2.2-1.5.7-1.4,1-1.8.3-2,.4-2.1v-2.1l-.2-2.1-.5-2.1v-2l-.3-2.1-1.2-1.5-1.8,1.3-1.3,2-1.5,1.4-2-.4-1.4-1.4-1.2-1.8,1.3-1.9,1.5-1.6,2.2-.2,2.3.3,1.9-.4,2,.4h2l2-.2h2l2-.5,2,.6,2-.5,2.1.5,2.1.4,2,.9.3,2.1-.4,1.9-1.5,1.3-2,.2Z" transform="translate(-186.1 -874.7)"/><path d="M342.6,986.4l-1.4,1.2-2,.3-2,.2-1.8-.2h-1.9l-1.5-1.3-.9-1.6-.9-1.7.5-1.5-.5-1.9-1.5-1.1h-2.2V981l1,2,.5,1.5.7,1.3-.7,1.7-1.8.7h-1.8l-1.9.4-.4-.6-1.9.5h-1.9l-1.7-.7-1.1-1.8.6-1.5,1-1.2.9-1.8.2-2v-4l.3-2.1-.9-1.9-.3-2-.6-1.7-.6-2.7.7-1.3,1.6-.7,1.8-.6h1.9l1.8.3,1.8-.3,1.9.6,1.8-.4h2.1l2.1.6,2,.9,1.4,1.5,1.7,1.3.7,2,.2,2v1.9l-.7,2-1.6,1.3-1.3,1.1,1.4,1,1.9.8.3,2.1.7,1.9-.3.4,1.2,1.5Zm-14.2-9.6,1.9-.8,1.3-1.5.7-1.9.3-1.9-.7-1.9-.4-2-1.2-1.6-1.9-.3-1.5.8-.4,2-.2,1.9v4l.7,1.9Z" transform="translate(-186.1 -874.7)"/><path d="M386.5,975.4l-.3,1.9-.9,1.8-.5,1.9-.9,1.7-1.6,1.3-1.5,1.2-1.7.9-1.6,1-1.9.5-1.9.8h-1.9l-2-.7h-1.9l-1.8-.9-1.8-.6-1.5-1.2-1.8-1-1.3-1.4-1.1-1.7-.9-1.7-.5-1.9v-4l.5-1.9,1.4-1.5.6-1.9,1.7-1.1,1.3-1.4,1.7-1,1.8-.7,1.7-.7,1.9-.3h5.9l1.7,1,1.8.7,1.5,1.2,1.9.8.8,1.9,1.6,1.2.4,2,.9,1.8Zm-10.2-.9-.4-2-.4-2.1-1.1-1.8-1.4-1.5-1.3-1.6-2.1-.4-1.9,1.1-.7,2-.6,2,.4,2v2.1l-.2,2.1.9,1.9.4,2.1,1.1,1.8,1.1,1.8,1.8,1.1,1.9.3,1.6-1,.7-1.9.4-1.9.2-2.1-.2-2Z" transform="translate(-186.1 -874.7)"/><path d="M411.6,967.2v2.1l-.7,1.9.2,2.1-.5,1.9.2,2v4.1l1.3,1.6.9,1.4.3,1.5-.8,1.7h-1.9l-1.7.8-1.9-.5-.5.8-1.8-.5h-1.8l-1.6-1-.9-1.3.3-1.4,1.2-1.1.8-2v-4l.2-2.1v-2l-.7-1.9-.3-2-.6-1.7-1-2.7.9-1.7,1.8-.7h3.6l.5-.3,1.8.4,1.8.2,1.8.3,1.1,1.6Z" transform="translate(-186.1 -874.7)"/><path d="M451.3,968.5l-.8-2.2-1.9-1.5-1,1.6-.5,1.8v1.9l-.3,1.9v1.8l-.6,1.9.2,1.9.5,1.8v2l.7,1.8,1,1.1.4,1.5-1,1.4-1.6.6-1.8.2-1.8.6-.5-.8h-3.6l-1.9-.2-.5-1.9v-1.5l.9-1.3,1-1.8.2-2.1-.5-2.2.4-2,.4-2.1-.3-2.1-.5-2-.4-2.1-1-1.8-2.1,1.4-.9,2.2-1.5,1.8-2.1-.8-1.5-1.3-.8-1.9,1-1.8,1.5-1.5h2.3l2.1-.6,2,.4h2l2-.4h2l2,.2,1.9-.6h2l2,.5h4.4l1.9,1.4.4,2.1-.6,1.9-1.4,1.5-2.2.6Z" transform="translate(-186.1 -874.7)"/><path d="M533.4,979.8l.4,2-1,1.7-1.5,1.1-1.7.9-1.5,1.1-1.8.4-1.8.4-1.8.8-1.9.3V988h-2.1l-1.9-.4-2.2.3-1.8-1-1.8-.9-1.6-1.1-1.2-1.6-.3-1.9,1.4-1.3,1.6-1.1h2l1.9.2h2.1L518,981l.2,1.9.4,1.9,1.7.6h1.8l1-1.3.6-1.9-1.2-1.7-2.1-.5-1.4-1.5h-2.1l-1.6-1.3-1.8-.6-1.8-.8-1.2-1.6-1.5-1.3-.8-1.8.5-1.9.4-1.9,1.6-1.2,1.3-1.4,1.7-1h2l1.8-.7h1.9l1.9.2v-.3l2.1-.2,1.9.6,1.9.7,2,.6,1.2,1.7,1.5,1.4-.2,1.9-.9,1.9h-2.1l-2,.5-2-.6-1.5-1.5-1.1-1.7-.3-2-1.7-1-1.6.8v1.9l.9,1.7,1.3,1.5,1.9.7,1.7,1.1,1.8.9,2,.5,1.7,1.2,1.6,1.2,1.1,1.7Z" transform="translate(-186.1 -874.7)"/><path d="M572.3,968.3l-1.1-2.2-2.2-1.4-1.1,1.7-.6,1.8-.4,1.8-.2,1.9v1.9l.5,1.9v3.8l.2,1.9.8,1.7,1,1.2v1.5l-.9,1.3-1.6.6-1.7.7h-1.9l-.4-.3-1.8.3h-1.9l-1.7-.8-.6-1.6.3-1.4.9-1.2.5-2.1V979l.6-2-.3-2.1.2-2.1-.4-2.1.2-2.1-.9-2-.9-2-2,1.7-1.4,2-1.2,1.9-2.3-.3-1.6-1.5v-2.2l.3-2.1,2-1,2.1-.2,2.2-.5h4l1.9.5h2l2-.6,2,.3,2,.2,2-.4h2.2l2.1.9,1.8,1,.7,2-.7,1.9-1.5,1.2-2.1.8Z" transform="translate(-186.1 -874.7)"/><path d="M623.4,964.3l-1.7,1.1-1.4,1.4-1.6,1.2-1.4,1.3-1.4,1.4-1.1,1.6-.8,1.9-1.2,1.5-1,1.7-.7,1.9.8,1.9.4,2.1,1.4.9v1.6l-.6,1.6-1.7.8h-3.7l-.5.3-1.8-.2-1.7-.9h-2l-.9-1.8.9-1.3.4-1.6,1.4-1.6v-2.1l-.9-2-.3-2.1-1.6-1.4-1.1-1.8-1.3-1.5-1.5-1.5-1.4-1.5-1.2-1.4-1.6-.9.4-2.1h2l1.7-.2h1.8l.5-.2,2.2.3,2.2.3,2.2.3,1.4,1.6,1,2.3v1.9l.6,1.8,1.2,1.5.7,2,.8-2,.6-1.7.2-2,1.3-1.5v-2l-.6-1.3,2.1-.6,1.9-.5,1.9-.5,1.8.3,1.7.3Z" transform="translate(-186.1 -874.7)"/><path d="M664.7,983l-.6,1.9-1.2,1.5-1.8.6-1.5,1.3h-1.8l-2-.4h-3.9l-1.9.2-1.9-.2h-3.9l-1.9.4h-1.8L639,987l-.7-1.2v-1.5l1.3-1,.4-2.1v-2l.4-1.9-.2-2,.4-2.1v-2l-.5-2-.7-2.1-1.4-2.2.9-1.6,1.7-.7,1.8-.3h2.4l1.8.8,1.9-.5,1.6,1,1.3,1.5-1.8,2.2-.6,2-.4,1.9-.3,1.8.3,2v1.9l-.2,1.9v1.9l.8,1.8,1,1.6.9,1.7,2,.2,2-.3,1.6-1.3,1-1.8,1.4-1.3,2.1-.7,2.1.8Z" transform="translate(-186.1 -874.7)"/><path d="M689.2,973.2l1.5-.5h2l1.5-1.4,1.5-.8,1.5,1.2v2.4l.3,2.4-1.8,2-1.6-1.5-1.4-1.1-1.9-.3-1.6-.3v2.1l.6,1.9.3,2,.4,2.1,1.3,1.6,1.9.3,2-.2,1.9-1,1.1-1.8,1.2-1.9,2.3.2,2.3.3,1.2,2-.7,1.9-1,1.5-1.8.8-1.7.6-1.7.2h-7.8l-1.9.3-1.9-.6-2,.5h-1.8l-1.8-.5-1.8-.4-.6-1.7v-1.6l1.5-.9.7-2-.2-2.1.7-1.9v-2.1l-.6-2,.2-2-1-1.9v-2.1l-1.5-2.3,1.1-1.3,1.6-.7,1.8-.4H687l2-.3,1.9.3h2l1.9-.2h3.9l1.8.2,1.9.6,1.1,1.5,1.1,1.4.6,1.6-1.2,1.5-1.9.9h-2.2l-1.1-1.8-1.7-1.4-1.3-1.7-2.2-.4-1.9.8-1.3,1.6-.6,1.9-.6,1.9Z" transform="translate(-186.1 -874.7)"/><path d="M779.8,970.7l-.5,2-1,1.9-1.7,1.2-1.5,1.4-2.1.5-1.8,1.2-2.2-.2h-1.5l-1.7-.2.8,2.4.8,1.9.5,1.6.3,1.4-.7,1.6-1.7.4-1.8.7h-1.8l-.5-.4-1.8-.4h-1.8l-1.6-.5-1.2-1.4.5-1.5.8-1.3,1.1-1.7v-4l.4-2v-2.1l-.3-2-.5-1.9-.7-1.8-1.1-2.6,1-1.6,1.7-.9,1.9.4h1.8l1.8-.5,1.8.5,1.9-.5,1.8.2,2.1.3,2,.6,2,.6,2,.9,1.1,1.9.7,1.9Zm-8,0v-2l-.8-1.8-1-1.8-1.9-.6-1.8,1.1.2,2.1-.7,1.9v4l1.2,1.8,1.1.9,1.7-.3,1.4-1.5.6-1.9Z" transform="translate(-186.1 -874.7)"/><path d="M806.2,967.4l-.7,1.9-.7,1.9.3,2-.7,2v2.1l.2,2,.2,2,1.3,1.5.6,1.6.6,1.4-.9,1.7-1.8.7h-4.1l-1.8-.2h-1.9l-1.8-.5-1.1-1.7.4-1.6,1.1-1.2,1.2-1.7.2-2-.2-2-.3-2v-2l.3-2.1-1.1-1.8v-2.2l-1.6-2.3,1.3-1.3,1.6-.7,1.8-.3h1.8l.5.3,1.8.2,1.8-.4,1.7.8.9,1.5Z" transform="translate(-186.1 -874.7)"/><path d="M851,964.2l-1.2,1-1.5,1-1.3,1.3-.9,1.9-1.5,1.5-1.2,1.7-.8,1.9-1.1,1.7-1.1,1.8-1.4,1.5-.6,2.1-1.5,1.5-1,1.6-1.7,1.4h1.9l1.9-.2h1.8l1.8-.9,1.7-1,.6-1.9,1.8-1.4,2.2-.2,2,.8,1.5,1.6-1,1.8-1.1,1.7-1.8.8-1.9.6h-1.9l-1.9.3h-6.1l-2,.2-2.1-.4-2,.3-2-.6h-2.2l-2-.3-1.2-1.2,1.4-1,1.8-.6.7-1.8,1.5-1.5.7-2,1.5-1.4.9-1.9,1-1.8,1.5-1.5.6-2.1,1.6-1.4,1.2-1.7.7-1.7,1.5-.9-1.8-.5-1.9.7-1.8-.2-1.9.4-1.7,1.1-.9,1.8-1.3,1.8h-2.3l-2.1-.6-.9-1.9.2-1.9,1.4-1.5,1.7-1h2l1.8-.4h3.8l1.9-.7,1.8.4,1.9.4,1.8-.6h1.9l1.9.5h1.8v-.6l2,.3h2.1Z" transform="translate(-186.1 -874.7)"/><path d="M895.4,964.3l-1.5,1-1.6.9-1.3,1.3-.9,1.8-.9,1.9-1.5,1.5-.7,2-1.1,1.8-1.2,1.6-1.2,1.7-1.1,1.7-1.3,1.7-1.1,1.5-1.6,1.2,1.8-.4,1.8.2,1.9.4,1.9-.7,1.5-1.3.9-1.8,1.7-1.2h2l2,.4.8,1.6v2l-1.7,1-1.6,1-1.7,1.1h-3.9l-2,.2-2-.3-2-.2-2.1.2-2,.5-2-.4-2.1.5-2.1-.6-2.1-.4-1.2-1.2,1.4-1.2,1.5-.9,1.4-1.1,1.3-1.6,1.1-1.7,1-1.8.9-1.9,1.4-1.6,1-1.7,1.3-1.7.9-1.9.8-1.9,1.4-1.2,1.3-1.1-1.8-.3-1.9.3h-3.8l-1.4,1.5-1.2,1.6-1.5,1.1-2,.5-2.2-.3-1.2-2,.5-2,1.8-.9,1.6-.9,1.6-1.2,2,.3,1.9-.8,1.9.3H879l1.9-.3h1.8l1.9.6,1.9-.4,1.8-.3,1.9.4h2l2,.5Z" transform="translate(-186.1 -874.7)"/><path d="M943.5,986.4l-1.2,1.1-1.6.6h-1.8l-1.8.4-2.1-.7-2.2.6-2-.9-2-.9.5-2.1v-3.2l-1.2-1.9-2.1-.5-1.7.4-1.7-.4h-1.7l-1.9,1.1-.5,2,1,1.4,1.1,1.5v1.6l-1.5,1.1-2.1.3-2.1.3-2.1.4-1.8-1.2-1.6-1.1,1.7-1.5,1.6-1.5,1.3-1.7,1-1.8,1.4-1.7.3-2.1,1.2-1.8.5-2,.6-2,1.2-1.8,1-1.8.8-1.9,1.7-1.2,1.7-.6h2.1l1.9.6,1.5,1.4,1.5,1.7.7,1.8.5,1.9.9,1.7.9,1.8.6,1.8.6,1.9.7,1.8,1.2,1.6,1.1,1.5,1,1.6,1.3,1.4Zm-17.1-12.5-.6-1.8-1-1.6-.6-1.8-1.3.3-1.2,1.5v2l-1.1,1.6v1.8l1.5.3,2.5.2,2.1-.4Z" transform="translate(-186.1 -874.7)"/><polygon points="406.7 27 406.1 30.9 403.9 34.1 400.8 36.6 396.8 37.7 393.2 35.7 389.4 34.4 387.1 31 386.8 27 387.9 23.3 389.4 19.6 393.3 18.6 396.8 16.9 400.7 17.7 403.9 20 406.7 22.9 406.7 27"/></g></svg>