<svg id="Layer_1" data-name="Layer 1" xmlns="http://www.w3.org/2000/svg" viewBox="0 0 757.8 641.2"><defs><style>.cls-1{fill:#0c0c0b;}.cls-2{fill:#efc683;}.cls-3{fill:#f8e3c1;}.cls-4{fill:#e9aa47;}.cls-5{fill:#e2866c;}.cls-6{fill:#0e0a07;}.cls-7{fill:#c25847;}.cls-8{opacity:0.85;}</style></defs><path class="cls-1" d="M302.9,277.6l-3-6.3h-6.4l-6.1-9.4c-3.8-.4-6.6-2.2-8.5-6.4s-5.4-7.2-7.9-10.4c-4.6-.4-8.2-1-10-5.6a10.3,10.3,0,0,0-4.9-5.2c-5.7-2.5-9-7.8-14-11.1-.7-.4-.8-1.8-1.2-2.8h-3.5c-2.4-3.1-6.2-4.9-8-9.5l-5.7-2.6c0-.1-.3-.3-.3-.5,0-3.4,0-6.5-3.2-9s-4.2-4.4-6.1-6.8-2.2-2.7-2.1-4c.4-5.9-1.1-11.6-1.6-17.4a10.5,10.5,0,0,1,2-7.2c2-2.1,2.3-4.6,3.4-6.9a34.5,34.5,0,0,1,7.4-10.9c3.5-3.5,6.3-7.6,10-12.3l2.1-.2,9.2-11.4h3.1a22.4,22.4,0,0,1,.9-4.5c.6-1.1,2-1.8,2.8-2.9s.6-2.4,1.2-2.7c4.7-2,5.6-8,10.6-9.8,2.3-.8,4.9-2.5,4.7-5.9s2.9-3.2,4.8-4.5V88.9c2.7-3.6,4.8-7,7.5-9.8s5.4-5.6,8.7-6.9,6.2-6.5,10.1-8.9,3.2-7.1,7.4-9.2,6.2-4.8,9.3-7.3c.6-.6,1.4-1.1,1.7-1.8a11.3,11.3,0,0,1,7.5-7.1c.7-7.1,5.4-9.3,11.3-10.1,2.4-7,9.8-7.6,14.4-11.9s6.8-6.1,10.2-9.3h2.1L370.3,0c7.2,1.3,16.1-3.1,21.8,6.4.7.2,3,.1,3.5,1,2.1,3.9,8.3,3.3,8.7,8,4.4,2.8,8.5,5.4,12.5,8.2,1.2.8,1.8,2.4,3,4.2,4,.2,7.7,2.5,10.7,6.2v3.3c2.9,2.3,6,4.4,8.2,7.8a21,21,0,0,0,7.7,6.7c2.4,1.3,5.3,2.9,6.5,6s5.8,6.8,8.7,10.2,6.4,6.8,10.3,8.6c5.4,2.4,5.8,8.9,10.9,10.9l.3,2.9c2.1,2.2,4.5,3.5,4.6,5,.2,3.6,2.6,4.9,5,6.6s5.1,3.1,5.9,5.2,3.5,2.7,4.8,4.5,2.9,4.2,4.2,6.4a7,7,0,0,1,0,2.5c5.1,3,9,7.1,13,12.5l1.9.2c3.5,4.3,6.2,8.5,9.7,12s7,8.3,8.3,13.8c.7,3,3.5,4.9,4.1,8.2s1.5,5.4.6,6.9c-2.6,4.7-.6,9.5-1.7,14.3s-3.8,7.8-7,9.9-4,6-4.4,9.7l-5.7,2.8c-1.3,3.9-5.3,6-7.9,9.3h-3.2a60.9,60.9,0,0,1-14,13.3,32.5,32.5,0,0,0-6,5c-4.2,4.9-5.1,5.7-10.3,6.9-.4,3.5-.8,7.1-1.4,11.8,2.3,2.5.4,6-.4,9.8s-.2,7.6-.2,11.7l-3.1,2.7v7.8l-5,7.4-12.4,4.3c-3.2,5.4-2.4,11.1-2.5,16.6,0,.6.2,1.4,0,1.6-3.4,3.2-.4,6.3.3,9.9l-3.3,3.7v6.2l-6.1,6.9.7.8-13,4.6c0,2.6-.4,6.2.2,9.6s-2.1,6-1.8,9.2-1.1,6-.2,9.4,0,6.5.3,9.8-1.7,7.1,2,9.8c-4.8,5.4.3,12.4-3.6,17.8l1.5,1.6-6,17.8a18.4,18.4,0,0,1-4.1,3.5c-2,1-.2,4.5-3.9,4.3-1.7,0-3.1,3-6,3.3s-3.7,1.6-5.9,1.4h-7.4a19.2,19.2,0,0,0-13.3-5l-3.7-4.5c-1-2.8-2.3-6.6-3.7-11l1.5-2c-3.4-5,.3-12.3-6.1-16.9H366.6c-2.3-4.3-4.6-8.6-6.8-12.9,1.9-4.4,2.2-5.4-.2-10.9-1.1-2.4-1.5-3.7-.5-6.4s.6-6.8.8-10l-2.6-2.6c-4.1-.1-9,.7-13.4-1.6a11.5,11.5,0,0,1-2.7-1.4,27.2,27.2,0,0,1-7.7-14.8c-.4-2.3-.5-4.5-1.5-6.8s-2.5-6.9-1.8-10.7c.3-2-1.2-3.6-1.4-5.1-1.1-7.3,1.5-14.4,2.3-21.6-3.5-.6-4.4-4.5-6.2-7s-5.3-3.9-7.1-6.6a25.2,25.2,0,0,0-6.9-6.9C308.1,282,306.7,278.2,302.9,277.6ZM507.6,144.7v-3.3h-4.9v-2.3c-2.4-1.4-5.4-2.3-7.1-4.2s-2.5-5.4-3.7-8.2h-3.5c-1.1-4.5-4.6-7.1-8.6-9.1a16.6,16.6,0,0,1-3.4-2.5v-4.6l-4.3-.5c-1-2.1-1.6-4.4-3-6.1s-3.9-3.5-5.9-5.2L458.4,94l-.3-2.6c-3-2.1-6-3.7-8.4-5.9s-4.5-5.6-6.5-8.2h-4.6a10,10,0,0,0-.6-3c-1.3-2.2-3.7-4.1-4.1-6.4-.7-3.9-5.2-3-6.1-5.6s-4.3-5.4-6.4-8h-2.8L414,49.7v-3l-8.2-6.9c0-.9-.1-2-.2-3.3-4.5-1.4-9-2.6-12.1-6.6s-8.1-5-9.3-9.9H371.4c-1.2,5.2-6.4,6.6-9.5,10s-6.6,6.9-11.9,6.3v3.6L340.5,47a31.8,31.8,0,0,0,1.7,3c-3.6.6-4.1,5.5-8.1,4.5-1.9,2.6-4.7,4.1-6,7.4s-5.8,2.9-6.9,6.9-3.3,5.7-5.1,8.6h-3.8c-1.8,2.5-3.4,5.6-5.9,7.9s-5.9,4-9,6c-.1,1.2-.1,2.5-.2,3.2-5.6,4.7-11.7,8.1-13.5,15.5l-4.1.4c-1.1,6.7-6.7,9.2-11.8,12.1,0,1.2-.1,2.5-.2,3.9l-4.2.4c-1.6,7.1-2.3,8.7-8.1,11.2s-9.7,8-13.2,13.4h-3.2c-.2,0-.4.4-.6.5-.9,6.4-7.7,8.5-9.2,12.1s-1.5,7.9-2.1,10.9l5.1,10.4,4.4,2.1v5.3c3.5,4.1,5.3,9.1,9.4,12.7l2.3.2c2.2,2.7,3.8,4.7,5.6,6.7h4.9l2.5,3.1,4.9,1.6,1.6,1.7a26.3,26.3,0,0,0,14.5,13.1,4.1,4.1,0,0,1,1.9,1.8,6.5,6.5,0,0,0,4.1,3.3c1.5.6,2.4,3.1,3.7,4.8h3.8c-1.6,5.1,5.6,3.8,5.6,8l7.2,2.4c1.2,4.3,4.2,6.5,8.6,6.3v3.9l3.3,1.6v3.2c2.7,1.7,6.5,2.6,7.7,4.9s4.5,5.1,6.1,7.3l3.7.3c.8,2,1.5,3.6,2.2,5.2s-1,1.6-1.7,2.5l3.3.4,6.4,5.7c.9,6.8-1.4,13.6,2,19.8l-3.6,1.5c.6,1.6,1.6,3.2,1.7,4.8.3,7.7-.7,15.6,2.7,24.2l3,2.9,14.1,1.9c.5,2.7,1.1,5.4,1.6,8.2s-.1,5.2.1,7.8c0,.7,1,1.4,1.6,2a36.8,36.8,0,0,0,0,4.7c.2.7,1.1,1.3,1.6,1.9v1.6l-1.4.6,1.4,1.1v8.5l4.4,6.4,11.6,2.7,2.7-2,2.7,5.5c0,3.2.3,8.6-.1,14.1s1.9,10.5,3.5,14.4c5.2,6.2,9.7-.3,13.8,1.3,3.6-3.6,7.3-6.4,7.4-11.5,3.8-1.1,0-5,2.5-6.6,1.2-6.6.7-13.1.1-19.7-.7-8.7-.2-17.5-.1-26.2a4.2,4.2,0,0,1,.9-1.9c-4.7-6.1,2.3-11.7-.2-17.1l5-4.1,4.6-3.3h3.8l8.4-7.6c-1.9-3.6,2.2-7.3-.3-10.9,2.5-1.7.1-4.6.7-5.6s.3-4.7.9-7,1.1-3.3,1.6-5v-7.4l2.8-2.7c5.6,2.5,9.6-3.5,13.8-3.4l4.7-4.1c.7-5-1-10.8,1.2-16.6l-1.3-1.4c2.9-4.6,2.5-9.3.1-14.3,3.2-2.4,1.2-5.9,1.8-9l1.8-9.6c7.4-2.9,13.8-6.5,17.1-13.6l3.5-.2c1.9-6,6.9-7.4,11.9-8.6.2-2.6,1.6-3.6,3.8-4.6s3.1-3.1,4.5-4.7c3.3-3.9,7.1-7.5,6.6-13.2,1.3-.2,3.2.8,3.3-1.6a4,4,0,0,0,3.3-4.9v-1.7h2.8a10.4,10.4,0,0,0,.5-1.2c-.6-1.8,1.5-4.4-1.6-5.4V165c-3.3-.6-2.7-4.8-6.1-6.2s-3.3-4.8-4.9-7.5h-3.8C512.8,147.7,510.3,146.2,507.6,144.7Z"/><path class="cls-2" d="M519.1,187.4c.5,5.7-3.3,9.3-6.6,13.2-1.4,1.6-2.6,3.9-4.5,4.7s-3.6,2-3.8,4.6c-5,1.2-10,2.6-11.9,8.6l-3.5.2c-3.3,7.1-9.7,10.7-17.1,13.6l-1.8,9.6c-.6,3.1,1.4,6.6-1.8,9,2.4,5,2.8,9.7-.1,14.3l1.3,1.4c-2.2,5.8-.5,11.6-1.2,16.6l-4.7,4.1c-4.2-.1-8.2,5.9-13.8,3.4l-2.8,2.7v7.4l-2.8-1.7a41.4,41.4,0,0,0-5.2,25.9c-3.9,1.1-5.2,4.8-7.8,7.2s-6.9,2.8-7.3,8h3.4l-5,4.1c2.5,5.4-4.5,11,.2,17.1a4.2,4.2,0,0,0-.9,1.9c-.1,8.7-.6,17.5.1,26.2.6,6.6,1.1,13.1-.1,19.7-2.5,1.6,1.3,5.5-2.5,6.6h-2.5c-1.2,3-2.4,6.1-6.5,4.8-2-3.7-6.8-5.2-7.4-9.9s-1.4-9.2-2.2-14.1c-3.9-5.6-9.7-8.2-16.1-7.1l-6.5-5.7V378l-4.8-1.6v-3.3c2.2-2.1,2.2-4.5,0-6.6,1.4-2.4-2.9-4.9-.2-7.2-.5-.9-.9-1.8-1.4-2.6l1.9-8.2H368l-14.1-1.9-3-2.9c-3.4-8.6-2.4-16.5-2.7-24.2-.1-1.6-1.1-3.2-1.7-4.8l3.6-1.5c-3.4-6.2-1.1-13-2-19.8l-6.4-5.7-3.3-.4c.7-.9,1.1-1.7,1.7-2.5s-1.4-3.2-2.2-5.2l-3.7-.3c-1.6-2.2-4.4-3.9-6.1-7.3s-5-3.2-7.7-4.9v-3.2l-3.3-1.6v-3.9c-4.4.2-7.4-2-8.6-6.3l-7.2-2.4c0-4.2-7.2-2.9-5.6-8h-3.8c-1.3-1.7-2.2-4.2-3.7-4.8a6.5,6.5,0,0,1-4.1-3.3,4.1,4.1,0,0,0-1.9-1.8,26.3,26.3,0,0,1-14.5-13.1h8c1.3-2.5,2.7-4.4,3.5-6.5a46.2,46.2,0,0,0,1.3-6.5c-.8-1.6-1.5-2.8-2.1-3.9l-9.9,5c-6.8-4-5.7-11.1-5.7-18.8l-4.8,3.3v9.8c2.6,3.9,4,8.2,8.1,10.2V217l-4.9-1.6v-4l-21.4-18.9c.2-2.2-.4-4.3-3.3-5.1l-4.4-2.1L227,174.9c.6-3,1.2-6,2.1-10.9s8.3-5.7,9.2-12.1c.2-.1.4-.5.6-.5h3.2c3.5-5.4,6.9-10.6,13.2-13.4s6.5-4.1,8.1-11.2l4.2-.4c.1-1.4.2-2.7.2-3.9,5.1-2.9,10.7-5.4,11.8-12.1l4.1-.4c1.8-7.4,7.9-10.8,13.5-15.5.1-.7.1-2,.2-3.2,3.1-2,6.4-3.6,9-6s4.1-5.4,5.9-7.9h3.8c1.8-2.9,4.3-5.5,5.1-8.6s5.7-4,6.9-6.9,4.1-4.8,6-7.4c4,1,4.5-3.9,8.1-4.5a31.8,31.8,0,0,1-1.7-3l9.5-7.1V36.3c5.3.6,8.7-2.8,11.9-6.3s8.3-4.8,9.5-10h12.8c1.2,4.9,6.5,6.2,9.3,9.9s7.6,5.2,12.1,6.6c.1,1.3.2,2.4.2,3.3l8.2,6.9v3l4.6,4.6h2.8c2.1,2.6,5.2,4.4,6.4,8s5.4,1.7,6.1,5.6c.4,2.3,2.8,4.2,4.1,6.4a10,10,0,0,1,.6,3c-4.7.4-5.5-3.9-8.1-6.9-1.1,1.9-4.2-1.8-5,2h-6.1c-1.2-4.2-6.4-2.4-8.9-5.6-.9-1.2-4-.6-5.9-1.3-6.6-2.5-12.8-2.3-18.3,2.6l-2,1c-5.4,2.1-13.5,9.6-14.4,14.7-.6,2.8-2.3,4.1-3.5,6v17.4c1.5,3,2.6,5.5,4.1,7.9s3.7,5.1,5.7,7.8v12.2c-1.6,2.3-2.9,4.2-4.3,6.4l-8.4,2.1-7,5.1v14.1c-.6.4-1.4.7-1.6,1.3-1,2.3-2.1,4.5-1.8,7.3s-.4,5.2-.7,7.8h.8l-3.6,4.7c-3.4,0-7.4,1.1-8.9-.2-3.3-3.1-2.1-7.7-2.4-11.6s-2.4-8.7-1.2-12.4.7-10,1.3-15c.4-3-1.4-6.5,1.6-9.2a2.5,2.5,0,0,0,0-2.4c-3.3-4.9-.7-10.5-1.9-16l-3.7-2.4c-1,3.7-2,7-3.3,11.7-2.5-6.9-8.6-2.9-11.1-6.7-.8.7-1.2,1.4-1.6,1.4-4,.4-8,.6-12.3.9-.2.1-.5.7-.9.9-12,3.5-20.3,11.1-25.7,22.3-1.8,3.5-3.6,6.8-3.5,10.9,0,2.4,1,5.8-.2,7.2-3.8,4.3.6,7.3,1,10.8s2.4,5,3.6,7.3l7.1,3.5v5.8h3.3v1.9l12.1,8.3c1.3.5,4-.7,7,1s8.6,2.8,12.1,1.6,8.3-.7,11.5-1.2c2.6,2.5,4.6,4.5,6.5,6.5-2.1,2.3-4.5,4.5-6.5,7s-2.9,5.4-5.1,7.6-1.4,6.3-2.8,9.5.2,10.4,2.2,15.1,5.9,8.9,9,13.4l2.5,4.9H345l6.6,6.6h11.3c.7,1,1.7,2.2,2.4,3.3l14.1-3.6c.1-2.1.2-3.3.3-4.6h2.9l8.4-9.3v-7.2l3.3-2.3c0-3,.1-5.4-.1-7.9,0-.5-1-.9-1.6-1.3a39,39,0,0,0-6.3-25.8l-6.8-7.1h-4.1l-3.2-3.2c-4.8.5-9.2-2.9-14.1-1.7,3.8-4.3,2.5-10.3,4.6-14.5-1.9-7.2-2.4-13.7,1-20h9.9l11.1-7.2c.6-6.2,1.3-12.6,2-19.1h3.4l2.7,2.6c17.1,3.1,30.8-1.4,40.9-15.5V125c.5-.6,1.1-1.1,1.6-1.6v-1.7c4.7-1.3,3-5.2,3.3-8.2,0-5.1-.1-10.2.1-15.4a8.1,8.1,0,0,0-1.7-5.7c-2.5-3-3.5-6.7-4.9-10.1h6.5v-5h4.6c2,2.6,4,5.7,6.5,8.2s5.4,3.8,8.4,5.9l.3,2.6,4.8,4.7c2,1.7,4.3,3.2,5.9,5.2s2,4,3,6.1l4.3.5v4.6l-8.1-2.2c-4-5.8-8.9-10.9-12.1-17.2-2.6.1-4.7-4.3-7.8-.8,1.3,3.5,2.7,7,3.9,10.4h3.6c2.4,2.4,4.3,5.6,7.1,6.9,6.5,2.9,8,9,10.8,14.3,5.1.6,5.4,6.8,9.8,8.1l16.1,19.5a7.5,7.5,0,0,1,1.3,2.7,5.6,5.6,0,0,1,.1,2c6.1,3.4,5.6,11.1,10.2,15.7l-3.7,11.3a3.9,3.9,0,0,0-4.6,2.7l1.4.6v6.4l3.2.2Zm-49.3,31.3,1.7-1.7c-.3-1.7.5-2.9,1.7-4.3,4.2-5.2,8.1-13.2,8.1-16.9.1-6.5.1-13,.1-18.4-4.1-5.5-5.2-11.5-9.8-15.3l-13.3-10.6c-.5-4.9,3.9-5.6,5.9-8.2s4-7,5.8-10.3c-.8-2.8-1.6-5.2-2.4-7.8h-3.8c-1.4,2.3.3,5.2-2,7.5s-.9,4.6-2.1,6.4-3.9,3.4-6.3,5.3c0,4-.1,8.7.1,13.3s-1.1,7.6-4.3,10c-5.3.2-8-3-10.5-5.8-.3-5.1.9-9.9-2.8-13.9l-4.1,6.1c-4.5,1.5-9.4,1.7-12,4.2s-5.9,4.7-8,7.7-3.6,7.3-5.3,10.9.5,8.4-2.4,12.2c-2.2,1.6-2.2,3.3,0,4.9v1.6h-.8c-2.2,6.5-.2,12.1,4.4,17.9v4.8c3,3.6,6.9,5.8,10.3,8.7a63.9,63.9,0,0,0,12,7.9c4.5,2.5,9.5-3.3,14.7-.4l4.8-2.5,2.1,1.7c2.6-1.4,5.5-2.6,8-4.2a51,51,0,0,0,7.4-5.8c.8-.7.8-2.3,1.2-3.5Zm-75.5,83.8c.4,2.3,1.7,1.9,3.2.8s-.1-1.4-.2-2.5h-3c1-5.1-2.1-9.6-2-14.6h-3.9a37.2,37.2,0,0,0-3.9,20.4l4.6,6.6,3.5-3.3c0-1.9-.1-4.1.1-6.2C392.7,303.3,393.7,302.9,394.3,302.5Zm24.6-23.1c-.5,1.7-1,3.4-1.6,5.2,2.8,5.7,4,12.8,11.8,14.6,5-2.6,9.6-5.6,12.8-11.3,0-1.4-.8-4.2.2-5.6,3.2-4.4.7-7.7-1.2-11.3a10,10,0,0,1-.6-3.1c.3-2.5-1.1-5.4,1.5-7.4-2.6-2.1-1.3-5-1.5-7.6s0-5.2,0-8.8l-4.6,2.7a4.9,4.9,0,0,0-.3,1.9c1,3.9-.6,7.7-.4,11.7a11.4,11.4,0,0,1-8.9,12.1c-1.9-2.3-4.5-1-6.5-1.2l-2.3,2.3C419.6,275.1,418.8,277.4,418.9,279.4ZM381.1,39.6v3.2h5c2.7,1.7,5.2,3.1,7.3,6.1,3.9,5.5,8.9,10.9,15.8,12.8,3,.8,6.1,4.1,10.5,1.3-5-6.6-12.5-10.6-14.6-18.6h-3.7c-.4-1-.7-2-1-2.7A23.4,23.4,0,0,1,389,35.1a11.8,11.8,0,0,0-9.9-3.8h-5.7l-2.6,4.2Zm23.2,302.1-.3.3a13.4,13.4,0,0,0,1.1,1.4l.5-.5a4,4,0,0,0-1.5-1c0-3.6.7-7.5-3.3-9.9l-1.6-4.9c-.9-3.1,2.2-4,3.3-6-.1-4,.8-8.4-4-10.8-1.5,5.3-2.9,10.2-4.2,15.2l-5,3.3c-9.4-3.8-12.1-12.2-14.4-20.9,4-1.7-.3-4.9.8-7.7s.4-5.8.5-8.8v-9.1l-2.4-2.9a8,8,0,0,0-1.3,1.3c-4,5.5-2,12.3-3.9,18.3,2.5,5.7.1,11.7,1.5,17.4a51.9,51.9,0,0,1,3.1,8.6c.7,3.2,4.4,4.4,4.6,7.9v11.4c0,6.6-.8,13.3,4.6,19l10.4,3.2,7.8-3.9c.3-1,.6-1.7.8-2.4.8-3.7,4.9-7.1,1.1-11.3C403.3,346.6,400.5,343.5,404.3,341.7Zm5.2,9.5c-3.2,5.2-4.9,8.6-3.6,11.8s.4,5.6.2,8.6c-.9,9,.5,18.2-2.1,26.1l6.4,7.3,5.2-2.6c-.1-6.2.9-11.9-1.6-17.2,1.3-10-2.3-19.6-3.2-28.3C410.5,355.4,410.2,354,409.5,351.2Zm48.6-106.1c-1.8,4.3-3.4,7.1-4.3,10.2s-1,6.6-1.6,10.4c4.2,3.4-1.2,7.3.2,10.6l1.7,3.3c5.2-.9,7.7-4,9.2-8.2-.2-6.3.6-12.7-1.7-18.9a9.5,9.5,0,0,0-.5-2.3A55.1,55.1,0,0,0,458.1,245.1ZM331.2,74c2,4.6,2.8,8.4,7.1,9,.1,1.6.2,2.6.2,3.7l7,2.7c1.2-1.9,2.5-3.6,4.2-6.1V75.1c-5.1,3.3-9.5,2.9-13.7-.8C335.3,73.6,333.6,74.1,331.2,74ZM347,170.3c6.7-8.7,4.5-17.1,2.2-25.3h-4.4c1.1,7.8-3.4,14.9-1,22.4Zm111.1-36V123.5H454c-1.3,4.8-2.5,9.4-3.8,14,1.1.9,2,1.8,3.5,3.2Zm31.7,64.9c-.1,2.2-.2,4.8-.3,7.3l1.1-.8,1.7,4.5c3.7-3.7,5.8-6.6,5.4-11Zm-39.6-41.5c-.4-4.5.6-8.8-.8-13.5-4.5,4.2-4.5,4.2-3.6,13.5ZM363.7,47c1.5-3.6,3.4-6.3,2.6-9.9-.1-.3-.8-.5-1.4-.9l-5.1,2.5v5.1Zm-80.1,68.7c1.6,3,2.8,5.5,6.1,6a8.2,8.2,0,0,0,2.2-.2c.8-1.9,1.6-3.7,2.6-6.2C290.7,115.1,287.4,114.8,283.6,115.7Zm78.8,13.2c1.1,2.9,2.1,5.3,3,7.9,3-1,4.8-2.4,4.2-5.2S366.5,127.8,362.4,128.9ZM323.7,98.5c-1.4-2.8-3.4-3.9-6.5-2.6v5.7l3.7,2.5ZM255.8,177c6,.3,7.7-1.1,8.1-6.4C260.9,172.4,257.3,172.4,255.8,177ZM372.3,50.9c-3.4-2.5-5.6-1.8-6.9.5s-.2,3-.2,6Zm57.8,210.7v-6.9l-4.5.3C425.1,258.5,425.9,260.7,430.1,261.6ZM503,168h-6.9c.1,1.8.2,3.2.3,4.6C500,173.1,502.1,172.1,503,168ZM304.8,220.5c1.8,4.1,3.6,5.7,7.4,4.2-.2-1.5-.3-3-.4-4.2ZM348.3,63.4c4.4.7,4.4.7,6.5-3.3C350.4,59.4,350.4,59.4,348.3,63.4ZM248,168.5c-4.4-.7-4.4-.7-6.5,3.3C245.9,172.5,245.9,172.5,248,168.5Zm155,98.4c-5.7-.4-5.7-.4-6.8,3.9C399.6,272.1,401.5,270.7,403,266.9Zm-50.1-140c.7,3.1,1.6,4.9,4.9,4.6v-4.9Zm66.3,192.6,2.2,4.3,2.4-2.4,1.7-1.7c-1.2-1.1-1.7-1.7-2.2-2.2Zm74.1-168.2a6.1,6.1,0,0,1-.7-1.4h-4.7c.1,1.8.2,3.2.4,6Zm-82.7,5.2h-4.9l.3,4.9C409.1,160.8,410.9,159.8,410.6,156.5Zm-18,15.7h5.2c-.3-1.2-.4-1.9-.6-2.9l-4.6.4Zm-88.4,61.4c.1,2-1.9,4.9,2.7,4.7v-4.7Zm106.6,5.3c1.8-1.4,5.1,1.4,4.7-3.5h-4.7ZM385,187.3l-1.4-3.4c-2,1.2-2,1.2-3.6,3.4Zm16,197.4c-.3-1.9-.5-3.4-.8-5.9l-3.3,5.3ZM304.1,112c-.3-2-.5-3.4-.9-5.9-1.4,2.3-2.2,3.5-3.2,5.3Z"/><path class="cls-3" d="M519.1,187.4l-11.5,8.3-3.2-.2v-6.4h3.2v-3.3l3.7-11.3c-4.6-4.6-4.1-12.3-10.2-15.7a5.6,5.6,0,0,0-.1-2,7.5,7.5,0,0,0-1.3-2.7l-16.1-19.5c-4.4-1.3-4.7-7.5-9.8-8.1-2.8-5.3-4.3-11.4-10.8-14.3-2.8-1.3-4.7-4.5-7.1-6.9h-3.6c-1.2-3.4-2.6-6.9-3.9-10.4,3.1-3.5,5.2.9,7.8.8,3.2,6.3,8.1,11.4,12.1,17.2l8.1,2.2a16.6,16.6,0,0,0,3.4,2.5c4,2,7.5,4.6,8.6,9.1h3.5c1.2,2.8,1.9,6,3.7,8.2s4.7,2.8,7.1,4.2v2.3a4,4,0,0,0,4.9,3.3c.1,5.5.4,5.9,5,6.6-.9,3.1,2.2,4,3.4,6.2v8.8l3.6,2.2c-.9,1.8-1.5,2.9-2.1,3.9C520.4,177.2,518.7,182.5,519.1,187.4Z"/><path class="cls-4" d="M372.9,376.4l4.8,1.6v5.8l6.5,5.7c6.4-1.1,12.2,1.5,16.1,7.1.8,4.9,1.6,9.5,2.2,14.1s5.4,6.2,7.4,9.9c4.1,1.3,5.3-1.8,6.5-4.8h2.5c-.1,5.1-3.8,7.9-7.4,11.5-4.1-1.6-8.6,4.9-13.8-1.3-1.6-3.9-3.9-8.7-3.5-14.4s.1-10.9.1-14.1l-2.7-5.5-2.7,2-11.6-2.7-4.4-6.4Z"/><path class="cls-4" d="M427.1,340.2h-3.4c.4-5.2,4.9-5.6,7.3-8s3.9-6.1,7.8-7.2a41.4,41.4,0,0,1,5.2-25.9l2.8,1.7c-.5,1.7-1.1,3.3-1.6,5s.6,4.6-.9,7,1.8,3.9-.7,5.6c2.5,3.6-1.6,7.3.3,10.9l-8.4,7.6h-3.8Z"/><path class="cls-2" d="M519.1,187.4c-.4-4.9,1.3-10.2-1.6-15,.6-1,1.2-2.1,2.1-3.9l-3.6-2.2v-8.8c-1.2-2.2-4.3-3.1-3.4-6.2h3.8c1.6,2.7,2.7,6.5,4.9,7.5s2.8,5.6,6.1,6.2v7.6c-.6.7-1.5,1.3-1.6,2a23.6,23.6,0,0,0-.1,4.6v1.7h-3.3v4.9C522.3,188.2,520.4,187.2,519.1,187.4Z"/><path class="cls-3" d="M236.5,187.4c2.9.8,3.5,2.9,3.3,5.1l21.4,18.9v4l-2.5-3.1h-4.9c-1.8-2-3.4-4-5.6-6.7l-2.3-.2c-4.1-3.6-5.9-8.6-9.4-12.7Z"/><path class="cls-3" d="M368,348.5h5.2l-1.9,8.2h-1.7C369.1,353.9,368.5,351.2,368,348.5Z"/><path class="cls-5" d="M369.6,356.7h1.7c.5.8.9,1.7,1.4,2.6-2.7,2.3,1.6,4.8.2,7.2h-1.6c-.6-.6-1.6-1.3-1.6-2C369.5,361.9,369.6,359.3,369.6,356.7Z"/><path class="cls-4" d="M371.3,366.5h1.6c2.2,2.1,2.2,4.5,0,6.6-.5-.6-1.4-1.2-1.6-1.9A36.8,36.8,0,0,1,371.3,366.5Z"/><path class="cls-2" d="M512.6,151.3c-4.6-.7-4.9-1.1-5-6.6C510.3,146.2,512.8,147.7,512.6,151.3Z"/><path class="cls-3" d="M525.7,179.2a23.6,23.6,0,0,1,.1-4.6c.1-.7,1-1.3,1.6-2,3.1,1,1,3.6,1.6,5.4a10.4,10.4,0,0,1-.5,1.2Z"/><path class="cls-2" d="M507.6,144.7a4,4,0,0,1-4.9-3.3h4.9Z"/><path class="cls-3" d="M522.4,185.8v-4.9h3.3A4,4,0,0,1,522.4,185.8Z"/><path class="cls-2" d="M267.7,218.7l-1.6-1.7Z"/><path class="cls-4" d="M372.9,374.7v1.7l-1.4-1.1Z"/><path class="cls-6" d="M432.1,82.3c1.4,3.4,2.4,7.1,4.9,10.1a8.1,8.1,0,0,1,1.7,5.7c-.2,5.2-.1,10.3-.1,15.4-3.1,1.9-3.4,5-3.3,8.2v1.7c-.5.5-1.1,1-1.6,1.6-3.9,1.2-6.4,4.4-9.6,6.5s-7.6,1.7-9.3,4.9a49.8,49.8,0,0,0-6.7-1.5c-2.7-.2-5.8.7-8.1-.3-5.4-2.2-11.4-1.8-16.8-5.2-.9,8.1-1.7,15.4-2.6,23.1-1.6,4.6-5.2,7.5-10.3,8.8-1.8-.7-3.7-1.1-5-2.1a29.7,29.7,0,0,1-3.3-4.4c-.9,2.9-1.8,5.5-2.7,8h-2.8V148.7l7-5.1,8.4-2.1c1.4-2.2,2.7-4.1,4.3-6.4V122.9c-2-2.7-4.1-5.2-5.7-7.8s-2.6-4.9-4.1-7.9V89.8c1.2-1.9,2.9-3.2,3.5-6,.9-5.1,9-12.6,14.4-14.7l2-1c5.5-4.9,11.7-5.1,18.3-2.6,1.9.7,5,.1,5.9,1.3,2.5,3.2,7.7,1.4,8.9,5.6h6.1c-.1,2.8-.4,5.7,3.3,6.6Zm-14.8-1.7c-1.9-1.6-3.6-4-5.8-4.7-3.8-1.2-7.4-3.9-11.7-3.4s-7.5,1.2-10.6,4-6.7,5.2-9.1,7.1c-2.3,11.8-7,22.3-1.3,33.2h5c1.3,7.6,9.4,6,13.4,9.8,3.7,0,7.3.3,10.8,0s6.6-1.3,10.8-2.1l2.1-2.3c8.2-7.7,10.5-17.7,9.2-28.1-.7-5.5-4.8-10.3-11.2-11.8Z"/><path class="cls-6" d="M287.5,187.4v-2.5l-7.1-3.5c-1.2-2.3-3.2-4.7-3.6-7.3s-4.8-6.5-1-10.8c1.2-1.4.2-4.8.2-7.2-.1-4.1,1.7-7.4,3.5-10.9,5.4-11.2,13.7-18.8,25.7-22.3.4-.2.7-.8.9-.9,4.3-.3,8.3-.5,12.3-.9.4,0,.8-.7,1.6-1.4,2.5,3.8,8.6-.2,11.1,6.7,1.3-4.7,2.3-8,3.3-11.7l3.7,2.4c1.2,5.5-1.4,11.1,1.9,16a2.5,2.5,0,0,1,0,2.4c-3,2.7-1.2,6.2-1.6,9.2-.6,5,.3,9.9-1.3,15s.9,8.2,1.2,12.4-.9,8.5,2.4,11.6c1.5,1.3,5.5.2,8.9.2l3.6-4.7,3.1,2.1v12.1c-2.6,2.5-4.9,4.8-6.5,6.5-4.6,1.7-7.9.2-10.4-1.1l-4.6-13-14.9,9.6c-8.4,1-15.5-.2-22-4.7h-7.1v-3.3Zm42.7-44.3v-3.3c2.7-.3,1.2-2.5,1.7-4-4-4.2-8.1-8.3-14.7-4.3a3.6,3.6,0,0,1-3-.4c-2-1.7-3.7-1.6-5.7-.1s-4.5-.2-6.7,1.7-7.1,4.9-8.3,8.7-5.4,6.2-6.1,10.5c-.4,1.9-1.9,3.6-3.2,6.1v10.2c3.1,6.4,9.7,8.9,13.6,14,5,.6,10,1,13.5,5.2,8.2,1,14-4.1,20.9-7.1-1.3-6.2,1.3-12.3-2.1-17.9.6-.8,1.6-1.6,1.6-2.5.1-5.4,0-10.8-.2-16.3C331.5,143.4,330.7,143.3,330.2,143.1Z"/><path class="cls-6" d="M404.1,189.1c2.9-3.8,1.2-8.3,2.4-12.2s3-7.6,5.3-10.9,5.4-5.1,8-7.7,7.5-2.7,12-4.2l4.1-6.1c3.7,4,2.5,8.8,2.8,13.9,2.5,2.8,5.2,6,10.5,5.8,3.2-2.4,4.4-5.8,4.3-10s-.1-9.3-.1-13.3c2.4-1.9,4.8-3.3,6.3-5.3s.7-5,2.1-6.4.6-5.2,2-7.5h3.8c.8,2.6,1.6,5,2.4,7.8-1.8,3.3-3.8,6.8-5.8,10.3s-6.4,3.3-5.9,8.2l13.3,10.6c4.6,3.8,5.7,9.8,9.8,15.3,0,5.4,0,11.9-.1,18.4,0,3.7-3.9,11.7-8.1,16.9-1.2,1.4-2,2.6-1.7,4.3l-1.7,1.7-1.6,1.6c-1.2.4-2.7.4-3.5,1.2a21.9,21.9,0,0,1-7.4,3.9,56.3,56.3,0,0,1-24.8,2.8c-2.6-3.8-7-3.7-11-4.8l-7.7-6.3c-.4-1.3-1.2-3.5-2.4-7.3l-4-3.3c.1-4.3-.4-7.9-3.3-10.9v-6.5Zm60.8-23a10.2,10.2,0,0,0-5.3-5.3c-1.8,1.6-3.5,2.7-2.9,5.3v1.6c-3,3.8-5.6,8-11.3,8.2-6.7-2.5-11.2-7-12.1-14.6h-3.4l-12.7,12.3v4.1l-3.2,2.1a55.2,55.2,0,0,1-.1,7.2,56.5,56.5,0,0,1-1.5,6.5c3.4,9.3,7,18.2,16.3,23.6h5.4l2.1,3.8,11.7-1.9a16.7,16.7,0,0,1,2.3,1.8c4.9-3.2,9.7-6.1,14.3-9.3,2.2-1.4,2.9-4.4,5.3-5.8,1.6-8,6.6-15.4,4.6-24.4-2.9-1.8-1.5-6.4-4.6-8.7-.2-1.2.9-3.1-1.6-3.2l-1.6-1.7Z"/><path class="cls-4" d="M290.8,190.7h7.1c6.5,4.5,13.6,5.7,22,4.7l14.9-9.6,4.6,13c2.5,1.3,5.8,2.8,10.4,1.1,1.6-1.7,3.9-4,6.5-6.5V181.3l-3.1-2.1h-.8c.3-2.6.9-5.2.7-7.8s.8-5,1.8-7.3c.2-.6,1-.9,1.6-1.3h2.8c.9-2.5,1.8-5.1,2.7-8a29.7,29.7,0,0,0,3.3,4.4c1.3,1,3.2,1.4,5,2.1,5.1-1.3,8.7-4.2,10.3-8.8.9-7.7,1.7-15,2.6-23.1,5.4,3.4,11.4,3,16.8,5.2,2.3,1,5.4.1,8.1.3a49.8,49.8,0,0,1,6.7,1.5c1.7-3.2,6.2-2.8,9.3-4.9s5.7-5.3,9.6-6.5v3.5c-10.1,14.1-23.8,18.6-40.9,15.5l-2.7-2.6h-3.4c-.7,6.5-1.4,12.9-2,19.1l-11.1,7.2h-9.9c-3.4,6.3-2.9,12.8-1,20-2.1,4.2-.8,10.2-4.6,14.5-2,.1-3.8,0-5.8,1.5s-5.2,1.6-8.7,2.5l-3.6,2.6c-1.9-2-3.9-4-6.5-6.5-3.2.5-7.2-.2-11.5,1.2s-8.7.3-12.1-1.6-5.7-.5-7-1l-12.1-8.3Z"/><path class="cls-6" d="M340,208.8l3.6-2.6c3.5-.9,6.6-1,8.7-2.5s3.8-1.4,5.8-1.5c4.9-1.2,9.3,2.2,14.1,1.7l3.2,3.2h4.1l6.8,7.1a39,39,0,0,1,6.3,25.8c.2,2.8-1.8,4.7-2.8,7-3.9,8.9-3.8,9-10.2,13.4l-8.3,5.9a8.2,8.2,0,0,0-3.1.1,23.7,23.7,0,0,1-6.6,1.7c-2.3.2-4.5-2.8-6.8-.2-2.9-2.4-6.5-1.5-9.8-1.6l-6.7-4.9c-.4-.2-1,0-1.5,0-3.1-4.5-7-8.6-9-13.4s-4.3-10.4-2.2-15.1.1-6.8,2.8-9.5,3.2-5.3,5.1-7.6S337.9,211.1,340,208.8Zm37.8,9.9c-2.9-2.4-5.3-5.9-9.8-5-.7-.5-1.4-1.5-2.1-1.5-4.6-.2-9.2-.1-11.8-.1l-15.4,7.1c-1.6,4.4-3.3,8.7-4.7,13-.4,1.2-.9,3.2-.3,3.7,2.7,2.5.7,5.7,1.9,9.4,4,3.9,8.6,8.5,12,12,5.2,1,8.7,2.3,12.3,2.3s7.1-1.3,10.7-2.1,6.5-3.1,9-5.5,4.3-6.3,6.4-9.7v-13c-3-2.3-2.1-7.6-6.5-9Z"/><path class="cls-6" d="M399.2,327.1l1.6,4.9c.6,4.5-.5,8.8-2.1,12.9l-5.1,5h-8.4l-5.7-9.1c0-1.6.1-3.7-.1-5.9,0-.4-1-.8-1.6-1.2v-.8c-.2-3.5-3.9-4.7-4.6-7.9a51.9,51.9,0,0,0-3.1-8.6c-1.4-5.7,1-11.7-1.5-17.4,1.9-6-.1-12.8,3.9-18.3a8,8,0,0,1,1.3-1.3l2.4,2.9v9.1c-.1,3,.5,6.2-.5,8.8s3.2,6-.8,7.7c2.3,8.7,5,17.1,14.4,20.9l5-3.3Z"/><path class="cls-4" d="M404.1,195.6c2.9,3,3.4,6.6,3.3,10.9l4,3.3c1.2,3.8,2,6,2.4,7.3l7.7,6.3c4,1.1,8.4,1,11,4.8a56.3,56.3,0,0,0,24.8-2.8,21.9,21.9,0,0,0,7.4-3.9c.8-.8,2.3-.8,3.5-1.2-.4,1.2-.4,2.8-1.2,3.5a51,51,0,0,1-7.4,5.8c-2.5,1.6-5.4,2.8-8,4.2l-2.1-1.7-4.8,2.5c-5.2-2.9-10.2,2.9-14.7.4a63.9,63.9,0,0,1-12-7.9c-3.4-2.9-7.3-5.1-10.3-8.7v-4.8c-4.6-5.8-6.6-11.4-4.4-17.9Z"/><path class="cls-4" d="M377.8,333.7c.6.4,1.6.8,1.6,1.2.2,2.2.1,4.3.1,5.9l5.7,9.1h8.4l5.1-5c1.6-4.1,2.7-8.4,2.1-12.9,4,2.4,3.3,6.3,3.3,9.9-3.6,1.6-.8,4.7-1.6,7,3.8,4.2-.3,7.6-1.1,11.3-.2.7-.5,1.4-.8,2.4l-7.8,3.9-10.4-3.2c-5.4-5.7-4.6-12.4-4.6-19Z"/><path class="cls-3" d="M381.1,39.6l-10.3-4.1,2.6-4.2h5.7a11.8,11.8,0,0,1,9.9,3.8,23.4,23.4,0,0,0,11.4,6.6c.3.7.6,1.7,1,2.7h3.7c2.1,8,9.6,12,14.6,18.6-4.4,2.8-7.5-.5-10.5-1.3-6.9-1.9-11.9-7.3-15.8-12.8-2.1-3-4.6-4.4-7.3-6.1C385.4,40.2,383.7,39.3,381.1,39.6Z"/><path class="cls-3" d="M409.5,351.2c.7,2.8,1,4.2,1.3,5.7.9,8.7,4.5,18.3,3.2,28.3,2.5,5.3,1.5,11,1.6,17.2l-5.2,2.6-6.4-7.3c2.6-7.9,1.2-17.1,2.1-26.1.2-3,1.1-5.4-.2-8.6S406.3,356.4,409.5,351.2Z"/><path class="cls-4" d="M345,266.3c3.3.1,6.9-.8,9.8,1.6,2.3-2.6,4.5.4,6.8.2a23.7,23.7,0,0,0,6.6-1.7,8.2,8.2,0,0,1,3.1-.1l8.3-5.9c6.4-4.4,6.3-4.5,10.2-13.4,1-2.3,3-4.2,2.8-7,.6.4,1.6.8,1.6,1.3.2,2.5.1,4.9.1,7.9l-3.3,2.3v7.2l-8.4,9.3h-2.9c-.1,1.3-.2,2.5-.3,4.6l-14.1,3.6c-.7-1.1-1.7-2.3-2.4-3.3H351.6Z"/><path class="cls-6" d="M418.9,279.4c-.1-2,.7-4.3-1.6-5.8l2.3-2.3c2,.2,4.6-1.1,6.5,1.2a11.4,11.4,0,0,0,8.9-12.1c-.2-4,1.4-7.8.4-11.7a4.9,4.9,0,0,1,.3-1.9l4.6-2.7c0,3.6-.2,6.2,0,8.8s-1.1,5.5,1.5,7.6c-2.6,2-1.2,4.9-1.5,7.4-3,1.6-2.4,5.5-5.1,7.5v5.4l-6.9,7.3-6.6-3.2C419.7,282.6,422,279.8,418.9,279.4Z"/><path class="cls-4" d="M418.9,279.4c3.1.4.8,3.2,2.8,5.5l6.6,3.2,6.9-7.3v-5.4c2.7-2,2.1-5.9,5.1-7.5a10,10,0,0,0,.6,3.1c1.9,3.6,4.4,6.9,1.2,11.3-1,1.4-.2,4.2-.2,5.6-3.2,5.7-7.8,8.7-12.8,11.3-7.8-1.8-9-8.9-11.8-14.6C417.9,282.8,418.4,281.1,418.9,279.4Z"/><path class="cls-1" d="M267.7,218.7l-1.6-1.7v-5.7c-4.1-2-5.5-6.3-8.1-10.2v-9.8l4.8-3.3c0,7.7-1.1,14.8,5.7,18.8l9.9-5c.6,1.1,1.3,2.3,2.1,3.9a46.2,46.2,0,0,1-1.3,6.5c-.8,2.1-2.2,4-3.5,6.5Z"/><path class="cls-3" d="M458.1,245.1a55.1,55.1,0,0,1,3,5.1,9.5,9.5,0,0,1,.5,2.3c2.3,6.2,1.5,12.6,1.7,18.9-1.5,4.2-4,7.3-9.2,8.2l-1.7-3.3c-1.4-3.3,4-7.2-.2-10.6.6-3.8.8-7.2,1.6-10.4S456.3,249.4,458.1,245.1Z"/><path class="cls-3" d="M394.3,302.5c-.6.4-1.6.8-1.6,1.2-.2,2.1-.1,4.3-.1,6.2l-3.5,3.3-4.6-6.6a37.2,37.2,0,0,1,3.9-20.4h3.9c-.1,5,3,9.5,2,14.6Z"/><path class="cls-1" d="M331.2,74c2.4.1,4.1-.4,4.8.3,4.2,3.7,8.6,4.1,13.7.8v8.2c-1.7,2.5-3,4.2-4.2,6.1l-7-2.7c0-1.1-.1-2.1-.2-3.7C334,82.4,333.2,78.6,331.2,74Z"/><path class="cls-3" d="M347,170.3l-3.2-2.9c-2.4-7.5,2.1-14.6,1-22.4h4.4C351.5,153.2,353.7,161.6,347,170.3Z"/><path class="cls-3" d="M458.1,134.3l-4.4,6.4c-1.5-1.4-2.4-2.3-3.5-3.2,1.3-4.6,2.5-9.2,3.8-14h4.1Z"/><path class="cls-3" d="M428.8,79c-3.7-.9-3.4-3.8-3.3-6.6s3.9-.1,5-2c2.6,3,3.4,7.3,8.1,6.9v5h-6.5V79Z"/><path class="cls-4" d="M399.2,327.1l-4.9-1.6c1.3-5,2.7-9.9,4.2-15.2,4.8,2.4,3.9,6.8,4,10.8C401.4,323.1,398.3,324,399.2,327.1Z"/><path class="cls-3" d="M489.8,199.2h7.9c.4,4.4-1.7,7.3-5.4,11l-1.7-4.5-1.1.8C489.6,204,489.7,201.4,489.8,199.2Z"/><path class="cls-3" d="M450.2,157.7h-4.4c-.9-9.3-.9-9.3,3.6-13.5C450.8,148.9,449.8,153.2,450.2,157.7Z"/><path class="cls-3" d="M363.7,47l-3.9-3.2V38.7l5.1-2.5c.6.4,1.3.6,1.4.9C367.1,40.7,365.2,43.4,363.7,47Z"/><path class="cls-4" d="M283.6,115.7c3.8-.9,7.1-.6,10.9-.4-1,2.5-1.8,4.3-2.6,6.2a8.2,8.2,0,0,1-2.2.2C286.4,121.2,285.2,118.7,283.6,115.7Z"/><path class="cls-3" d="M362.4,128.9c4.1-1.1,6.5-.6,7.2,2.7s-1.2,4.2-4.2,5.2C364.5,134.2,363.5,131.8,362.4,128.9Z"/><path class="cls-1" d="M323.7,98.5l-2.8,5.6-3.7-2.5V95.9C320.3,94.6,322.3,95.7,323.7,98.5Z"/><path class="cls-1" d="M255.8,177c1.5-4.6,5.1-4.6,8.1-6.4C263.5,175.9,261.8,177.3,255.8,177Z"/><path class="cls-1" d="M372.3,50.9l-7.1,6.5c0-3-.5-4.8.2-6S368.9,48.4,372.3,50.9Z"/><path class="cls-3" d="M430.1,261.6c-4.2-.9-5-3.1-4.5-6.6l4.5-.3Z"/><path class="cls-4" d="M503,168c-.9,4.1-3,5.1-6.6,4.6-.1-1.4-.2-2.8-.3-4.6Z"/><path class="cls-1" d="M304.8,220.5h7c.1,1.2.2,2.7.4,4.2C308.4,226.2,306.6,224.6,304.8,220.5Z"/><path class="cls-4" d="M348.3,63.4c2.1-4,2.1-4,6.5-3.3C352.7,64.1,352.7,64.1,348.3,63.4Z"/><path class="cls-4" d="M248,168.5c-2.1,4-2.1,4-6.5,3.3C243.6,167.8,243.6,167.8,248,168.5Z"/><path class="cls-4" d="M403,266.9c-1.5,3.8-3.4,5.2-6.8,3.9C397.3,266.5,397.3,266.5,403,266.9Z"/><path class="cls-4" d="M352.9,126.9l4.9-.3v4.9C354.5,131.8,353.6,130,352.9,126.9Z"/><path class="cls-6" d="M419.2,319.5l4.1-2c.5.5,1,1.1,2.2,2.2l-1.7,1.7-2.4,2.4Z"/><path class="cls-4" d="M336.8,261.4c.5,0,1.1-.2,1.5,0l6.7,4.9h-5.7Z"/><path class="cls-1" d="M493.3,151.3l-5,4.6c-.2-2.8-.3-4.2-.4-6h4.7A6.1,6.1,0,0,0,493.3,151.3Z"/><path class="cls-3" d="M410.6,156.5c.3,3.3-1.5,4.3-4.6,4.9l-.3-4.9Z"/><path class="cls-4" d="M435.3,121.7c-.1-3.2.2-6.3,3.3-8.2C438.3,116.5,440,120.4,435.3,121.7Z"/><path class="cls-4" d="M392.6,172.2v-2.5l4.6-.4c.2,1,.3,1.7.6,2.9Z"/><path class="cls-3" d="M304.2,233.6h2.7v4.7C302.3,238.5,304.3,235.6,304.2,233.6Z"/><path class="cls-1" d="M410.8,238.9v-3.5h4.7C415.9,240.3,412.6,237.5,410.8,238.9Z"/><path class="cls-1" d="M385,187.3h-5c1.6-2.2,1.6-2.2,3.6-3.4Z"/><path class="cls-6" d="M401,384.7l-4.1-.6,3.3-5.3C400.5,381.3,400.7,382.8,401,384.7Z"/><path class="cls-3" d="M304.1,112l-4.1-.6c1-1.8,1.8-3,3.2-5.3C303.6,108.6,303.8,110,304.1,112Z"/><path class="cls-4" d="M381.1,39.6c2.6-.3,4.3.6,5,3.2h-5Z"/><path class="cls-1" d="M507.6,185.8v3.3h-3.2l-1.4-.6A3.9,3.9,0,0,1,507.6,185.8Z"/><path class="cls-4" d="M287.5,187.4h3.3v3.3h-3.3Z"/><path class="cls-1" d="M394.3,302.5v-1.7h3c.1,1.1.2,1.9.2,2.5S394.7,304.8,394.3,302.5Z"/><path class="cls-4" d="M404.1,189.1V194C401.9,192.4,401.9,190.7,404.1,189.1Z"/><path class="cls-4" d="M468.2,220.3l1.6-1.6Z"/><path class="cls-4" d="M433.7,125c.5-.6,1.1-1.1,1.6-1.6S434.2,124.4,433.7,125Z"/><path class="cls-4" d="M404.3,341.7l1.3,1.2c-.2.1-.3.3-.5.5A13.4,13.4,0,0,1,404,342Z"/><path class="cls-4" d="M469.8,218.7l1.7-1.7Z"/><path class="cls-7" d="M418.9,82.3c6.4,1.5,10.5,6.3,11.2,11.8,1.3,10.4-1,20.4-9.2,28.1l-2.1,2.3c-4.2.8-7.4,1.8-10.8,2.1s-7.1,0-10.8,0c-4-3.8-12.1-2.2-13.4-9.8h-5c-5.7-10.9-1-21.4,1.3-33.2,2.4-1.9,6-4.2,9.1-7.1s6.8-3.6,10.6-4,7.9,2.2,11.7,3.4c2.2.7,3.9,3.1,5.8,4.7-3.3.3-6.8-.6-11.1,1.2,5.9,4.7,11.2,8.7,13.2,15h6c.5-4.3-1.5-7.2-4.2-9.8S418.3,84.5,418.9,82.3Zm-13.4,23.1c2,3.8,4.9,3.7,8.1,2.8v-6.1C410.4,102,407.3,101.2,405.5,105.4Zm-6.4,3.4-5.9-.3,1.2,1.5-3.7,1c1,3.6,3.1,4.7,5.6,4S399.6,112,399.1,108.8Zm.5-32.2v6.5l4.9-3.4Zm-5.1,17.9a12.3,12.3,0,0,1-.2-1.9h-5.2c.3,1.1.4,1.9.7,3ZM405.1,87,404,88c.2.8.3,1.5.5,2.6l4.1-.8Zm-4.3,11.3h3.5c-.2-1.2-.4-1.9-.6-3l-2.9.6Z"/><path class="cls-2" d="M428.8,79h3.3v3.3Z"/><path class="cls-7" d="M417.3,80.6l1.6,1.7Z"/><path class="cls-7" d="M330.2,143.1c.5.2,1.3.3,1.3.5.2,5.5.3,10.9.2,16.3,0,.9-1,1.7-1.6,2.5,3.4,5.6.8,11.7,2.1,17.9-6.9,3-12.7,8.1-20.9,7.1-3.5-4.2-8.5-4.6-13.5-5.2-3.9-5.1-10.5-7.6-13.6-14V158c1.3-2.5,2.8-4.2,3.2-6.1.7-4.3,4.9-6.3,6.1-10.5s4.8-5.8,8.3-8.7,4.8-.1,6.7-1.7,3.7-1.6,5.7.1a3.6,3.6,0,0,0,3,.4c6.6-4,10.7.1,14.7,4.3-.5,1.5,1,3.7-1.7,4l-3.7-2.8-9.7-2.2c-2.9,2.9-4,6.5-1.8,8.7l3.1,1.4c.5-1.6.9-2.5,1.4-4ZM316.8,161v-4.9l-4.4.4V161Zm-19.2-3.1v4.9l4.9-.3C301.9,159.4,300.9,157.7,297.6,157.9ZM312,174.7l6.4-1.3-5.9-5.4C312.3,170.8,312.2,172.3,312,174.7Zm9.7-28.2c.3,1.4.4,2.2.7,3.2l4.7-.4-.5-2.8Zm-1.2,21.2c3.6.1,3.7-1.2,2.4-3.4l-2.4.5Zm-10.5-23v-3.5l-2.9.6c.2,1.2.4,2.1.6,2.9Z"/><path class="cls-5" d="M330.2,143.1l-10.7-2.2c-.5,1.5-.9,2.4-1.4,4l-3.1-1.4c-2.2-2.2-1.1-5.8,1.8-8.7l9.7,2.2,3.7,2.8Z"/><path class="cls-7" d="M469.8,172.6c3.1,2.3,1.7,6.9,4.6,8.7,2,9-3,16.4-4.6,24.4-2.4,1.4-3.1,4.4-5.3,5.8-4.6,3.2-9.4,6.1-14.3,9.3a16.7,16.7,0,0,0-2.3-1.8l-11.7,1.9-2.1-3.8h-5.4c-9.3-5.4-12.9-14.3-16.3-23.6a56.5,56.5,0,0,0,1.5-6.5,55.2,55.2,0,0,0,.1-7.2l3.2-2.1v-4.1l12.7-12.3h3.4c.9,7.6,5.4,12.1,12.1,14.6,5.7-.2,8.3-4.4,11.3-8.2.4,1.2.5,2.7,1.2,3.6,2.2,2.4,4.6,4.7,6.9,7,.3,5.9.3,5.9,5,7.4Zm-6.5,18c-.1-2.3-.3-4.4-.5-6.8-4.2,1.2-5.1,3.4-4.1,6.8Zm-29.6,5.5h-4.6v4.6l4.6-.5Zm14.6-6.4c-3.8-2.8-5.3-3.1-6.7-.6l4,3.9Zm4.7-13c-2.6,1.6-5,2.1-4.3,5.5h4.8C453.3,180.4,453.2,179,453,176.7Zm-6.2,23.5H452c-.3-1.2-.4-2-.6-3l-4.6.4ZM437,176.4h-5.1a24.7,24.7,0,0,0,.6,2.9l4.5-.4Zm16.8,27.5v3.5l3-.7-.6-2.8Z"/><path class="cls-5" d="M469.8,172.6v13.1c-4.7-1.5-4.7-1.5-5-7.4-2.3-2.3-4.7-4.6-6.9-7-.7-.9-.8-2.4-1.2-3.6v-1.6h8.2l1.7,1.6,1.6,1.7C468.5,170.6,467.4,172.5,469.8,172.6Z"/><path class="cls-7" d="M464.9,166.1h-8.2c-.6-2.6,1.1-3.7,2.9-5.3A10.2,10.2,0,0,1,464.9,166.1Z"/><path class="cls-7" d="M469.8,172.6c-2.4-.1-1.3-2-1.6-3.2C470.7,169.5,469.6,171.4,469.8,172.6Z"/><path class="cls-7" d="M466.6,167.7l-1.7-1.6Z"/><path class="cls-7" d="M379.5,220.3c4.4,1.4,3.5,6.7,6.5,9v13c-2.1,3.4-3.8,7.1-6.4,9.7s-6.1,3.8-9,5.5-7.2,2.1-10.7,2.1-7.1-1.3-12.3-2.3c-3.4-3.5-8-8.1-12-12-1.2-3.7.8-6.9-1.9-9.4-.6-.5-.1-2.5.3-3.7,1.4-4.3,3.1-8.6,4.7-13l15.4-7.1c2.6,0,7.2-.1,11.8.1.7,0,1.4,1,2.1,1.5l1.8,3.2H363c.1,2,.2,3.5.3,5h4.3c.9,3.1,1.8,6.2,2.9,10.4l4,3.4-2.1,3c1.1,1.4,2.1,2.6,4,5.2,1.1-2.8,1.6-4.1,2.2-5.4s2.1-6.7-.2-10.2-3.8-5.8-6.4-9.6h5.8Zm-32.8,8.2h4.1l2.9-3.5c-2.1-2.5-3.8-4.2-7-2.4Zm6.3,12c-5.1-.3-5.1-.3-6.1,4.1H353Zm7-15a9.1,9.1,0,0,1-.7,1.4l5,4.5v-5.9Zm-10.7,8.7,5.1,3.3v-6.4Zm15.7,6v4.6h2.7v-4.6Z"/><path class="cls-5" d="M377.8,218.7H372c2.6,3.8,4.6,6.7,6.4,9.6s.5,7.4.2,10.2-1.1,2.6-2.2,5.4c-1.9-2.6-2.9-3.8-4-5.2l2.1-3-4-3.4c-1.1-4.2-2-7.3-2.9-10.4h-4.3c-.1-1.5-.2-3-.3-5h6.8l-1.8-3.2C372.5,212.8,374.9,216.3,377.8,218.7Z"/><path class="cls-5" d="M379.5,220.3l-1.7-1.6Z"/><path class="cls-5" d="M417.3,80.6l1.6,1.7c-.6,2.2.9,3.4,2.3,4.7s4.7,5.5,4.2,9.8h-6c-2-6.3-7.3-10.3-13.2-15C410.5,80,414,80.9,417.3,80.6Z"/><path class="cls-6" d="M405.5,105.4c1.8-4.2,4.9-3.4,8.1-3.3v6.1C410.4,109.1,407.5,109.2,405.5,105.4Z"/><path class="cls-6" d="M399.1,108.8c.5,3.2-.1,5.5-2.8,6.2s-4.6-.4-5.6-4l3.7-1-1.2-1.5Z"/><path class="cls-5" d="M399.6,76.6l4.9,3.1-4.9,3.4Z"/><path class="cls-6" d="M394.5,94.5l-4.7,1.1c-.3-1.1-.4-1.9-.7-3h5.2A12.3,12.3,0,0,0,394.5,94.5Z"/><path class="cls-6" d="M405.1,87l3.5,2.8-4.1.8c-.2-1.1-.3-1.8-.5-2.6Z"/><path class="cls-5" d="M400.8,98.3V95.9l2.9-.6c.2,1.1.4,1.8.6,3Z"/><path class="cls-5" d="M316.8,161h-4.4v-4.5l4.4-.4Z"/><path class="cls-6" d="M297.6,157.9c3.3-.2,4.3,1.5,4.9,4.6l-4.9.3Z"/><path class="cls-6" d="M312,174.7c.2-2.4.3-3.9.5-6.7l5.9,5.4Z"/><path class="cls-6" d="M321.7,146.5h4.9l.5,2.8-4.7.4C322.1,148.7,322,147.9,321.7,146.5Z"/><path class="cls-5" d="M320.5,167.7v-2.9l2.4-.5C324.2,166.5,324.1,167.8,320.5,167.7Z"/><path class="cls-6" d="M310,144.7h-2.3c-.2-.8-.4-1.7-.6-2.9l2.9-.6Z"/><path class="cls-5" d="M463.3,190.6h-4.6c-1-3.4-.1-5.6,4.1-6.8C463,186.2,463.2,188.3,463.3,190.6Z"/><path class="cls-6" d="M433.7,196.1v4.1l-4.6.5v-4.6Z"/><path class="cls-5" d="M448.3,189.7l-2.7,3.3-4-3.9C443,186.6,444.5,186.9,448.3,189.7Z"/><path class="cls-6" d="M453,176.7c.2,2.3.3,3.7.5,5.5h-4.8C448,178.8,450.4,178.3,453,176.7Z"/><path class="cls-6" d="M446.8,200.2v-2.6l4.6-.4c.2,1,.3,1.8.6,3Z"/><path class="cls-6" d="M437,176.4v2.5l-4.5.4a24.7,24.7,0,0,1-.6-2.9Z"/><path class="cls-5" d="M453.8,203.9h2.4l.6,2.8-3,.7Z"/><path class="cls-6" d="M346.7,228.5v-5.9c3.2-1.8,4.9-.1,7,2.4l-2.9,3.5Z"/><path class="cls-6" d="M353,240.5v4.1h-6.1C347.9,240.2,347.9,240.2,353,240.5Z"/><path class="cls-6" d="M360,225.5h4.3v5.9l-5-4.5A9.1,9.1,0,0,0,360,225.5Z"/><path class="cls-5" d="M349.3,234.2l5.1-3.1v6.4Z"/><path class="cls-1" d="M365,240.2h2.7v4.6H365Z"/><g class="cls-8"><path d="M49.7,561.4v2.1l-.9,1.9-.4,2L47.2,569,46,570.7l-1.7,1.2-1.5,1.5-2,.5L39.1,575l-2.1.4-1.9.6-1.7,1.2-2.1.4h-2l-2.1.2H24.9L23,578H21l-1.9-.5H17.2l-1.9-.3-1.9-.5-1.9-.4-1.7-1.1L8,574.6l-1.7-.9-1.7-.9-1.7-1.1-1.2-1.6-1-1.7-.2-2,.3-2,1.1-1.5,1.2-1.8,2-.4,1.9-.9,2-.5,2,.5,2.1-.3,1.9.6,1.9.8,1.6,1.2,1.7,1.2.4,2.1v2.1l-.3,1.8.3,1.9,1.5,1.4,1.8.7,1.9-.5,1.9-.2,1.2-1.4,1.5-1.3v-2l-.5-1.9L29,564.4l-1.3-1.5-1.8-.8L24.3,561l-1.5-1.3-1.8-.9-1.8-.8H17.1l-1.6-1.2-1.9-.6-1.5-1.3-1.7-1L8.6,553l-1.7-1-1.7-1L4,549.3l-1-1.6L1.8,546l-.4-2,.8-1.9v-1.9l.3-1.9,1.1-1.6L5,535.2l1.1-1.6,1.7-1,1.8-.8,1.6-.8,1.7-1.1,1.9-.4,1.8-.5,1.8-1,1.9-.2,1.9-.3,2,.4h2.2l2-.6,1.8.6h2l1.8.5,1.9.4,1.6,1.1,1.8.7,1.6,1,1.9.7,1.2,1.6,1,1.6.9,1.7,1,1.7v2l-1.3,1.5-1.2,1.7-1.9.7-1.9.5-2-.2-1.8-.4h-2l-1.9-.7-1.5-1.3-1.2-1.5-.9-1.5-.9-1.7-.7-2-.8-2.1-1.6-1.4H23.1l-2,.7v2.2l-.2,2.1.5,1.8,1,1.6,1.3,1.4,1.3,1.4,1.8.8,1.7,1,1.6,1.1,1.9.6,1.7.8,1.6,1.3,2,.3,1.4,1.4,1.8.8,1.9.6,1.7.9,1.2,1.7,1.7.9.9,1.8.7,1.7Z"/><path d="M126.7,567.7v1.9l-.9,1.7-1.1,1.5-1,1.8-1.6,1.1-1.8.9-1.8.7h-2l-1.9.6h-5.9l-2-.2-2,.4h-2l-1.9-.2-2,.5-2-.2h-2l-1.9-.4-2,.4h-4l-1.9-.6-2.1.4-2-.6-1.6-1.2-1.9-.9v-4l.8-1.8,1-1.8,1.4-1.5v-1.9l.5-1.9.5-1.9.3-2-.5-2,.5-1.9-.2-2-.3-1.9.4-2-.7-1.9-.3-1.9-.2-2v-2l-.4-1.9-1.3-1.5-.5-1.8-.5-1.7-.4-1.6.2-1.9L79,529l2-.3,1.9-.6,1.9-.6,2,.6,2-.6.9.2h2l1.9.5,2.1-.3,1.9.6,1.9.5,1.1,1.7.8,1.6v1.8l-.8,1.6-.7,1.7-1.1,1.7v2l-.4,1.9-.7,2-.5,1.9V549l-.6,2,.4,2v2l.4,2v6.1l.9,1.9.7,1.9.4,2.1,1.3,1.5,1.2,1.7,2.1.4,1.9.2,2,.4,1.6-1.1,1.7-.9,1.5-1.3.6-1.9.8-1.7,1.2-1.7,1.8-1.1,2.1-.2,2-.2h2.1l2,1,1.4,1.6Z"/><path d="M176.7,537l-.2,2.1-.6,1.8-.3,1.9-.9,1.9-.3,1.9.5,2-.3,1.9-.3,2,.2,2-.4,1.9.5,2,.2,1.9v2l.2,1.9.3,2,1.2,1.6.9,1.8,1.2,1.6.3,2-.5,2-1.5,1.3-1.8.8h-4l-2,.5-2,.2-.9-.7-2,.3-1.9-.4-2-.2-1.9-.3-2-.4-1.6-1.3-.4-2,.2-2,1.2-1.7,1.1-1.7,1-1.6.6-1.9v-2l.7-1.9.2-2-.4-2,.2-1.9.3-2v-1.9l-.2-2-.3-2-.2-1.9-.3-2-.5-1.9-.9-1.8-.3-2-1-1.4L155,534l-.4-1.7.6-1.8,1.3-1.6,2-.2,1.9-.7h2l1.9-.2,2-.3.9-.2h2l2,.6h1.9l1.9.6,1.9.7,1.3,1.3.9,1.7-.7,1.7v1.8Z"/><path d="M258,559.8l-.8,1.8-.8,1.8-1.2,1.6-.6,1.9-1.7,1.1-.7,1.9-1.8,1.1-1.2,1.5-1.9.6-1.7,1-1.6.9-1.8.9-1.7.9-1.9.4-1.9.3-1.9.2-2-.2h-1.9l-2.1.4-2-.5-1.9-.7-1.9-.5-1.8-1-1.9-.7-1.4-1.5-1.6-1.1-1.9-.9-1.1-1.8-1.2-1.6-1.1-1.6-1.2-1.6-1.2-1.6-.3-2.1-.7-1.9v-2l-.9-1.9v-2l.5-2v-2l.5-2,.6-1.9.9-1.8.6-1.9,1.1-1.7.9-1.8,1.8-1.2,1.4-1.4,1.3-1.5,1.8-.9,1.4-1.5,2-.5,1.6-1.4h2.1l1.8-.8,1.9-.6,2,.2,2-.6,2,.2h2.1l1.9.8h2.1l1.7,1.1,1.9.7,1.8.9,1.7,1,1.5,1.3,1.7,1.2,1.3,1.6,1.6,1.3.5,2.1,1.3,1.5.6,1.9v1.9l-.6,1.8-.4,1.9-1,1.7-1.9.9-1.7.8-1.6,1-1.7,1.1h-4l-1.8-.8-2-.3-1.2-1.6-1-1.7-.4-1.9v-1.9l-.2-1.9.6-1.9-.6-1.8v-1.9l-.2-1.8-.7-1.8-1.3-1.4-1.6-.7-1.8-.9-2,.9-1.5,1.5-1,1.8-1.2,1.8L225,540v2.2l-.9,1.9-.3,2,.5,2.1-.2,2.1v2l.5,2v2l.8,1.9.9,1.8.6,1.9,1.1,1.6,1.5,1.4,1.7,1.2,1.8.8,2.1-.2,2,.5,2-.2h2l1.9-.5,1.8-1,1.6-1.2,2.1-.5,1.3-1.6,1.8-.9,1.1-1.7,1.9-1.1,2.2-.6Z"/><path d="M303.9,548.3h4.7l1.8-.7,1.5-1,1.6-1.1.7-1.9,1.7-1.1,1.9.9.6,1.8.5,1.8.5,1.7.2,1.9v1.8l-.7,1.8-.8,1.6-.4,1.8-1.7,1.1-1.3-1.5-1.3-1.3-1.3-1.3-1.7-.9-1.7-.8-1.9-.3h-1.5l-1.4.7.2,1.6-.3,2,.2,2v2l.5,1.9.7,1.9.7,1.8.5,2,1.1,1.6,1.2,1.6,1.7,1,1.8.2h2l1.8-.7,2-.6,1.5-1.5.8-1.9,1.1-1.7,1.2-1.5,1.6-1.4,2-.4,2.1.2,1.9.6,1.8.9,1.8,1,.7,2-.6,1.9-.4,2-1.6,1.2-1.2,1.6-1.4,1.3-2,.5-1.6,1.3-1.9.3h-4l-1.9.5-2-.2-2,.2h-2l-1.9-.7-2,.7-2-.4-2-.3-1.9.2-2,.2-2-.3-2,.2-2,.3h-2l-1.9-.8-1.9-.5-1.8-.6-1.3-1.2-.7-1.7.4-1.9.8-1.8,1-1.7.7-1.8,1-1.7v-2l.5-1.9-.2-2,.2-1.9.5-2-.3-2,.3-1.9-.7-2-.4-1.9.5-2-1-1.9v-1.9l-.7-1.9-.8-1.7-.7-1.6-.6-1.7-.2-1.7v-1.9l1.5-1.4,2-.3,1.9-.5h2l1.9-.7h2l2,.2h5.9l2-.4,2,.5,1.9-.2h2l2,.3h4l1.9-.3,2,.3h2l1.8.7,1.9.6,1.7.9,1.7,1,1.2,1.6,1.2,1.6,1.1,1.7.2,2-.8,2-1.5,1.5-2,.7-2,.6h-2.1l-2.1-.4-1.7-1.3-1-1.8-1.3-1.6-.8-1.9-1.4-1.5-1.7-1.1-2-.5h-2l-1.9-.2-1.7,1.1-.7,2-1.2,1.4-.5,1.8-.5,1.9-1.2,1.6.2,2v1.9Z"/><path d="M512.8,562.7v3.9l-1.2,1.6-1,1.5-.7,1.9-1.9.8-1.5,1.2-1.3,1.6-2,.2-1.7.9-1.9.4-1.7,1h-3.9l-2,.3-2-.3-2,.5-1.9-.3h-2l-2-.3h-4l-2,.5h-4l-1.9-.5-2,.2-2.1-.3-1.8-.9-1.3-1.5-.3-1.8.4-1.8.7-1.9.7-1.9,1.1-1.5.4-1.9.5-1.9.3-1.9-.2-2,.5-1.9.2-2v-2l-.7-1.9.4-2-.3-1.9v-2l-.9-1.9v-1.9l-.4-2-.8-1.8-.9-1.5-1.3-1.4.4-1.9.3-1.8,1.4-1.4,1.8-1,1.9-.4,2.1.2,1.9-.5h4.1l2.1.6,2-.6h2.1l2.1.2h4.1l2.1.3h1.9l1.9.5h2l2,.4,1.6,1.1,2,.6,1.4,1.4,1.7,1,1,1.7.7,1.7.9,1.8v1.9l.2,2-.7,1.9-.9,1.8-1.3,1.5-1.8.9L502,549l1.5.8,1.5,1.1,1.7.8,1.4,1.3,1.6,1,1.1,1.6,1.1,1.6.8,1.7.4,1.9Zm-31.6-10.2v2.2l.5,2-.3,2,.2,2,1,1.9-.2,2.1.6,1.9,1.4,1.7.3,2.1,1.4,1.5,1.6,1.3h2.1l1.6.3,1.7-.4,1.3-1.1,1.4-1.4.3-2,.7-1.8.2-2,.2-2-.3-2-.7-1.9-1.3-1.5-1.1-1.6-1.3-1.5-1.4-1.4-2-.3h-1.9l-1.9-.3h-2Zm.2-4.4,2.4-.2,1.8-1.1,2-.5,1.7-1.3,1-1.9,1.8-1.3.9-1.8v-2.2l1-1.9-.6-2.1-1.2-1.7-2.4-.2h-2l-1.7,1-1,1.7-1.2,1.6-.3,2-.8,1.8-.5,1.9-.6,1.9-.3,2Z"/><path d="M595.9,552.8l-.4,1.9v1.9l-.2,2-.6,1.9-.8,1.8-1,1.6-1.1,1.6-.8,1.9-1.3,1.5-1.4,1.3-1.5,1.3-1.6,1.2-1.6,1.1-1.7,1.1-1.9.5-1.8.7-1.9.5-1.8.8h-2.1l-1.9.7h-1.9l-2-.6-2,.5-1.8-1.1-1.9-.3-1.9-.7h-2l-1.6-1.4-1.6-1-1.8-.8-1.8-.9-1.4-1.4-1.3-1.5-1-1.7-1.7-1.2-.5-2-1.1-1.6-.7-1.8-.6-1.9-.6-1.9-.3-2,.3-1.9v-2l.5-1.9-.2-2,.7-1.9.6-1.9,1.5-1.5.7-1.8,1-1.7,1.3-1.5,1.6-1.2,1.3-1.4,1.4-1.5,1.9-.7,1.7-.9,1.9-.5,1.7-1.3,1.9-.4,1.9-.3,1.9-.8h2l2,.3h1.9l1.9.6,1.9.2h2l1.8.8h2.1l1.5,1.6,1.9.5,1.5,1.2,1.5,1.3,1.8,1,1,1.7,1.4,1.4,1.3,1.4,1,1.7.8,1.9.8,1.7.6,1.9.2,2,.7,1.9ZM577.5,551v-2.1l-.7-1.9-.9-1.8-.7-1.9-.7-1.8-.8-1.9-.9-1.8-1.6-1.3-1.4-1.4-1.5-1.3-1.8-.8h-2l-1.7.9-1.3,1.5-1.3,1.5-.7,1.9-.6,2v2l-.6,2,.5,2v2l-.4,2,.9,1.9-.3,2.1.5,2,.5,1.9,1.2,1.7v2.1l.8,1.9,1.2,1.6,1.4,1.5,1.1,1.7,1.2,1.5,1.4,1.5,2.1.2,1.9.6,1.8-1,1.4-1.4,1-1.8.5-1.9.5-1.9.6-1.9v-2.1l.3-2L578,557v-2l-.3-2Z"/><path d="M674.5,574.3l-1.3,1.5-1.4,1.4-1.9.5-2-.3H666l-1.9.6h-2l-1.9-1.1-1.8-.5-2-.3-1.9-1-1.4-1.5-1-1.7-.4-2-.4-2,.2-1.5-.3-1.5v-3.8l-1.4-1.2-1.7-.4-2.1-.5h-2.2l.4,2.4.3,2.2.4,2.2.9,2,1.4,1.4.5,2.1.9,1.8-1,1.7-1.4,1.2-1.8.9-1.9.3h-2l-1.9.4h-2l-.9-.4h-2l-2-.2h-1.9l-1.9-.6-2-.3-1.6-1.2v-2l-.2-2.1,1.2-1.6,1.2-1.6.8-1.8.8-1.8v-2l.4-1.9.4-2-.3-1.9.4-2v-2l-.2-1.9-.5-2v-3.9l-.4-2-.3-1.9-1-1.8-.4-1.9-1.3-1.3-.8-1.7-.2-1.8.9-1.7,1.3-1.3,1.7-1.1h2.1l1.9-.2,2-.3,2,.2,2-.4h2l1.9-.2h4l2,.4,2-.4h2l2.1.3,2,.3,1.8.9,1.8,1.1,1.8.7,1.8,1,1.8,1,.9,1.9,1.8,1.2,1,1.8.8,1.9.3,2-.2,2,.3,1.9-.7,1.8-.9,1.7-.6,1.9-1.4,1.4-1.4,1.3-1.5,1.1-1.4,1.3,1.8.8,1.9.5,1.2,1.5L668,560l1.1,1.5.5,1.9v3.8l.3.8.7,1.8,1.3,1.4,1.2,1.7Zm-27-19,1.9-.2,1.2-1.5,1.2-1.4,1.6-1.2.9-1.7v-2l.3-1.9.9-1.8v-2l-.9-1.8-.8-1.7-.7-1.8-1-1.6-1.1-1.6-1.6-.9-1.8-.6-1.4,1.1-1,1.5-1.1,1.6v3.9l-.7,1.9v1.9l.5,1.9v1.9l.2,2,.2,1.9,1,1.7.5,1.9Z"/><path d="M757.3,552.8l-.6,1.9-.3,1.9-.3,2-.6,1.8-.4,2-1.3,1.5-1.1,1.6-.6,2-1.6,1.3L749,570l-1.2,1.6-1.6,1.2-1.6,1.1-2,.4-1.5,1.5-2,.2-1.9.7-1.8.5-2,.4-1.9.4-2-.3-1.9-.3h-2l-1.9-.4h-2l-1.8-1-1.9-.4-1.8-.9-1.5-1.3-1.9-.7-1.2-1.6-1.7-1.1-1.7-1.1-.9-1.8-1.2-1.5-1-1.7-1.2-1.6-.8-1.8v-2.1l-.8-1.8v-2l-.3-1.9.5-2-.4-2,.7-1.9.7-1.8.4-2,.9-1.7,1.2-1.6,1.4-1.4,1-1.8,1.6-1.1,1.3-1.5,1.8-.9,1.5-1.3,1.7-.8,1.9-.6,1.8-.8,1.8-.6,1.9-.3,1.9-1.1h1.9l2,.3,2-.4,1.9.5h2l2,.3,1.8.7,1.9.6,1.6,1.3,1.8.8,1.7,1,1.5,1.3,1.7,1,1.1,1.7,1.2,1.6,1.5,1.3.8,1.8.6,1.9,1,1.6.3,2,1.1,1.8v2ZM738.2,551v-2l-.5-2-.7-1.9-.7-1.8-1.2-1.7-.5-2-.9-1.8-1.8-1.2-1.1-1.7-1.5-1.3-2-.5h-1.9l-1.8.7-1.7,1.1-.4,2.1-1.2,1.7-.4,2-.3,2v2l.2,2-.2,2v2l.5,2,.2,2,1,1.8v2.1l.9,1.8.7,1.8.5,2,1.3,1.6.6,2,1.4,1.5,1.7,1.1,1.3,1.6,1.8.7h2.1l1.6-1.1,1.3-1.4,1.5-1.4.4-2,.6-2v-2l.7-1.9-.7-2.1.2-2v-2l-.5-1.9Z"/><path d="M29.9,627.9l-.8,1.9-.2,2-.6,2-1.2,1.6-1.6,1.3-1.6,1.2-1.7.9-1.8.9-1.8.9-2.1-.3-1.9.4-2,.2-2-.4-2,.2-2.1.2-1.8-.6L3,640.1l-1.7-.3L0,638.4l1.5-2.3.7-2,.3-2.1v-2l.2-2.1v-2l-.2-2.1-.3-2L1.3,620l-.7-2.6.8-1.1,1.6-.8,1.7-.4,1.8.3,2-.6,2.1.5h8l1.9.7,1.6,1.1,1.7,1.1,1.8.9,1.2,1.5,1.1,1.7L29,624l.5,1.9Zm-10.2,0,.4-2.2-.8-2-1-1.9-.8-1.9-1.3-1.7-2-.7-1.8.8-.7,1.9v1.9l-.9,1.9.2,2,.2,1.9-.4,2,.3,1.9.4,2v2l.9,1.9,1.9.8,1.6-.9,1.7-.9.9-1.6.7-1.7.3-1.9.4-1.8Z"/><path d="M54.9,625.5l1.4.2,1.9-.6,1.3-1.3,1.7-.9,1.3,1.6.5,2.2-.8,2.2-1,2.1-1.4-1.6-1.6-1.1-1.9-.3-1.7-.4V630l.3,2.1.9,1.8v2.2l1.5,1.6,1.9.9,2.1-.4,1.6-1.5,1.1-1.8,1.4-1.8,2.3-.3,2.1.9,1,1.9-.2,1.9-1.4,1.3-1.6.8-1.6.9-1.8.5-1.9-.6H60.4l-2,.2-1.9.5-2-.2-1.9-.2-1.9.2-1.8-.6H47.1l-1.8-.4-.6-1.5.5-1.3.4-1.6.5-1.8.6-1.9v-2l.3-2-.5-2,.2-2v-2.1L45.4,620l-.7-2.6.4-1.8,1.9-.5,1.8-.3h1.9l1.9.4,1.9.2,2-.6,1.9.5h1.9l2-.5h1.9l1.8.7,1.6.9,1.7.7.7,1.7.9,1.6-1.4,1.4-1.9.9H65.5l-1.7-1.5-1.1-1.7L61.2,618l-2-.6-2,.7-1,1.7-.8,1.9-.5,1.9Z"/><path d="M109.8,620.8l-1.6-1.8-1.8-1.5-1.4,1.3v2l-.7,1.8v1.9l.2,1.9-.4,1.9v1.9l.5,1.8v1.9l.7,1.8.9,1.3.3,1.4-.5,1.7-1.8.8h-1.9l-1.8.2h-.4l-1.8-.6-1.9.2-1.8-.6-1.1-1.6,1-1.3.7-1.4.3-2.1v-2l.7-2.1-.4-2.1.4-2.1v-2.1l-.7-2V619l-1.5-1.8L92.6,619l-1.4,1.9-1.4,1.7-2.1-.5-1.6-1.3-.6-2,.9-1.9,1.6-1.7,2.3.2,2.1-.3h4l2,.3,2-.2,2,.4,2-.4,2,.3,2-.2h2.1l2.1.7,2.1.8.2,2.2-.5,1.8-1.5,1.2-2,.7Z"/><path d="M157,639l-1.6,1.6h-4.1l-1.9.2-1.8-.4-1.7-1.1-.7-1.7-.8-1.8.4-1.5-.2-2-1.8-1.2-2.3.3v2.3l.9,2.2.9,1.2.2,1.4-.4,1.8-1.8.3h-3.7l-.5.7-1.8-.2-1.8-.5-1.6-.7-1.2-1.3.4-1.6,1.1-1.2.5-1.9.6-1.9.4-2v-4l-.9-2,.2-2.1-.8-1.9-1.6-2.4,1.2-1.5,1.7-.5h3.6l1.9-.2h1.8l1.8-.6h1.9l2.1.6,2,.4,1.8,1.1,2.1.6,1.1,1.9.9,1.8.9,2-.7,2-1,1.6-1,1.8-1.8,1,2,.5,1.5,1.3.6,2,.6,1.9-.3.4.8,2Zm-14.5-10,1.6-.7,1.6-1.2.8-1.9v-2l-.5-1.9-.7-1.8-.8-1.8-2-.4-1.5,1-.7,1.9-.2,2,.3,2v2l.6,1.9Z"/><path d="M199.9,627.9l.2,2-.4,1.9-.7,1.8-1.2,1.6-1,1.7-2,.7-1.6,1-1.6,1.1-2,.2-1.8,1.1-2-.3-1.9-.3-1.8-.4-1.9-.4-2-.4-1.4-1.4-1.3-1.5-1.5-1.2-1.4-1.5-.6-1.9v-3.8l-.6-2,.7-1.9,1.2-1.5.9-1.7,1.3-1.5,1.5-1.1,1.5-1.4,1.8-.8h2l1.8-.9,1.9.5,2-.6,1.9.7,1.8.8,1.9.5,1.4,1.3,1.4,1.3,1.9,1,.9,1.7.8,1.8.7,1.9Zm-8.9-1-.9-1.9-.7-1.9-1-1.8-1.2-1.8-1.7-1-1.8-1-2,1.1-.6,2.1-.8,2,.7,2.1-.3,2.1v2l.4,2.1,1,1.9,1.4,1.6.8,1.9,1.4,1.7,2.2.2,1.5-1.4,1.1-1.7.7-2,.2-2.1-.9-2Z"/><path d="M226,620l-.7,1.8-.4,2-.3,2,.4,2-.7,2v2l.6,2,.6,2,.8,1.2.4,1.4-.8,1.2-1.5.9h-1.9l-1.8.6h-.5l-1.8-.7-1.9.4-1.6-.9-1-1.5.7-1.4.8-1.3.5-1.9.8-1.9-.3-2.1v-2l-.3-2,.3-2-.5-2-.7-2-1-2.4.5-1.7,1.9-.6,1.8.4,1.8-.4.5-.2h1.9l1.8.3,1.5,1.2,1.4,1.1Z"/><path d="M266,620.8l-1.6-1.8-1.8-1.3-.7,1.4-.5,1.7-.7,1.8-.2,1.9v1.9l-.3,1.9.2,1.9v1.9l.3,1.9,1.3,1.5.5,1.5.6,1.4-.9,1.7-1.8.5-1.8-.2h-4.1l-1.9.4L251,640l-.8-1.6.6-1.4,1-1.2.7-2.1v-2.1l.5-2.1-.4-2.1v-2l-.2-2.1.2-2.2-.8-1.9-1-1.5-2.1,1.1-1.4,2-1.1,1.9-2.2-.3-1.8-1.5-.2-2.1.3-2.3,2.1-1,2.2-.5h2.2l2,.3,2,.3,2-.6,1.9.4h4l2-.7,2,.4,2.2-.2,2,.9,1.8,1,1,1.9-.5,2.1-1.8,1.3-2-.2Z"/><path d="M347.6,632.4l.2,1.9-1.2,1.6-1,1.6-1.5,1.2-1.9.5-1.7.7-1.9.3-1.8.6-1.9.3-.2-.8-2,.2h-2l-2-.4-2-.3-1.9-1-1.6-1.2-.8-1.9-.9-1.8,1.7-1.3,1.7-1.1h2l2-.2,1.9.7,1.3,1.4.3,1.9.5,1.8,1.4,1.4,2-.4,1.4-1.5-.2-1.9-1.3-1.4-1.7-1-1.7-.7-1.5-1.4-1.8-.9-2-.4-1.8-.7-1.1-1.8-1.3-1.4-.5-1.7.2-1.8.5-1.8,1.1-1.5,1.5-1.2,2-.4,1.6-1.1,1.9-.2,1.9-.5,1.9.2v.2h2l1.9.5h2.2l1.6,1.3,1.9,1,.7,2,.4,1.9-1.4,1.3-1.9.6-1.9-.2-2-.3-1.8-1-.4-2-.9-1.8-1.6-.9-1.3.8-.5,1.7,1.1,1.6,1.3,1.4,1.8,1,1.8.9,1.7,1,1.7,1.1,1.8.9,2,.7,1.3,1.7Z"/><path d="M386.1,621l-1.2-2.1-1.8-1.6-1.5,1.5v2l-.2,1.8-.5,1.9v3.8l-.3,1.9.3,1.9.3,1.8.9,1.7.6,1.4.4,1.4-.7,1.4-1.6,1.1-1.9-.6-1.8.6-.4.2-1.8-.4-1.8-.2-1.9-.3-.6-1.8.3-1.5.9-1.3.8-1.9.2-2.1v-2.1l.4-2.1-.4-2v-4.3l-.5-2-1.4-1.9-2.2,1.4-1.3,2.2-1,1.8-2.3-.3-1.5-1.5-.9-2,1-2.1,1.9-1.1,2.2-.2,2.2-.4h2l1.9-.3,2,.5,2,.2h2l2-.5,2,.4,2,.2,2.2-.4,2.2.2,1.9,1.3.8,2.2-.8,2-1.6,1.4h-2.1Z"/><path d="M437.3,616.8l-1.3,1.5-1.9.7-1.1,1.7-1.7,1.1-1.3,1.5-1.3,1.4-1,1.8-.7,1.8-.8,1.8-.6,1.8-.3,2.1,1.4,1.6.9,1.3.4,1.5-.8,1.8-1.9.3-1.8.5-1.8-.6-.5.2-1.8.4-1.8-.7h-1.9l-.6-1.8.5-1.4.7-1.3.7-1.9.3-2.1-.5-2-.7-1.9-1-1.8-1.2-1.7-1.5-1.4-1.4-1.5-1.4-1.6-1.2-1.2-1.4-1.2.3-1.6,1.7-.5,1.8.2h2.3l2.2-.5,2.2.6,2.1.6,1.6,1.4.8,2.5-.2,1.9.9,1.7.7,1.7,1.1,1.5.4-1.8.5-1.8,1.2-1.5.4-1.9.3-1.8v-1.2l1.5-1.4h2l2-.5,1.8.4,1.7.5Z"/><path d="M478.3,635.6l-.7,1.5-1,1.4-1.2,1.4-1.7.6h-1.9l-1.9-.2-1.9.5-2-.6-1.9.7h-3.9l-1.9-.5-1.9.7-1.7-.9-1.8-.3-1.2-1.5.7-1.5,1.2-1.1.7-2v-2l.6-2-.3-2v-2l-.7-2-.2-1.9L453,620l-1-2.6,1-1.4,1.6-.7h1.9l1.8-.7.4.7,1.9-.6,1.8.5,1.8.5.9,1.6-.9,2.7-.7,1.7-.3,1.8-.8,1.8v3.8l.6,1.9V633l.9,1.7.4,1.9,1.5,1.1,1.7,1,2.1-.5,1.1-1.7,1-1.7,1.9-1,1.9-.4,2.1.5Z"/><path d="M503.3,625.7h1.5l2-.5,1.2-1.5,1.7-1.2,1.3,1.9.2,2.2v2.4l-1.5,1.8-1.7-1.2-1.2-1.5-2-.5-1.5.4v4l.7,2,.8,1.8,1.4,1.5,1.6.7,2.1-.2,1.8-1,.8-2.1,1.6-1.6,2.2.3,1.9.5,1.4,1.6-.5,1.8-1.2,1.4-1.4,1.3-1.8.4-1.8.6h-2l-1.9-.7-1.9.6h-2l-1.9-.7-2,.6h-3.7l-1.9-.2-1.9-.5-1-1.8.8-1.5.7-1.4.9-1.7.2-2,.3-2v-6.1l-.4-2-.9-1.9-.9-2.4.5-1.5,1.8-.3,1.8-.6h3.7l2,.2,1.9-.5,1.9.3h2l1.9.3,2-.2,1.7.2,1.6,1,1.9.5,1,1.6.7,1.8-1.6,1.5-1.9,1.1-2.1-.6-1.5-1.3-1.2-1.7-1.6-1.4-2.1-.5-1.8.9-1.1,1.6-.7,1.8-.2,2Z"/><path d="M593.4,623.2l.2,2.2-1,1.9-1.6,1.5-1.7,1.2-2.1.6-2,.4h-2.1l-1.5.6h-1.3l-.3,2,1.1,2.1,1.3,1v1.7l-.9,1.2-1.5.8-1.8.7h-1.9l-.4-.2-1.8-.4h-1.8l-1.8-.4-.6-1.5v-1.6l1.3-.9.5-2.1.4-2v-6l-.3-2-.3-2-.7-2-1.3-2.4,1-1.5,1.7-.7,1.8-.4,1.9.3h3.6l1.9-.4,1.8-.2,2.1.7,2.1.2,1.8,1.2,1.9.8,1.3,1.8,1.3,1.7Zm-7,0-.8-1.9-.8-1.8-1.1-1.5-1.7-.7-1.4,1-.6,1.9-.3,2,.6,2,.2,1.9-.2,2.1,1.7,1.2,1.5-1.2,1.7-1.1,1-1.8Z"/><path d="M620.5,620.1l-.6,1.8-.8,1.9-.3,2,.4,2-.3,2,.3,2,.3,2,.6,1.8,1.1,1.2.5,1.6-1,1.8-1.9.5-1.8.2-1.9-.3h-2.2l-1.8-.4-1.7-.3-.9-1.4.2-1.5,1.1-1.2.6-1.9.8-1.9-.6-2.1v-2l.3-2-.5-2v-2l-.8-2-1.3-2.4,1.2-1.2,1.6-.8,1.7-.4,1.9-.2.4.2,1.9-.2,1.7.8,1.6.7,1,1.1Z"/><path d="M665.7,617l-1.7.8-1.7.9-1,1.5-1.1,1.7-1.1,1.8-1.3,1.6-1.3,1.6-.6,2.1-1.5,1.5-1.1,1.7-1.1,1.7-.9,1.9-1.5,1.3-1.5,1.6,1.9-.4h1.9l1.8.3,1.8-.9,1.4-1.3.8-1.7,2-1.1h2l2.2.2.7,1.9-.3,1.7-1.1,1.7-2,.5-1.6,1.1-2-.2-1.9.5-2.1.3h-4l-2.1-.5-2-.3-2,.7-2-.4h-2.2l-2.1-.2-1-1.4,1.3-1.1,1.4-1.1,1.6-1,1-1.8,1.3-1.7.8-1.9,1.4-1.5,1-1.8.8-2,1.3-1.6,1.1-1.7,1.3-1.6,1-1.5,1.2-1.2h-1.8l-1.9-.3h-1.9l-1.8,1.1-1.7,1L643,621l-1.5,1.5-2.2.2-1.9-1-1.7-1.4,1.2-1.7,1.3-1.3,1.4-1.4h2l1.8-.6h3.8l1.8-.3,1.9.6,1.9-.6h1.8l1.9.5,1.9-.5h1.8v.5l2.1.3h2Z"/><path d="M709.3,616.8l-1.1,1.3-1.9.5-.9,1.6-1.3,1.6-1.2,1.7-.7,2-1.6,1.5-1,1.8-1.2,1.6-1.2,1.7-1,1.8-.9,1.9-1.3,1.4-1.5,1,1.8.3h1.8l1.9-.3,1.9-.2,1.3-1.4,1.3-1.5,1.3-1.7,2.2-.4,2.1.9.9,1.8-.7,1.6-1.2,1.3-1.4,1.4-2,.2-1.8.8-2,.2-2-.7-2,.3-2.1.2h-4l-2-.3-2.1.2-2.1-.5-2.1-.2-1.3-1.4,1.4-1.1,1.6-.9,1.1-1.3,1.5-1.5.9-1.9,1.3-1.6,1-1.8,1-1.8,1.3-1.6,1-1.8,1.4-1.6.5-2.1,1.2-1.4,1.5-.6-1.8-.8-1.8.8-1.9-.2-1.9.4-1.3,1.4-1.4,1.4-1.4,1.4-2.1.7-1.8-1.2-1-1.5.4-1.7,1-1.7,1.9-.7,1.8-.6h3.8l1.9-.7h1.8l1.9.7h5.6l1.8.2,1.9-.5h0l2.1.2,1.9.5Z"/><path d="M757.8,638.9l-1.2,1.6-1.8.3H753l-1.8.2-2.1-.7H747l-2.1-.6-2.1-.7,1.3-2-.2-1.8-.9-1.5-1.1-1.5-1.8-.8-1.7-.3-1.7.2-1.7.2-2,.8-.6,2.1.8,1.7,1.6,1v1.7l-1.5,1.2-2.1.8-2.2-.5-2.1.2-1.8-.7-1.5-1.1,1.6-1.6,1.6-1.4,1.3-1.7,1.6-1.6.3-2.2,1.1-1.7.9-1.9.5-2.1,1.1-1.8.5-2,.7-2,.9-1.9,2-1,1.8-1,2.1.3,2.2.3,1.8,1.5,1.1,2,.3,1.9,1,1.7.5,1.9.7,1.8.8,1.8.7,1.8,1.2,1.6.7,1.8.6,1.9,1.6,1.2,1.4,1.1Zm-17.5-12.3-.8-1.7-.7-1.8-.8-1.6-.8.2-1.3,1.4-.6,1.8-.8,1.6.2,1.9,1.5,1.1h2.5l1.8-1Z"/><polygon points="406.9 554.3 406.3 558.2 404.1 561.4 401 563.9 397 565 393.4 563 389.6 561.7 387.3 558.3 387 554.3 388 550.6 389.6 546.9 393.5 545.9 397 544.2 400.8 545 404 547.3 406.9 550.2 406.9 554.3"/></g></svg>